<svg width="24" height="24" viewBox="0 0 24 24" fill="none" xmlns="http://www.w3.org/2000/svg">
<g clip-path="url(#clip0_1767_10606)">
<path d="M10.834 -0.0136523C10.891 -0.0142504 10.9479 -0.0148485 11.0066 -0.0154648C11.0678 -0.0155691 11.129 -0.0156734 11.192 -0.0157809C11.2559 -0.0160825 11.3199 -0.0163979 11.3838 -0.0167265C11.5176 -0.0172868 11.6515 -0.0174616 11.7853 -0.017406C11.956 -0.0173965 12.1267 -0.0186752 12.2974 -0.0202909C12.4294 -0.0213384 12.5614 -0.0215233 12.6935 -0.0214738C12.7867 -0.0216369 12.88 -0.0226501 12.9732 -0.0236816C13.3645 -0.0217158 13.6304 0.0144842 13.9329 0.279568C13.9582 0.310083 13.9834 0.340597 14.0095 0.372036C14.0354 0.40243 14.0614 0.432824 14.0882 0.464139C14.2207 0.656465 14.2614 0.823604 14.2588 1.05557C14.2585 1.10346 14.2582 1.15134 14.2579 1.20068C14.2571 1.25014 14.2564 1.2996 14.2555 1.35055C14.2551 1.40092 14.2547 1.45128 14.2543 1.50317C14.2532 1.62711 14.2516 1.75103 14.2497 1.87497C14.2862 1.87455 14.3228 1.87413 14.3604 1.8737C14.7066 1.86993 15.0527 1.86708 15.3989 1.86525C15.5768 1.86428 15.7547 1.86296 15.9326 1.86082C16.1046 1.85877 16.2766 1.85766 16.4487 1.85718C16.514 1.85683 16.5793 1.85616 16.6445 1.85514C17.157 1.84746 17.5884 1.90306 17.9748 2.26388C18.3324 2.66159 18.3886 3.05459 18.3853 3.57407C18.3853 3.63172 18.3854 3.68937 18.3854 3.74876C18.3853 3.90622 18.3848 4.06367 18.3842 4.22113C18.3836 4.38591 18.3836 4.55069 18.3834 4.71548C18.3831 5.02724 18.3824 5.339 18.3814 5.65076C18.3804 6.00581 18.3799 6.36086 18.3794 6.71591C18.3784 7.44601 18.3768 8.17611 18.3747 8.90622C18.5022 8.91483 18.6298 8.92315 18.7574 8.93129C18.7933 8.93375 18.8292 8.9362 18.8661 8.93873C19.1266 8.95503 19.3646 8.94355 19.6198 8.88571C19.6542 8.87879 19.6886 8.87187 19.7241 8.86474C19.8057 8.8482 19.8871 8.83048 19.9684 8.81247C19.9657 8.76388 19.963 8.7153 19.9602 8.66525C19.958 8.60104 19.9559 8.53683 19.9538 8.47262C19.9518 8.44066 19.9499 8.40869 19.9478 8.37576C19.9439 8.21363 19.9485 8.13061 20.0612 8.01046C20.2432 7.89658 20.4061 7.86611 20.6157 7.83175C20.6553 7.82474 20.6949 7.81772 20.7356 7.81049C20.8191 7.79583 20.9026 7.78151 20.9861 7.76751C21.1135 7.74614 21.2406 7.72376 21.3678 7.7012C21.4491 7.68704 21.5305 7.67294 21.6118 7.6589C21.6496 7.65231 21.6874 7.64572 21.7264 7.63893C22.2768 7.54729 22.2768 7.54729 22.4997 7.68747C22.6591 8.05791 22.7118 8.45962 22.7811 8.85474C22.7944 8.92971 22.8079 9.00467 22.8213 9.07963C22.8575 9.28219 22.8933 9.48482 22.9291 9.68747C22.959 9.85709 22.9891 10.0267 23.0193 10.1963C23.0904 10.5966 23.1611 10.9969 23.2317 11.3973C23.3043 11.8094 23.3775 12.2213 23.451 12.6333C23.5142 12.9879 23.5771 13.3426 23.6397 13.6973C23.677 13.9087 23.7145 14.1202 23.7522 14.3315C23.7878 14.5304 23.8228 14.7293 23.8576 14.9283C23.8704 15.001 23.8833 15.0736 23.8964 15.1462C24.0802 16.1679 24.0802 16.1679 23.9329 16.4324C23.7559 16.5315 23.5801 16.5628 23.3815 16.5966C23.3193 16.608 23.3193 16.608 23.2558 16.6197C23.1704 16.6352 23.0849 16.6505 22.9994 16.6654C22.8834 16.6859 22.7678 16.7079 22.6522 16.7305C21.8642 16.8825 21.8642 16.8825 21.6091 16.8281C21.4626 16.7256 21.4626 16.7256 21.3747 16.5937C21.36 16.4619 21.36 16.4619 21.3747 16.3593C21.2664 16.3748 21.1581 16.3903 21.0466 16.4062C21.0321 16.4613 21.0321 16.4613 21.0173 16.5175C20.8287 17.0147 20.489 17.4581 20.0915 17.8066C19.8974 17.9935 19.8784 18.1591 19.8503 18.4202C19.8017 18.7276 19.6286 19.049 19.4059 19.2656C19.0075 19.549 18.6327 19.6823 18.1403 19.6406C18.0939 19.6251 18.0475 19.6097 17.9997 19.5937C17.999 19.6221 17.9984 19.6505 17.9977 19.6798C17.9732 20.1098 17.8368 20.4346 17.5251 20.7363C17.1347 21.0551 16.715 21.1423 16.2184 21.0937C16.1875 21.0782 16.1566 21.0628 16.1247 21.0468C16.1286 21.0913 16.1324 21.1358 16.1364 21.1816C16.1341 21.5539 15.949 21.8719 15.6993 22.1365C15.3768 22.4303 15.0452 22.561 14.6071 22.5527C14.5487 22.5519 14.4904 22.551 14.4302 22.5501C14.3641 22.5485 14.3641 22.5485 14.2966 22.5468C14.2931 22.5786 14.2896 22.6104 14.2859 22.6432C14.2229 23.0894 14.0686 23.4257 13.7165 23.7158C13.29 24.0147 12.8859 24.0481 12.3747 24C12.221 23.9552 12.0903 23.8935 11.9528 23.8125C11.8329 23.7456 11.8329 23.7456 11.7184 23.7187C11.6546 23.7406 11.6546 23.7406 11.5895 23.7628C11.2475 23.8742 10.8404 23.8559 10.5054 23.7231C10.0381 23.4822 9.79367 23.1231 9.60906 22.6406C9.55975 22.6628 9.51045 22.6851 9.45965 22.708C9.03049 22.8892 8.6146 22.8729 8.1845 22.6997C7.81497 22.5211 7.57053 22.2723 7.39129 21.9052C7.35906 21.7968 7.35906 21.7968 7.35906 21.6093C7.32136 21.6296 7.32136 21.6296 7.28289 21.6504C6.88674 21.838 6.43735 21.8721 6.01159 21.7642C5.90584 21.7206 5.81454 21.6712 5.71844 21.6093C5.68532 21.5889 5.65221 21.5685 5.61809 21.5475C5.29481 21.3283 5.11772 21.0467 5.01531 20.6718C5.00542 20.5456 5.00007 20.4258 5.00066 20.2998C4.99991 20.268 4.99915 20.2363 4.99837 20.2035C4.99814 19.9638 5.05191 19.8042 5.15594 19.5937C5.12645 19.5783 5.09696 19.5629 5.06658 19.547C4.60945 19.293 4.31981 18.9991 4.15435 18.4978C4.12777 18.3877 4.1213 18.2996 4.12176 18.1875C4.10349 17.958 3.92467 17.8298 3.76676 17.6815C3.41289 17.349 3.16022 16.9376 2.95281 16.5C2.95281 16.469 2.95281 16.4381 2.95281 16.4062C2.84453 16.3907 2.73625 16.3753 2.62469 16.3593C2.62082 16.4106 2.61695 16.4618 2.61297 16.5146C2.57781 16.6875 2.57781 16.6875 2.49409 16.7675C2.14537 16.9711 1.59875 16.784 1.22072 16.7157C1.11264 16.6962 1.00443 16.6777 0.89617 16.6592C0.82658 16.6469 0.757 16.6345 0.68743 16.6221C0.655491 16.6167 0.623551 16.6112 0.590644 16.6057C0.389433 16.5684 0.222925 16.5103 0.0465608 16.4062C-0.144757 16.0236 0.0501716 15.4404 0.122984 15.0378C0.136262 14.9625 0.149502 14.8873 0.162706 14.812C0.198434 14.6089 0.234709 14.406 0.271096 14.203C0.3092 13.99 0.346825 13.777 0.384512 13.5639C0.447818 13.2064 0.511458 12.8489 0.575324 12.4915C0.649073 12.0788 0.722395 11.666 0.795468 11.2531C0.873438 10.8126 0.951674 10.3721 1.03001 9.93167C1.05251 9.80511 1.07496 9.67854 1.0974 9.55197C1.1327 9.35294 1.16819 9.15395 1.20382 8.95498C1.21684 8.88211 1.2298 8.80923 1.2427 8.73634C1.26037 8.63659 1.27825 8.53688 1.29618 8.43718C1.31109 8.3536 1.31109 8.3536 1.32629 8.26833C1.41722 7.82714 1.41722 7.82714 1.54363 7.66403C1.91481 7.48223 2.50978 7.68469 2.90976 7.75399C3.01794 7.77254 3.12626 7.79011 3.23461 7.80767C3.30414 7.81961 3.37366 7.8316 3.44317 7.84366C3.4752 7.84869 3.50724 7.85373 3.54024 7.85892C3.74919 7.8967 3.88261 7.95627 4.03094 8.10934C4.04847 8.24117 4.05357 8.34259 4.04558 8.47262C4.04453 8.50531 4.04347 8.538 4.04238 8.57168C4.03963 8.65199 4.03543 8.73224 4.03094 8.81247C4.14698 8.83817 4.26306 8.86228 4.37957 8.88571C4.42656 8.89636 4.42656 8.89636 4.47451 8.90722C4.73465 8.95784 4.97939 8.94925 5.24201 8.93129C5.27888 8.92894 5.31575 8.92658 5.35373 8.92416C5.44406 8.91836 5.53438 8.91232 5.62469 8.90622C5.62451 8.87621 5.62434 8.8462 5.62416 8.81529C5.62001 8.08361 5.61691 7.35195 5.61497 6.62027C5.61401 6.26642 5.61269 5.91259 5.61054 5.55875C5.60867 5.25018 5.60746 4.94162 5.60704 4.63305C5.6068 4.4698 5.60623 4.30658 5.60486 4.14334C5.60334 3.96068 5.60331 3.77803 5.6034 3.59536C5.60273 3.54181 5.60205 3.48827 5.60136 3.43311C5.60364 2.98738 5.70366 2.60673 6.0136 2.27487C6.3177 2.00146 6.64606 1.8627 7.05701 1.86432C7.14707 1.86433 7.14707 1.86433 7.23895 1.86434C7.30377 1.86482 7.36858 1.86531 7.4334 1.86581C7.50026 1.86599 7.56712 1.86612 7.63398 1.86621C7.80922 1.86657 7.98445 1.86749 8.15968 1.86853C8.33879 1.86949 8.5179 1.86992 8.69701 1.87039C9.04791 1.87139 9.3988 1.87299 9.74969 1.87497C9.7487 1.84427 9.74772 1.81357 9.74671 1.78195C9.74278 1.64109 9.74036 1.50024 9.73797 1.35934C9.7364 1.31106 9.73483 1.26278 9.73321 1.21304C9.72854 0.847031 9.78147 0.599542 10.0293 0.316739C10.0751 0.278852 10.0751 0.278852 10.1218 0.240201C10.1522 0.214218 10.1825 0.188235 10.2139 0.161465C10.4156 0.0224842 10.5912 -0.0119162 10.834 -0.0136523ZM10.5934 0.890591C10.4533 1.19895 10.4533 1.19895 10.4997 1.87497C11.4897 1.87497 12.4797 1.87497 13.4997 1.87497C13.5556 1.18436 13.5556 1.18436 13.3591 0.843716C13.2048 0.755829 13.0716 0.738074 12.896 0.737092C12.8519 0.736645 12.8078 0.736198 12.7623 0.735738C12.7152 0.73578 12.668 0.735823 12.6195 0.735867C12.5461 0.735566 12.5461 0.735566 12.4712 0.735258C12.3678 0.73499 12.2645 0.734965 12.1611 0.735169C12.0033 0.735317 11.8456 0.734217 11.6878 0.733029C11.5872 0.732922 11.4867 0.732889 11.3861 0.732937C11.3391 0.732506 11.292 0.732074 11.2436 0.731629C10.9956 0.733265 10.801 0.738529 10.5934 0.890591ZM6.56512 2.8945C6.35388 3.22735 6.36013 3.54757 6.36297 3.93161C6.3626 3.98025 6.36224 4.02889 6.36187 4.07901C6.363 4.52818 6.40046 4.94461 6.70281 5.29684C6.94455 5.50955 7.18249 5.57001 7.49969 5.57809C7.50144 5.5425 7.50319 5.50691 7.505 5.47024C7.50808 5.42365 7.51116 5.37707 7.51433 5.32907C7.51705 5.28284 7.51977 5.23662 7.52257 5.18899C7.54979 5.04543 7.57481 5.01063 7.68719 4.92184C7.83009 4.90785 7.96321 4.90214 8.10613 4.90316C8.14722 4.90303 8.1883 4.9029 8.23063 4.90276C8.31747 4.90266 8.40432 4.90292 8.49116 4.90351C8.62419 4.90426 8.75716 4.90351 8.89019 4.90262C8.97454 4.90271 9.05889 4.90289 9.14324 4.90316C9.18309 4.90288 9.22293 4.9026 9.26399 4.9023C9.54602 4.90567 9.54602 4.90567 9.70281 5.06247C9.72601 5.3409 9.72601 5.3409 9.74969 5.62497C11.2347 5.62497 12.7197 5.62497 14.2497 5.62497C14.2652 5.43934 14.2806 5.25372 14.2966 5.06247C14.4569 4.90212 14.5174 4.90491 14.7354 4.9023C14.7952 4.90273 14.7952 4.90273 14.8561 4.90316C14.8972 4.90303 14.9383 4.9029 14.9806 4.90276C15.0675 4.90266 15.1543 4.90292 15.2412 4.90351C15.3742 4.90426 15.5072 4.90351 15.6402 4.90262C15.7245 4.90271 15.8089 4.90289 15.8932 4.90316C15.9331 4.90288 15.9729 4.9026 16.014 4.9023C16.2917 4.90562 16.2917 4.90562 16.3926 4.98538C16.4792 5.09629 16.4769 5.19022 16.485 5.32907C16.4881 5.37566 16.4912 5.42224 16.4944 5.47024C16.497 5.52363 16.497 5.52363 16.4997 5.57809C16.8292 5.56345 17.0388 5.50925 17.2792 5.26663C17.6346 4.87356 17.6339 4.45573 17.6364 3.94626C17.6374 3.8974 17.6383 3.84855 17.6393 3.79821C17.6409 3.48006 17.6329 3.13803 17.4243 2.8788C17.151 2.62814 16.8184 2.61105 16.4679 2.61275C16.4082 2.61248 16.4082 2.61248 16.3473 2.6122C16.2146 2.61172 16.0819 2.61191 15.9491 2.61209C15.8537 2.61189 15.7583 2.61164 15.6628 2.61137C15.4041 2.61074 15.1453 2.61071 14.8865 2.61083C14.6703 2.61088 14.4541 2.61065 14.2379 2.61043C13.7278 2.60991 13.2176 2.60989 12.7075 2.61017C12.1816 2.61045 11.6557 2.60987 11.1297 2.60888C10.6779 2.60805 10.226 2.60777 9.77411 2.60792C9.50438 2.60801 9.23465 2.60788 8.96492 2.60723C8.71122 2.60664 8.45752 2.60673 8.20381 2.60735C8.11087 2.60746 8.01792 2.60733 7.92497 2.60694C7.79776 2.60645 7.67057 2.60683 7.54336 2.60742C7.50687 2.60708 7.47039 2.60673 7.4328 2.60638C7.12359 2.6094 6.7825 2.65516 6.56512 2.8945ZM8.24969 5.62497C8.24969 5.87247 8.24969 6.11997 8.24969 6.37497C8.49719 6.37497 8.74469 6.37497 8.99969 6.37497C8.99969 6.12747 8.99969 5.87997 8.99969 5.62497C8.75219 5.62497 8.50469 5.62497 8.24969 5.62497ZM14.9997 5.62497C14.9997 5.87247 14.9997 6.11997 14.9997 6.37497C15.2472 6.37497 15.4947 6.37497 15.7497 6.37497C15.7497 6.12747 15.7497 5.87997 15.7497 5.62497C15.5022 5.62497 15.2547 5.62497 14.9997 5.62497ZM6.37469 6.04684C6.37469 6.9595 6.37469 7.87215 6.37469 8.81247C7.23224 8.67464 7.23224 8.67464 8.08946 8.53479C9.35696 8.33252 10.3745 8.29325 11.5511 8.82922C11.587 8.8452 11.6229 8.86119 11.6598 8.87765C11.7073 8.89943 11.7073 8.89943 11.7558 8.92164C11.9928 8.99381 12.1776 8.95196 12.399 8.85385C12.447 8.83312 12.4949 8.8124 12.5443 8.79104C12.5937 8.76911 12.6431 8.74717 12.694 8.72458C12.7918 8.68139 12.8898 8.63853 12.9879 8.59604C13.031 8.57689 13.0742 8.55774 13.1186 8.53801C13.4835 8.40451 13.8331 8.3724 14.22 8.37301C14.2707 8.37309 14.3214 8.37316 14.3737 8.37324C14.9681 8.38195 15.5459 8.4782 16.1305 8.57809C16.2931 8.6051 16.4557 8.63184 16.6184 8.65834C16.7183 8.67468 16.8181 8.69135 16.9178 8.70842C16.9628 8.71592 17.0078 8.72343 17.0542 8.73117C17.1127 8.74116 17.1127 8.74116 17.1725 8.75135C17.3223 8.76854 17.4739 8.76559 17.6247 8.76559C17.6247 7.8684 17.6247 6.97122 17.6247 6.04684C17.4545 6.12419 17.2844 6.20153 17.1091 6.28122C16.9254 6.32461 16.9254 6.32461 16.7721 6.34274C16.6943 6.35262 16.6943 6.35262 16.6149 6.3627C16.5578 6.36877 16.5578 6.36877 16.4997 6.37497C16.4979 6.41394 16.4962 6.45291 16.4944 6.49307C16.4898 6.56948 16.4898 6.56948 16.485 6.64743C16.4823 6.698 16.4796 6.74858 16.4768 6.80069C16.4502 6.95208 16.4301 6.9859 16.3122 7.07809C16.1693 7.09208 16.0362 7.09779 15.8932 7.09677C15.8522 7.0969 15.8111 7.09704 15.7687 7.09718C15.6819 7.09727 15.5951 7.09701 15.5082 7.09642C15.3752 7.09567 15.2422 7.09642 15.1092 7.09732C15.0248 7.09722 14.9405 7.09704 14.8561 7.09677C14.8163 7.09705 14.7764 7.09734 14.7354 7.09763C14.4534 7.09426 14.4534 7.09426 14.2966 6.93747C14.2811 6.75184 14.2656 6.56622 14.2497 6.37497C12.7647 6.37497 11.2797 6.37497 9.74969 6.37497C9.73422 6.56059 9.71875 6.74622 9.70281 6.93747C9.54247 7.09781 9.48193 7.09502 9.26399 7.09763C9.20422 7.0972 9.20422 7.0972 9.14324 7.09677C9.10216 7.0969 9.06107 7.09704 9.01874 7.09718C8.9319 7.09727 8.84506 7.09701 8.75822 7.09642C8.62518 7.09567 8.49222 7.09642 8.35918 7.09732C8.27483 7.09722 8.19048 7.09704 8.10613 7.09677C8.06629 7.09705 8.02644 7.09734 7.98538 7.09763C7.70793 7.09431 7.70793 7.09431 7.60676 7.01519C7.51639 6.89851 7.52215 6.79272 7.51433 6.64743C7.51125 6.59649 7.50817 6.54555 7.505 6.49307C7.50324 6.4541 7.50149 6.41512 7.49969 6.37497C7.46168 6.37092 7.42367 6.36687 7.38451 6.3627C7.33261 6.35611 7.2807 6.34953 7.22723 6.34274C7.15136 6.33377 7.15136 6.33377 7.07397 6.32461C6.89031 6.28122 6.89031 6.28122 6.37469 6.04684ZM2.10906 8.48434C1.9439 9.41698 1.77887 10.3496 1.61401 11.2823C1.53746 11.7154 1.46087 12.1484 1.38417 12.5815C1.31733 12.9588 1.25058 13.3361 1.18393 13.7135C1.14862 13.9134 1.11327 14.1133 1.07782 14.3131C1.04448 14.5012 1.01125 14.6892 0.9781 14.8772C0.965897 14.9463 0.953653 15.0154 0.941364 15.0845C0.924627 15.1787 0.908051 15.2729 0.891484 15.367C0.882151 15.4198 0.872818 15.4725 0.863202 15.5269C0.839895 15.6576 0.839894 15.6576 0.843436 15.7968C1.08855 15.8669 1.33177 15.9085 1.58446 15.9408C1.61696 15.945 1.64945 15.9492 1.68292 15.9536C1.76246 15.9639 1.84201 15.9742 1.92156 15.9843C2.08677 15.0525 2.2518 14.1207 2.41661 13.1888C2.49314 12.7561 2.56972 12.3234 2.64645 11.8908C2.71332 11.5137 2.78007 11.1367 2.84669 10.7596C2.88198 10.5599 2.91732 10.3602 2.9528 10.1605C2.98618 9.97261 3.01941 9.7847 3.05252 9.59677C3.06471 9.52775 3.07695 9.45874 3.08926 9.38974C3.10603 9.29562 3.12259 9.20145 3.13914 9.10729C3.14847 9.05457 3.1578 9.00186 3.16742 8.94754C3.19171 8.8043 3.19171 8.8043 3.18719 8.62497C3.06028 8.60122 2.93333 8.57784 2.80633 8.55465C2.77068 8.54795 2.73503 8.54124 2.69829 8.53433C2.66325 8.52798 2.6282 8.52164 2.59209 8.5151C2.56018 8.50921 2.52827 8.50332 2.49539 8.49725C2.36609 8.48137 2.23923 8.48356 2.10906 8.48434ZM21.4073 8.5151C21.3547 8.52462 21.3547 8.52462 21.3011 8.53433C21.2476 8.54439 21.2476 8.54439 21.193 8.55465C21.1379 8.56471 21.1379 8.56471 21.0817 8.57498C20.9918 8.59142 20.902 8.60816 20.8122 8.62497C20.8479 8.99735 20.911 9.36339 20.9763 9.73158C20.9883 9.79998 21.0003 9.8684 21.0123 9.93681C21.0447 10.1214 21.0773 10.3059 21.1099 10.4905C21.144 10.6838 21.178 10.8771 21.212 11.0704C21.2763 11.436 21.3408 11.8015 21.4052 12.1671C21.4787 12.5834 21.552 12.9998 21.6253 13.4162C21.776 14.2723 21.9268 15.1283 22.0778 15.9843C22.1443 15.9774 22.2107 15.9703 22.2772 15.9631C22.3327 15.9572 22.3327 15.9572 22.3894 15.9512C22.5471 15.9316 22.699 15.8989 22.8542 15.8642C22.9548 15.8418 23.0553 15.8193 23.1559 15.7968C23.0972 15.3311 23.0268 14.8693 22.944 14.4072C22.9324 14.342 22.9208 14.2767 22.9093 14.2115C22.8783 14.0369 22.8472 13.8624 22.816 13.6878C22.7833 13.5045 22.7508 13.3211 22.7183 13.1377C22.6568 12.7916 22.5952 12.4455 22.5335 12.0994C22.4632 11.7049 22.3931 11.3104 22.323 10.9159C22.179 10.1053 22.0347 9.29482 21.8903 8.48434C21.7251 8.48335 21.5699 8.48508 21.4073 8.5151ZM9.06615 9.16916C9.00543 9.1777 8.94472 9.18625 8.88216 9.19505C8.09109 9.30708 7.302 9.43374 6.5131 9.55999C6.34619 9.58669 6.17922 9.61299 6.01222 9.63906C5.92029 9.65352 5.82843 9.6684 5.73658 9.68331C5.22719 9.76257 4.76376 9.76881 4.25652 9.67965C4.19629 9.66959 4.19629 9.66959 4.13485 9.65933C4.03765 9.64304 3.94053 9.62624 3.84344 9.60934C3.68844 10.2148 3.59098 10.8319 3.484 11.4472C3.4632 11.5661 3.44238 11.685 3.42155 11.804C3.37262 12.0835 3.32384 12.3631 3.27514 12.6426C3.21961 12.9613 3.16388 13.28 3.10815 13.5986C2.99366 14.2532 2.87941 14.9078 2.76531 15.5625C2.80712 15.5704 2.84894 15.5784 2.89202 15.5866C2.97432 15.6037 2.97432 15.6037 3.05828 15.6211C3.13985 15.6374 3.13985 15.6374 3.22307 15.654C3.44485 15.7258 3.53024 15.8303 3.63744 16.0327C3.66191 16.0863 3.68639 16.14 3.7116 16.1953C3.86902 16.5251 4.05322 16.848 4.31219 17.1093C4.54227 17.1093 4.60673 17.0296 4.76043 16.8779C4.81074 16.83 4.86116 16.7822 4.91167 16.7345C4.94958 16.6986 4.94958 16.6986 4.98826 16.662C5.13384 16.5275 5.28922 16.4051 5.44378 16.2812C5.54162 16.2014 5.63736 16.1207 5.73235 16.0376C6.23027 15.6034 6.60238 15.396 7.27611 15.4087C7.51115 15.4262 7.67618 15.4863 7.87469 15.6093C7.90442 15.6263 7.93414 15.6433 7.96477 15.6608C8.26909 15.8526 8.44613 16.1537 8.53094 16.5C8.58359 16.7915 8.57275 17.051 8.53094 17.3437C8.5745 17.3631 8.61807 17.3824 8.66296 17.4023C9.11535 17.6104 9.42279 17.8104 9.62664 18.2841C9.69422 18.471 9.7325 18.6461 9.74969 18.8437C9.80286 18.8418 9.85603 18.8398 9.91082 18.8379C10.3678 18.8411 10.7729 18.9769 11.1025 19.3057C11.2766 19.5217 11.3668 19.7489 11.4372 20.0156C11.5638 19.9933 11.6785 19.9661 11.7992 19.9211C12.1408 19.8185 12.5588 19.8131 12.8903 19.9541C12.9538 19.9883 13.0165 20.0244 13.0778 20.0625C13.1075 20.0794 13.1373 20.0964 13.1679 20.1139C13.4722 20.3057 13.6493 20.6068 13.7341 20.9531C13.7322 20.9854 13.7303 21.0177 13.7284 21.0511C13.7247 21.1783 13.7311 21.2568 13.7809 21.375C14.0138 21.583 14.2989 21.7691 14.6188 21.7851C14.8567 21.7594 15.044 21.6725 15.2022 21.4918C15.3444 21.278 15.3716 21.0636 15.3278 20.8125C15.1288 20.3798 14.604 20.123 14.2145 19.8808C13.9138 19.6916 13.6137 19.5022 13.321 19.3007C13.2509 19.2525 13.2509 19.2525 13.1794 19.2033C13.0778 19.125 13.0778 19.125 13.0309 19.0312C13.0098 18.6985 13.0098 18.6985 13.0778 18.5625C13.2328 18.485 13.3797 18.4864 13.5466 18.5156C13.7145 18.593 13.8626 18.695 14.0146 18.7998C14.0585 18.8291 14.1024 18.8583 14.1477 18.8885C14.2877 18.9822 14.4269 19.077 14.5661 19.1718C14.6589 19.2342 14.7518 19.2966 14.8448 19.3588C15.1328 19.552 15.42 19.7465 15.7069 19.9414C15.7868 19.9956 15.8667 20.0495 15.9467 20.1035C15.9879 20.1314 16.029 20.1593 16.0714 20.1881C16.2622 20.306 16.4197 20.3149 16.6403 20.2968C16.8477 20.2326 17.0114 20.1439 17.1325 19.9599C17.227 19.7633 17.24 19.573 17.2028 19.3593C16.974 18.862 16.3065 18.5557 15.861 18.2666C15.605 18.0998 15.3491 17.9329 15.0934 17.7656C15.044 17.7332 15.044 17.7332 14.9936 17.7002C14.8965 17.6366 14.7996 17.5727 14.7027 17.5087C14.6586 17.4798 14.6586 17.4798 14.6136 17.4504C14.2623 17.2174 14.2623 17.2174 14.231 17.0654C14.2339 16.8128 14.2339 16.8128 14.2966 16.6875C14.4479 16.6118 14.6013 16.6188 14.7653 16.6406C14.8898 16.7001 14.9896 16.7565 15.1017 16.8336C15.1334 16.8544 15.165 16.8751 15.1977 16.8966C15.3041 16.9667 15.4097 17.038 15.5153 17.1093C15.5937 17.1613 15.672 17.2132 15.7505 17.265C16.0038 17.4328 16.2562 17.602 16.5085 17.7715C17.1673 18.216 17.1673 18.216 17.8354 18.6463C17.8805 18.6746 17.9256 18.7028 17.9721 18.732C18.1513 18.8278 18.3131 18.8746 18.5153 18.8437C18.7435 18.7648 18.898 18.6212 19.0309 18.4218C19.1031 18.2052 19.1031 18.0259 19.028 17.8095C18.8157 17.4877 18.4685 17.289 18.1506 17.0822C18.1069 17.0536 18.0633 17.0249 18.0183 16.9954C17.8794 16.9042 17.7403 16.8134 17.6012 16.7226C17.5093 16.6624 17.4174 16.6022 17.3255 16.5419C17.1906 16.4535 17.0558 16.3651 16.9209 16.2767C16.4569 15.9728 15.9946 15.6669 15.5378 15.3523C15.0287 15.005 14.5575 14.7069 13.9589 14.5396C13.694 14.4573 13.4851 14.3225 13.2653 14.1562C13.2359 14.1352 13.2065 14.1143 13.1761 14.0927C12.72 13.74 12.4488 13.2253 12.2341 12.7031C12.1737 12.7103 12.1133 12.7175 12.0511 12.7249C11.8976 12.7426 11.7467 12.7522 11.5923 12.756C11.2732 12.7775 10.9952 12.8137 10.7638 13.0513C10.5841 13.2861 10.4347 13.5347 10.2878 13.7909C10.011 14.2734 9.68153 14.4821 9.17547 14.6865C8.60796 14.7905 8.06509 14.7338 7.5819 14.4087C7.32243 14.2036 7.20071 13.9738 7.1364 13.6523C7.09804 13.2806 7.22647 12.9769 7.42937 12.6738C7.45024 12.6416 7.4711 12.6093 7.49259 12.5761C7.5568 12.4774 7.62188 12.3792 7.68719 12.2812C7.72455 12.2245 7.76191 12.1678 7.79925 12.1111C7.87416 11.9978 7.94976 11.885 8.02575 11.7724C8.12521 11.6247 8.22274 11.4759 8.31982 11.3267C8.34844 11.283 8.37707 11.2393 8.40656 11.1942C8.46262 11.1086 8.51839 11.0228 8.57383 10.9368C9.13096 10.0899 10.0167 9.83729 10.9216 9.46872C10.9216 9.43778 10.9216 9.40684 10.9216 9.37497C10.8153 9.33612 10.7089 9.2982 10.6022 9.26071C10.573 9.24992 10.5438 9.23914 10.5137 9.22802C10.0289 9.05995 9.56638 9.0951 9.06615 9.16916ZM13.1847 9.34549C13.1446 9.36175 13.1045 9.37802 13.0631 9.39477C12.5515 9.60328 12.0429 9.8193 11.5346 10.0359C11.3659 10.1078 11.197 10.1794 11.0281 10.2509C10.9189 10.2974 10.8096 10.3439 10.7004 10.3905C10.6508 10.4114 10.6013 10.4324 10.5503 10.454C9.87527 10.7034 9.87527 10.7034 9.35418 11.1632C9.3207 11.212 9.28723 11.2609 9.25274 11.3113C9.21525 11.3689 9.17777 11.4266 9.14031 11.4843C9.09316 11.5547 9.04592 11.6249 8.99859 11.6951C8.8678 11.8901 8.73877 12.0861 8.61038 12.2827C8.52995 12.4058 8.44926 12.5287 8.36852 12.6516C8.31718 12.7299 8.26585 12.8082 8.21453 12.8866C8.19046 12.9233 8.16639 12.96 8.1416 12.9978C8.1195 13.0317 8.0974 13.0655 8.07464 13.1004C8.0552 13.1301 8.03575 13.1598 8.01572 13.1905C7.91615 13.3486 7.89945 13.4527 7.92156 13.6406C8.09606 13.8664 8.26378 13.9465 8.54284 13.9823C8.86094 14.0012 9.11714 13.9233 9.37469 13.7343C9.67489 13.4432 9.87527 13.0649 10.0858 12.7077C10.3325 12.3116 10.3325 12.3116 10.5425 12.2358C10.6216 12.2177 10.7012 12.202 10.7809 12.1875C10.8725 12.1662 10.9641 12.1449 11.0557 12.1235C11.1944 12.0919 11.3337 12.0629 11.4731 12.0341C11.5808 12.0117 11.6883 11.9883 11.7958 11.965C11.8653 11.9505 11.9348 11.936 12.0043 11.9216C12.0359 11.9146 12.0675 11.9076 12.1 11.9005C12.3332 11.8537 12.5189 11.8595 12.7497 11.9062C12.8425 12.0322 12.88 12.1573 12.93 12.3043C13.1644 12.9742 13.507 13.4551 14.1369 13.8026C14.859 14.1297 15.5657 14.1359 16.3122 13.875C16.5886 13.752 16.8286 13.5948 17.071 13.415C17.2787 13.2661 17.4148 13.2099 17.6716 13.2187C17.7858 13.2656 17.7858 13.2656 17.8591 13.3593C17.9428 13.7135 17.9428 13.7135 17.8591 13.875C17.8261 13.8875 17.7932 13.9 17.7593 13.9129C17.6225 13.9696 17.5121 14.0435 17.3921 14.1294C17.0075 14.4042 16.6198 14.5738 16.1716 14.7187C16.1716 14.7651 16.1716 14.8115 16.1716 14.8593C16.2449 14.9282 16.2449 14.9282 16.3453 14.9897C16.3834 15.0148 16.4215 15.0399 16.4608 15.0657C16.5238 15.1061 16.5238 15.1061 16.5881 15.1474C16.6316 15.1758 16.675 15.2042 16.7198 15.2335C16.86 15.325 17.0006 15.4159 17.1413 15.5068C17.2324 15.5661 17.3234 15.6253 17.4144 15.6847C17.5508 15.7736 17.6871 15.8625 17.8236 15.9512C18.1422 16.1585 18.4601 16.3667 18.777 16.5767C18.8173 16.6033 18.8577 16.6299 18.8993 16.6572C19.1479 16.8225 19.3817 16.9913 19.5934 17.2031C19.9746 16.8089 20.2564 16.344 20.47 15.8402C20.6282 15.606 20.9872 15.6118 21.2341 15.5625C20.8937 13.6134 20.5534 11.6643 20.2028 9.65622C19.9926 9.58614 19.7989 9.65333 19.587 9.69769C18.9962 9.81278 18.4336 9.71172 17.8475 9.61831C17.7603 9.60472 17.673 9.59117 17.5858 9.57766C17.3572 9.54218 17.1286 9.50626 16.9001 9.47021C16.5346 9.41261 16.169 9.35554 15.8034 9.29871C15.6767 9.27893 15.55 9.25889 15.4233 9.23881C14.6251 9.11338 13.9512 9.03113 13.1847 9.34549ZM6.22234 16.6494C6.16069 16.7038 6.09898 16.7582 6.03722 16.8125C6.00711 16.8391 5.97699 16.8656 5.94597 16.893C5.82431 16.999 5.70004 17.1012 5.57488 17.2031C5.51388 17.2529 5.51388 17.2529 5.45165 17.3036C5.38646 17.356 5.3208 17.4078 5.25426 17.4585C5.02385 17.6371 4.93535 17.7994 4.89812 18.0879C4.90921 18.363 5.06051 18.5664 5.25555 18.75C5.49686 18.8339 5.76427 18.8637 6.00133 18.7518C6.10082 18.6787 6.18992 18.5991 6.28094 18.5156C6.35321 18.4545 6.4255 18.3935 6.49803 18.3327C6.57719 18.2663 6.65588 18.1993 6.73449 18.1322C6.99621 17.9094 7.26167 17.6907 7.53265 17.4792C7.70194 17.3399 7.76628 17.2117 7.82195 17.0009C7.83012 16.7601 7.78601 16.5595 7.61834 16.3789C7.45132 16.2369 7.33261 16.1643 7.1159 16.1572C7.06414 16.1546 7.06414 16.1546 7.01134 16.1519C6.6938 16.2042 6.45365 16.4416 6.22234 16.6494ZM7.46746 18.5449C7.40921 18.5958 7.35092 18.6467 7.29259 18.6976C7.26405 18.7226 7.23551 18.7475 7.2061 18.7733C7.09494 18.8695 6.98116 18.9622 6.86687 19.0547C6.66258 19.2213 6.45921 19.3888 6.2575 19.5586C6.22937 19.5818 6.20124 19.605 6.17226 19.629C5.98648 19.7864 5.83583 19.928 5.79186 20.178C5.79144 20.4444 5.81354 20.6067 5.99969 20.8125C6.18155 20.9587 6.32683 21.0421 6.56219 21.0468C6.84994 20.9595 7.0367 20.8443 7.25652 20.6425C7.31391 20.5916 7.37135 20.5407 7.42882 20.4898C7.45678 20.4649 7.48473 20.4399 7.51353 20.4142C7.62356 20.3172 7.73708 20.2249 7.85125 20.1328C8.0562 19.9659 8.25913 19.7969 8.46062 19.6259C8.48875 19.6023 8.51688 19.5787 8.54586 19.5543C8.72945 19.3978 8.87468 19.2656 8.95281 19.0312C8.97141 18.7848 8.94789 18.6299 8.81219 18.4218C8.6375 18.2448 8.4876 18.1479 8.23504 18.1289C7.90873 18.151 7.70153 18.3363 7.46746 18.5449ZM9.12214 20.0913C9.0398 20.162 8.95696 20.2322 8.87408 20.3023C8.37172 20.6725 8.37172 20.6725 8.09331 21.1944C8.08771 21.5141 8.17824 21.6718 8.3991 21.9052C8.57788 22.0125 8.74456 22.0565 8.95281 22.0312C9.23561 21.9259 9.44991 21.7547 9.67058 21.5537C9.73162 21.4992 9.79271 21.4447 9.85387 21.3903C9.88367 21.3638 9.91347 21.3372 9.94417 21.3099C10.1053 21.1696 10.2749 21.0402 10.4448 20.9108C10.587 20.7734 10.6693 20.6269 10.7059 20.4316C10.7024 20.1577 10.6396 19.9735 10.447 19.7695C9.89647 19.4344 9.55548 19.7187 9.12214 20.0913ZM11.4518 21.0791C11.1236 21.3656 11.1236 21.3656 10.9584 21.4923C10.594 21.7685 10.594 21.7685 10.4059 22.1718C10.383 22.4165 10.4291 22.5875 10.5846 22.7783C10.7379 22.9449 10.89 23.0291 11.1179 23.039C11.6231 23.0226 12.0615 22.4895 12.4216 22.1718C12.4459 22.1505 12.4702 22.1292 12.4953 22.1073C12.8321 21.835 12.8321 21.835 13.0221 21.4599C13.0328 21.2434 13 21.0931 12.8903 20.9062C12.7582 20.7639 12.6113 20.6355 12.4135 20.6138C12.3736 20.6126 12.3337 20.6115 12.2927 20.6103C12.2533 20.6086 12.2139 20.6068 12.1733 20.605C11.886 20.6502 11.6646 20.8924 11.4518 21.0791ZM13.195 22.5498C13.0015 22.7266 12.8026 22.8885 12.5911 23.0432C12.5661 23.0651 12.5411 23.0869 12.5153 23.1093C12.5153 23.1403 12.5153 23.1712 12.5153 23.2031C12.7476 23.2196 12.9292 23.2295 13.1423 23.1269C13.3012 22.9831 13.4393 22.8552 13.4642 22.6329C13.4645 22.5416 13.4591 22.4504 13.4528 22.3593C13.3552 22.3593 13.2607 22.4891 13.195 22.5498Z" fill="url(#paint0_linear_1767_10606)"/>
</g>
<defs>
<linearGradient id="paint0_linear_1767_10606" x1="-0.0351563" y1="11.9972" x2="24.0392" y2="11.9972" gradientUnits="userSpaceOnUse">
<stop offset="1" stop-color="#1C5941"/>
</linearGradient>
<clipPath id="clip0_1767_10606">
<rect width="24" height="24" fill="white"/>
</clipPath>
</defs>
</svg>
