<svg width="24" height="24" viewBox="0 0 24 24" fill="none" xmlns="http://www.w3.org/2000/svg">
<path d="M8.38597 1.55273C8.55373 1.70076 8.69476 1.8463 8.76683 2.0625C8.76683 2.34093 8.76683 2.61937 8.76683 2.90625C10.9015 2.90625 13.0362 2.90625 15.2356 2.90625C15.2356 2.62781 15.2356 2.34937 15.2356 2.0625C15.4547 1.62422 15.4547 1.62422 15.6518 1.52929C15.914 1.45202 16.2024 1.45035 16.4514 1.57031C16.6492 1.73178 16.7624 1.91541 16.7974 2.17209C16.8008 2.28459 16.7989 2.39537 16.7942 2.50781C16.7933 2.54636 16.7925 2.58491 16.7916 2.62463C16.7894 2.71853 16.7861 2.81239 16.7825 2.90625C16.8263 2.90527 16.8702 2.90428 16.9154 2.90327C18.0419 2.88138 18.9705 2.89447 19.97 3.46875C20.0092 3.49032 20.0485 3.51189 20.089 3.53412C20.9283 4.03922 21.4953 4.93235 21.7298 5.86734C21.7964 6.17304 21.8115 6.46433 21.8106 6.77654C21.8108 6.82921 21.811 6.88188 21.8113 6.93614C21.8118 7.11162 21.8118 7.28709 21.8117 7.46256C21.812 7.5888 21.8123 7.71504 21.8126 7.84128C21.8134 8.14804 21.8137 8.4548 21.8137 8.76156C21.8138 9.01118 21.814 9.2608 21.8143 9.51042C21.8151 10.2195 21.8155 10.9287 21.8155 11.6378C21.8155 11.676 21.8155 11.7141 21.8154 11.7535C21.8154 11.7917 21.8154 11.8299 21.8154 11.8693C21.8154 12.488 21.8163 13.1067 21.8176 13.7254C21.819 14.362 21.8196 14.9987 21.8195 15.6353C21.8195 15.9922 21.8198 16.3491 21.8208 16.706C21.8216 17.0099 21.8218 17.3139 21.8212 17.6179C21.8209 17.7727 21.821 17.9274 21.8217 18.0821C21.8251 18.8669 21.823 19.6543 21.4348 20.3613C21.4187 20.3919 21.4026 20.4225 21.3861 20.454C20.8582 21.4327 20.0324 22.0813 18.9754 22.4126C18.4287 22.564 17.8523 22.5261 17.2902 22.5243C17.1619 22.5244 17.0337 22.5248 16.9054 22.5253C16.5946 22.5261 16.2838 22.5259 15.973 22.5254C15.7201 22.5249 15.4673 22.5249 15.2145 22.5251C15.1784 22.5251 15.1422 22.5251 15.105 22.5252C15.0316 22.5252 14.9582 22.5253 14.8847 22.5254C14.198 22.5259 13.5112 22.5253 12.8245 22.5243C12.2366 22.5234 11.6487 22.5236 11.0607 22.5244C10.3763 22.5254 9.69179 22.5258 9.00732 22.5253C8.93419 22.5252 8.86105 22.5251 8.78792 22.5251C8.75195 22.5251 8.71598 22.525 8.67891 22.525C8.42669 22.5248 8.17447 22.5251 7.92225 22.5256C7.61443 22.5261 7.30662 22.5259 6.99881 22.5249C6.84207 22.5244 6.68535 22.5243 6.52861 22.5249C5.75089 22.5272 5.05004 22.5109 4.34886 22.1367C4.31786 22.1206 4.28686 22.1046 4.25492 22.088C3.28666 21.5729 2.63013 20.7514 2.30795 19.7083C2.15792 19.1208 2.18423 18.5238 2.18539 17.9216C2.18512 17.7953 2.1848 17.669 2.18441 17.5426C2.18361 17.2363 2.18357 16.9301 2.18381 16.6238C2.184 16.3746 2.18393 16.1254 2.18368 15.8762C2.18365 15.8406 2.18361 15.805 2.18358 15.7683C2.18351 15.696 2.18343 15.6236 2.18336 15.5513C2.18272 14.8744 2.18297 14.1975 2.18351 13.5205C2.18398 12.9027 2.18337 12.2849 2.18225 11.6671C2.1811 11.031 2.18065 10.3949 2.18097 9.75886C2.18113 9.40243 2.18103 9.04601 2.1802 8.68958C2.17951 8.38618 2.17949 8.08278 2.1803 7.77937C2.1807 7.6249 2.1807 7.47046 2.18008 7.31599C2.17528 6.02049 2.41153 4.94181 3.3469 3.99023C3.70138 3.64282 4.08731 3.4063 4.53636 3.19922C4.56423 3.18599 4.59211 3.17276 4.62083 3.15914C5.21353 2.9002 5.83335 2.88667 6.46702 2.89746C6.5406 2.89817 6.61418 2.89881 6.68776 2.89938C6.86517 2.9009 7.04255 2.90332 7.21995 2.90625C7.21778 2.84969 7.2156 2.79313 7.21336 2.73486C7.2116 2.65918 7.20989 2.58349 7.20823 2.50781C7.20666 2.47071 7.20509 2.43361 7.20347 2.39538C7.199 2.12236 7.24892 1.91336 7.40745 1.6875C7.6914 1.4557 8.04254 1.41835 8.38597 1.55273ZM4.23002 5.34082C3.93355 5.70477 3.74595 6.17541 3.74491 6.64593C3.7447 6.68995 3.74449 6.73396 3.74428 6.77931C3.74429 6.82728 3.74429 6.87524 3.7443 6.92466C3.74413 6.97592 3.74396 7.02718 3.74378 7.07999C3.74326 7.2521 3.74308 7.4242 3.7429 7.59631C3.74261 7.71959 3.7423 7.84286 3.74197 7.96613C3.74105 8.33632 3.74057 8.7065 3.74016 9.07668C3.73995 9.2512 3.7397 9.42572 3.73945 9.60024C3.73866 10.1807 3.73798 10.7612 3.73764 11.3417C3.73755 11.4923 3.73746 11.6428 3.73737 11.7934C3.73734 11.8308 3.73732 11.8682 3.7373 11.9068C3.73691 12.5124 3.73572 13.1181 3.7342 13.7237C3.73265 14.3462 3.7318 14.9687 3.73165 15.5911C3.73155 15.9403 3.73115 16.2896 3.72994 16.6388C3.72892 16.9363 3.72855 17.2338 3.72901 17.5313C3.72922 17.6829 3.72903 17.8345 3.72822 17.9861C3.72379 18.8619 3.7513 19.5907 4.37248 20.2722C4.99568 20.8713 5.7158 21.0076 6.54672 21.0063C6.59527 21.0064 6.64382 21.0065 6.69384 21.0066C6.85564 21.0069 7.01745 21.0068 7.17926 21.0068C7.29563 21.0069 7.41201 21.0071 7.52838 21.0073C7.81118 21.0077 8.09398 21.0078 8.37678 21.0078C8.60682 21.0079 8.83687 21.0079 9.06692 21.0081C9.7202 21.0085 10.3735 21.0087 11.0268 21.0087C11.0795 21.0087 11.0795 21.0087 11.1333 21.0087C11.1685 21.0087 11.2037 21.0087 11.24 21.0087C11.8104 21.0087 12.3807 21.0091 12.951 21.0098C13.5377 21.0104 14.1243 21.0108 14.711 21.0107C15.0399 21.0107 15.3689 21.0108 15.6978 21.0113C16.0073 21.0118 16.3168 21.0118 16.6263 21.0115C16.7396 21.0114 16.8528 21.0115 16.9661 21.0118C18.3943 21.0161 18.3943 21.0161 19.595 20.2969C20.0778 19.7744 20.2659 19.2121 20.2637 18.5116C20.2641 18.4345 20.2641 18.4345 20.2644 18.3559C20.265 18.1842 20.2649 18.0125 20.2648 17.8408C20.2651 17.7175 20.2654 17.5943 20.2658 17.471C20.2666 17.1711 20.2668 16.8712 20.2669 16.5713C20.2669 16.3274 20.2671 16.0835 20.2674 15.8395C20.2682 15.1471 20.2687 14.4546 20.2686 13.7621C20.2686 13.7248 20.2686 13.6875 20.2686 13.6491C20.2686 13.5931 20.2686 13.5931 20.2686 13.536C20.2685 12.9312 20.2694 12.3265 20.2707 11.7218C20.2721 11.0999 20.2727 10.4781 20.2727 9.85629C20.2726 9.50754 20.2729 9.1588 20.2739 8.81004C20.2747 8.51304 20.2749 8.21605 20.2743 7.91905C20.274 7.76773 20.2741 7.61644 20.2748 7.46512C20.2788 6.56122 20.2355 5.81135 19.5832 5.12109C19.1075 4.66928 18.5479 4.44586 17.8948 4.44854C17.8629 4.44861 17.831 4.44868 17.7981 4.44875C17.6968 4.44901 17.5956 4.44959 17.4944 4.45019C17.4254 4.45043 17.3565 4.45064 17.2875 4.45083C17.1192 4.45135 16.9508 4.45216 16.7825 4.45312C16.7807 4.51077 16.7789 4.56841 16.7771 4.6278C16.7741 4.70434 16.7709 4.78088 16.7678 4.85742C16.7667 4.89531 16.7657 4.93319 16.7646 4.97223C16.754 5.20904 16.7152 5.36852 16.595 5.57812C16.595 5.60906 16.595 5.64 16.595 5.67187C16.312 5.81822 16.0672 5.84026 15.7512 5.8125C15.6076 5.74218 15.6076 5.74218 15.5168 5.67187C15.4859 5.67187 15.455 5.67187 15.4231 5.67187C15.2403 5.22095 15.2691 5.05741 15.2356 4.45312C13.1009 4.45312 10.9662 4.45312 8.76683 4.45312C8.75136 4.73156 8.73589 5.01 8.71995 5.29687C8.67355 5.38968 8.62714 5.4825 8.57933 5.57812C8.57933 5.60906 8.57933 5.64 8.57933 5.67187C8.29639 5.81822 8.05156 5.84026 7.73558 5.8125C7.59202 5.74218 7.59202 5.74218 7.5012 5.67187C7.47026 5.67187 7.43933 5.67187 7.40745 5.67187C7.32893 5.47818 7.26241 5.30831 7.252 5.09857C7.25003 5.06095 7.24807 5.02334 7.24604 4.98459C7.2442 4.94552 7.24236 4.90646 7.24046 4.86621C7.23844 4.8266 7.23641 4.78699 7.23433 4.74618C7.22936 4.6485 7.22463 4.55081 7.21995 4.45312C7.02245 4.4496 6.82496 4.44707 6.62743 4.4454C6.56047 4.4447 6.49352 4.44374 6.42657 4.44251C5.51911 4.42628 4.85423 4.66334 4.23002 5.34082Z" fill="white"/>
<path d="M13.1483 7.22387C13.4921 7.48183 13.6811 7.76711 13.87 8.15038C13.894 8.19756 13.918 8.24473 13.9428 8.29333C14.0362 8.47674 14.1282 8.66078 14.2199 8.84506C14.2755 8.95658 14.332 9.06765 14.3885 9.1787C14.4045 9.21172 14.4205 9.24473 14.4369 9.27875C14.5259 9.45396 14.5259 9.45396 14.6801 9.56823C14.8402 9.61768 14.9994 9.64214 15.1651 9.6632C15.2344 9.67271 15.3037 9.68223 15.373 9.69177C15.4808 9.70625 15.5887 9.72057 15.6966 9.73461C16.4328 9.8313 17.123 9.9598 17.62 10.5644C17.9941 11.0806 18.0518 11.6123 18.0008 12.2344C17.8659 12.8951 17.3451 13.3231 16.8846 13.7754C16.7966 13.8621 16.7087 13.9489 16.6209 14.0358C16.5666 14.0895 16.5121 14.1432 16.4575 14.1967C16.3215 14.3275 16.3215 14.3275 16.2196 14.4844C16.2262 14.8111 16.2774 15.1329 16.3373 15.4535C16.4749 16.1906 16.6216 16.9791 16.1925 17.6462C15.8824 18.0681 15.4768 18.4034 14.954 18.5156C14.8125 18.528 14.6711 18.5286 14.5291 18.5303C14.4918 18.5316 14.4545 18.533 14.4161 18.5344C13.8949 18.5398 13.4664 18.2974 13.0233 18.0469C12.8546 17.9527 12.6857 17.8589 12.5165 17.7656C12.4817 17.746 12.447 17.7265 12.4112 17.7063C12.3635 17.6806 12.3635 17.6806 12.3149 17.6543C12.2879 17.6394 12.2609 17.6246 12.2331 17.6092C12.0421 17.5444 11.8972 17.5629 11.7124 17.6389C11.6605 17.6669 11.6086 17.6949 11.5551 17.7237C11.5267 17.7387 11.4983 17.7538 11.469 17.7693C11.3784 17.8173 11.2882 17.8661 11.1981 17.915C9.99867 18.56 9.99867 18.56 9.49008 18.542C9.45181 18.5412 9.41354 18.5404 9.37411 18.5395C8.81556 18.5177 8.42298 18.3086 8.02817 17.9191C7.7089 17.5695 7.52896 17.1385 7.52719 16.6641C7.52692 16.6116 7.52692 16.6116 7.52664 16.5582C7.53501 16.1161 7.6194 15.6815 7.69868 15.2476C7.70928 15.1894 7.71988 15.1311 7.73081 15.071C7.74063 15.019 7.75044 14.9669 7.76056 14.9132C7.80671 14.6452 7.80671 14.6452 7.73018 14.3942C7.70482 14.3677 7.67947 14.3411 7.65335 14.3137C7.62333 14.2819 7.59331 14.2501 7.56237 14.2173C7.31517 13.9712 7.06605 13.7268 6.8128 13.4869C6.38952 13.0849 6.02651 12.6593 5.98966 12.0496C5.97362 11.3833 6.09405 10.8707 6.55124 10.3623C7.07037 9.86256 7.75861 9.82197 8.4383 9.72358C8.63111 9.69553 8.82344 9.66572 9.01547 9.63281C9.10076 9.61903 9.10076 9.61903 9.18778 9.60497C9.41157 9.53763 9.4932 9.41743 9.60419 9.21484C9.63455 9.15157 9.66455 9.08812 9.69425 9.02453C9.72801 8.95463 9.76179 8.88475 9.7956 8.81487C9.84782 8.7058 9.8998 8.59663 9.95134 8.48723C10.2697 7.81407 10.6066 7.2909 11.3147 6.98309C11.9562 6.75526 12.5805 6.88725 13.1483 7.22387ZM11.6258 8.62499C11.56 8.73916 11.5041 8.84739 11.4504 8.96685C11.4349 8.99992 11.4193 9.03299 11.4033 9.06706C11.3539 9.17238 11.3052 9.27803 11.2567 9.38378C10.6369 10.7328 10.6369 10.7328 9.91232 11.0164C9.4769 11.169 9.00809 11.2052 8.55249 11.2631C8.43044 11.2788 8.30861 11.2957 8.18674 11.3128C8.14958 11.3172 8.11242 11.3215 8.07413 11.326C7.89323 11.3519 7.79278 11.3832 7.6396 11.4892C7.54322 11.6316 7.50848 11.7306 7.52047 11.9038C7.57435 12.0941 7.71503 12.2079 7.85733 12.338C7.90488 12.3839 7.90488 12.3839 7.95339 12.4308C8.05461 12.5284 8.15698 12.6246 8.25961 12.7207C9.09906 13.5121 9.09906 13.5121 9.2352 13.9219C9.2555 13.9799 9.27581 14.0379 9.29672 14.0976C9.40487 14.6113 9.31035 15.1409 9.21176 15.6475C9.10375 16.1871 9.10375 16.1871 9.09458 16.7344C9.21725 16.8979 9.31371 16.9865 9.51645 17.0156C9.64024 16.9688 9.75305 16.9192 9.87094 16.8603C9.90557 16.8436 9.9402 16.8269 9.97587 16.8097C10.1685 16.7157 10.3584 16.6173 10.5473 16.5161C10.586 16.4954 10.6247 16.4747 10.6646 16.4534C10.7388 16.4133 10.8128 16.3729 10.8865 16.3319C11.2404 16.1397 11.5935 16.0108 12.0008 16.0137C12.0521 16.0133 12.1033 16.0129 12.1561 16.0126C12.6854 16.0698 13.1263 16.3306 13.5887 16.5762C13.6939 16.6317 13.7991 16.6872 13.9045 16.7424C13.9696 16.7766 14.0346 16.8109 14.0995 16.8455C14.3063 16.9588 14.3063 16.9588 14.5321 17.0156C14.7149 16.9425 14.7967 16.9 14.9071 16.7344C14.9388 16.3053 14.8376 15.8928 14.756 15.4734C14.6653 14.9819 14.5905 14.4599 14.7489 13.9746C14.763 13.9283 14.7772 13.882 14.7917 13.8343C14.9456 13.5043 15.1933 13.2487 15.456 13.0019C15.515 12.9451 15.5739 12.8882 15.6327 12.8313C15.7243 12.7432 15.8161 12.6555 15.9086 12.5684C15.9989 12.4833 16.0879 12.3971 16.1767 12.3105C16.2046 12.2849 16.2324 12.2593 16.2611 12.233C16.3966 12.0992 16.4726 12.0017 16.4859 11.8077C16.4666 11.6237 16.4666 11.6237 16.3621 11.4892C16.1794 11.3628 16.0322 11.3383 15.8149 11.3128C15.7759 11.3073 15.7369 11.3019 15.6967 11.2962C15.5722 11.2789 15.4477 11.2629 15.3231 11.2471C13.8356 11.0529 13.8356 11.0529 13.2887 10.4027C13.1798 10.2605 13.0983 10.1086 13.0174 9.94921C12.9998 9.91542 12.9822 9.88163 12.964 9.84682C12.8663 9.65739 12.7739 9.46603 12.6851 9.27227C12.6574 9.2122 12.6574 9.2122 12.6292 9.15092C12.5939 9.07346 12.5591 8.99574 12.525 8.91773C12.4287 8.70547 12.3467 8.56362 12.1415 8.43749C11.8993 8.39714 11.7994 8.45973 11.6258 8.62499Z" fill="white"/>
</svg>
