<svg width="22" height="20" viewBox="0 0 22 20" fill="none" xmlns="http://www.w3.org/2000/svg">
<path d="M14 8.25C13.5858 8.25 13.25 8.58579 13.25 9C13.25 9.41421 13.5858 9.75 14 9.75V9V8.25ZM14 0.25C13.5858 0.25 13.25 0.585786 13.25 1C13.25 1.41421 13.5858 1.75 14 1.75V1V0.25ZM17.5 18.25C17.0858 18.25 16.75 18.5858 16.75 19C16.75 19.4142 17.0858 19.75 17.5 19.75V19V18.25ZM16 11.25C15.5858 11.25 15.25 11.5858 15.25 12C15.25 12.4142 15.5858 12.75 16 12.75V12V11.25ZM12 5H11.25C11.25 6.79493 9.79493 8.25 8 8.25V9V9.75C10.6234 9.75 12.75 7.62335 12.75 5H12ZM8 9V8.25C6.20507 8.25 4.75 6.79493 4.75 5H4H3.25C3.25 7.62335 5.37665 9.75 8 9.75V9ZM4 5H4.75C4.75 3.20507 6.20507 1.75 8 1.75V1V0.25C5.37665 0.25 3.25 2.37665 3.25 5H4ZM8 1V1.75C9.79493 1.75 11.25 3.20507 11.25 5H12H12.75C12.75 2.37665 10.6234 0.25 8 0.25V1ZM18 5H17.25C17.25 6.79493 15.7949 8.25 14 8.25V9V9.75C16.6234 9.75 18.75 7.62335 18.75 5H18ZM14 1V1.75C15.7949 1.75 17.25 3.20507 17.25 5H18H18.75C18.75 2.37665 16.6234 0.25 14 0.25V1ZM6 12V12.75H10V12V11.25H6V12ZM13 19V18.25H3V19V19.75H13V19ZM3 19V18.25C2.30964 18.25 1.75 17.6904 1.75 17H1H0.25C0.25 18.5188 1.48122 19.75 3 19.75V19ZM15 17H14.25C14.25 17.6904 13.6904 18.25 13 18.25V19V19.75C14.5188 19.75 15.75 18.5188 15.75 17H15ZM10 12V12.75C12.3472 12.75 14.25 14.6528 14.25 17H15H15.75C15.75 13.8244 13.1756 11.25 10 11.25V12ZM6 12V11.25C2.82436 11.25 0.25 13.8244 0.25 17H1H1.75C1.75 14.6528 3.65279 12.75 6 12.75V12ZM19 19V18.25H17.5V19V19.75H19V19ZM21 17H20.25C20.25 17.6904 19.6904 18.25 19 18.25V19V19.75C20.5188 19.75 21.75 18.5188 21.75 17H21ZM16 12V12.75C18.3472 12.75 20.25 14.6528 20.25 17H21H21.75C21.75 13.8244 19.1756 11.25 16 11.25V12Z" fill="white"/>
</svg>
