<svg width="24" height="24" viewBox="0 0 24 24" fill="none" xmlns="http://www.w3.org/2000/svg">
<path d="M7.80957 2.5H16.1904C17.9108 2.50008 19.2233 3.01135 20.1045 3.89355C20.9856 4.77581 21.495 6.08836 21.4902 7.80859V16.1904C21.4901 17.9107 20.9792 19.2239 20.0967 20.1064C19.2141 20.9891 17.9003 21.5 16.1797 21.5H7.80957C6.08923 21.4999 4.77604 20.9891 3.89355 20.1055C3.01097 19.2217 2.5 17.9056 2.5 16.1797V7.80957C2.50009 6.08922 3.011 4.77611 3.89355 3.89355C4.77611 3.011 6.08922 2.50009 7.80957 2.5ZM17.3311 8.43555C16.7962 8.08696 16.0682 8.20911 15.6748 8.72363L13.5127 11.5127L11.8789 10.2275V10.2266L11.6943 10.0967C11.3161 9.85677 10.8748 9.73353 10.4287 9.74609L10.207 9.76367C9.60233 9.84087 9.07447 10.1511 8.70605 10.6211L8.7041 10.625L6.32422 13.7148L6.32129 13.7178C5.90826 14.263 6.00342 15.0474 6.55762 15.4678C6.78782 15.6464 7.05526 15.7305 7.32031 15.7305C7.69135 15.7304 8.05683 15.5615 8.30273 15.25L8.30566 15.2451L10.5371 12.3477L12.1709 13.6328L12.1719 13.6338C12.6427 14.0026 13.2315 14.1694 13.832 14.0957L13.833 14.0977C14.4457 14.0325 14.9757 13.7176 15.3438 13.248L15.3447 13.2461L17.6543 10.2656C18.081 9.7177 17.9625 8.94303 17.4365 8.5127L17.4355 8.51172L17.3311 8.43555Z" fill="url(#paint0_linear_2445_5501)" stroke="url(#paint1_linear_2445_5501)"/>
<defs>
<linearGradient id="paint0_linear_2445_5501" x1="2" y1="12" x2="21.99" y2="12" gradientUnits="userSpaceOnUse">
<stop offset="1" stop-color="#1C5941"/>
</linearGradient>
<linearGradient id="paint1_linear_2445_5501" x1="2" y1="12" x2="21.99" y2="12" gradientUnits="userSpaceOnUse">
<stop offset="1" stop-color="#1C5941"/>
</linearGradient>
</defs>
</svg>
