<svg width="22" height="22" viewBox="0 0 22 22" fill="none" xmlns="http://www.w3.org/2000/svg">
<path d="M10.75 6.75H10V10.75H10.75H11.5V6.75H10.75ZM10.75 10.75H10V14.75H10.75H11.5V10.75H10.75ZM14.75 10.75V10H10.75V10.75V11.5H14.75V10.75ZM10.75 10.75V10H6.75V10.75V11.5H10.75V10.75ZM20.75 10.75H20C20 15.8586 15.8586 20 10.75 20V20.75V21.5C16.6871 21.5 21.5 16.6871 21.5 10.75H20.75ZM10.75 20.75V20C5.64137 20 1.5 15.8586 1.5 10.75H0.75H0C0 16.6871 4.81294 21.5 10.75 21.5V20.75ZM0.75 10.75H1.5C1.5 5.64137 5.64137 1.5 10.75 1.5V0.75V0C4.81294 0 0 4.81294 0 10.75H0.75ZM10.75 0.75V1.5C15.8586 1.5 20 5.64137 20 10.75H20.75H21.5C21.5 4.81294 16.6871 0 10.75 0V0.75Z" fill="#4D4D4D"/>
</svg>
