<svg width="17" height="17" viewBox="0 0 17 17" fill="none" xmlns="http://www.w3.org/2000/svg">
<g clip-path="url(#clip0_2087_5818)">
<path d="M8.49766 13.318H2.76547C2.44008 13.3177 2.12811 13.1883 1.89803 12.9582C1.66795 12.7281 1.53856 12.4162 1.53828 12.0908V4.26067C1.53856 3.93529 1.66795 3.62331 1.89803 3.39323C2.12811 3.16315 2.44008 3.03377 2.76547 3.03349H3.91934V3.32249C3.91934 3.44929 3.96972 3.57091 4.05938 3.66057C4.14905 3.75024 4.27066 3.80061 4.39747 3.80061C4.52428 3.80061 4.64589 3.75024 4.73555 3.66057C4.82522 3.57091 4.87559 3.44929 4.87559 3.32249V3.03349H10.594V3.32249C10.594 3.44929 10.6443 3.57091 10.734 3.66057C10.8237 3.75024 10.9453 3.80061 11.0721 3.80061C11.1989 3.80061 11.3205 3.75024 11.4102 3.66057C11.4998 3.57091 11.5502 3.44929 11.5502 3.32249V3.03349H12.6998C13.0252 3.03391 13.3371 3.16334 13.5671 3.39339C13.7972 3.62344 13.9266 3.93533 13.927 4.26067V7.67661C13.927 7.80342 13.9774 7.92503 14.0671 8.0147C14.1567 8.10436 14.2783 8.15474 14.4052 8.15474C14.532 8.15474 14.6536 8.10436 14.7432 8.0147C14.8329 7.92503 14.8833 7.80342 14.8833 7.67661V4.26067C14.8826 3.68181 14.6523 3.12685 14.243 2.71753C13.8337 2.30821 13.2787 2.07794 12.6998 2.07724H11.5502V1.83286C11.5502 1.70605 11.4998 1.58444 11.4102 1.49478C11.3205 1.40511 11.1989 1.35474 11.0721 1.35474C10.9453 1.35474 10.8237 1.40511 10.734 1.49478C10.6443 1.58444 10.594 1.70605 10.594 1.83286V2.07724H4.87559V1.83286C4.87559 1.70605 4.82522 1.58444 4.73555 1.49478C4.64589 1.40511 4.52428 1.35474 4.39747 1.35474C4.27066 1.35474 4.14905 1.40511 4.05938 1.49478C3.96972 1.58444 3.91934 1.70605 3.91934 1.83286V2.07724H2.76547C2.1866 2.07794 1.63164 2.30821 1.22232 2.71753C0.813 3.12685 0.582734 3.68181 0.582031 4.26067V12.0913C0.582594 12.6702 0.812815 13.2252 1.22217 13.6346C1.63152 14.044 2.18656 14.2742 2.76547 14.2747H8.49766C8.62453 14.2747 8.74621 14.2243 8.83593 14.1346C8.92564 14.0449 8.97605 13.9232 8.97605 13.7963C8.97605 13.6695 8.92564 13.5478 8.83593 13.4581C8.74621 13.3684 8.62453 13.318 8.49766 13.318Z" fill="white"/>
<path d="M4.30197 6.50464C4.22948 6.50464 4.15771 6.51892 4.09074 6.54665C4.02377 6.57439 3.96292 6.61505 3.91167 6.66631C3.86041 6.71756 3.81976 6.77841 3.79202 6.84538C3.76428 6.91235 3.75 6.98412 3.75 7.05661C3.75 7.12909 3.76428 7.20087 3.79202 7.26784C3.81976 7.3348 3.86041 7.39565 3.91167 7.44691C3.96292 7.49816 4.02377 7.53882 4.09074 7.56656C4.15771 7.5943 4.22948 7.60858 4.30197 7.60858C4.44836 7.60858 4.58876 7.55042 4.69227 7.44691C4.79578 7.34339 4.85394 7.203 4.85394 7.05661C4.85394 6.91022 4.79578 6.76982 4.69227 6.66631C4.58876 6.56279 4.44836 6.50464 4.30197 6.50464ZM7.73863 6.50464C7.66614 6.50464 7.59436 6.51892 7.5274 6.54665C7.46043 6.57439 7.39958 6.61505 7.34832 6.66631C7.29707 6.71756 7.25641 6.77841 7.22867 6.84538C7.20093 6.91235 7.18666 6.98412 7.18666 7.05661C7.18666 7.12909 7.20093 7.20087 7.22867 7.26784C7.25641 7.3348 7.29707 7.39565 7.34832 7.44691C7.39958 7.49816 7.46043 7.53882 7.5274 7.56656C7.59436 7.5943 7.66614 7.60858 7.73863 7.60858C7.88502 7.60858 8.02541 7.55042 8.12893 7.44691C8.23244 7.34339 8.29059 7.203 8.29059 7.05661C8.29059 6.91022 8.23244 6.76982 8.12893 6.66631C8.02541 6.56279 7.88502 6.50464 7.73863 6.50464ZM10.6228 7.05661C10.6228 7.203 10.6809 7.34339 10.7844 7.44691C10.888 7.55042 11.0284 7.60858 11.1747 7.60858C11.3211 7.60858 11.4615 7.55042 11.5651 7.44691C11.6686 7.34339 11.7267 7.203 11.7267 7.05661C11.7267 6.91022 11.6686 6.76982 11.5651 6.66631C11.4615 6.56279 11.3211 6.50464 11.1747 6.50464C11.0284 6.50464 10.888 6.56279 10.7844 6.66631C10.6809 6.76982 10.6228 6.91022 10.6228 7.05661ZM4.30197 9.51205C4.15558 9.51205 4.01518 9.5702 3.91167 9.67371C3.80815 9.77723 3.75 9.91762 3.75 10.064C3.75 10.2104 3.80815 10.3508 3.91167 10.4543C4.01518 10.5578 4.15558 10.616 4.30197 10.616C4.44836 10.616 4.58876 10.5578 4.69227 10.4543C4.79578 10.3508 4.85394 10.2104 4.85394 10.064C4.85394 9.91762 4.79578 9.77723 4.69227 9.67371C4.58876 9.5702 4.44836 9.51205 4.30197 9.51205ZM7.73863 9.51205C7.59223 9.51205 7.45184 9.5702 7.34832 9.67371C7.24481 9.77723 7.18666 9.91762 7.18666 10.064C7.18666 10.2104 7.24481 10.3508 7.34832 10.4543C7.45184 10.5578 7.59223 10.616 7.73863 10.616C7.88502 10.616 8.02541 10.5578 8.12893 10.4543C8.23244 10.3508 8.29059 10.2104 8.29059 10.064C8.29059 9.91762 8.23244 9.77723 8.12893 9.67371C8.02541 9.5702 7.88502 9.51205 7.73863 9.51205ZM13.0214 8.8533C12.1209 8.85428 11.2575 9.2124 10.6207 9.8491C9.98394 10.4858 9.62569 11.3491 9.62456 12.2496C9.62456 14.1217 11.1482 15.6459 13.0214 15.6459C14.8946 15.6459 16.4182 14.1222 16.4182 12.2496C16.4171 11.3491 16.0588 10.4858 15.422 9.8491C14.7852 9.2124 13.9219 8.85428 13.0214 8.8533ZM13.0214 14.6885C11.6762 14.6885 10.5813 13.5942 10.5813 12.249C10.5813 10.9039 11.6762 9.80901 13.0214 9.80901C14.3665 9.80901 15.4614 10.9039 15.4614 12.249C15.4614 13.5942 14.3665 14.6885 13.0214 14.6885Z" fill="white"/>
<path d="M13.7136 11.38L12.666 12.2242L12.4051 11.8911C12.3664 11.8417 12.3182 11.8004 12.2635 11.7696C12.2087 11.7389 12.1485 11.7191 12.0861 11.7117C12.0238 11.7042 11.9605 11.709 11.9001 11.7259C11.8396 11.7429 11.783 11.7716 11.7336 11.8103C11.6843 11.8491 11.643 11.8973 11.6122 11.952C11.5814 12.0068 11.5617 12.067 11.5542 12.1294C11.5467 12.1917 11.5516 12.2549 11.5685 12.3154C11.5854 12.3759 11.6141 12.4325 11.6529 12.4818L12.2128 13.1958C12.2518 13.2457 12.3003 13.2874 12.3555 13.3184C12.4107 13.3493 12.4716 13.369 12.5345 13.3762C12.5974 13.3834 12.6611 13.3781 12.7219 13.3604C12.7827 13.3428 12.8393 13.3132 12.8886 13.2734L14.3134 12.1259C14.4123 12.0464 14.4756 11.9308 14.4893 11.8046C14.503 11.6784 14.466 11.552 14.3864 11.4531C14.3069 11.3542 14.1913 11.2909 14.0652 11.2772C13.939 11.2635 13.8125 11.3005 13.7136 11.38Z" fill="white"/>
</g>
<defs>
<clipPath id="clip0_2087_5818">
<rect width="17" height="17" fill="white"/>
</clipPath>
</defs>
</svg>
