<svg width="18" height="18" viewBox="0 0 18 18" fill="none" xmlns="http://www.w3.org/2000/svg">
<path d="M14.4561 12.3487C14.4561 12.5572 14.4098 12.7714 14.3114 12.9798C14.213 13.1882 14.0856 13.3851 13.9177 13.5703C13.634 13.883 13.3214 14.1087 12.9682 14.2535C12.6208 14.3982 12.2445 14.4735 11.8393 14.4735C11.2487 14.4735 10.6177 14.3345 9.9519 14.0508C9.28611 13.7672 8.62032 13.3851 7.96032 12.9045C7.29453 12.4182 6.66348 11.8798 6.06137 11.2835C5.46506 10.6814 4.92664 10.0503 4.44611 9.39032C3.97137 8.73032 3.58927 8.07032 3.31137 7.41611C3.03348 6.75611 2.89453 6.12506 2.89453 5.52295C2.89453 5.12927 2.964 4.75295 3.10295 4.40558C3.2419 4.05243 3.4619 3.72822 3.76874 3.43874C4.13927 3.074 4.54453 2.89453 4.97295 2.89453C5.13506 2.89453 5.29716 2.92927 5.4419 2.99874C5.59243 3.06822 5.72558 3.17243 5.82979 3.32295L7.17295 5.21611C7.27716 5.36085 7.35243 5.494 7.40453 5.62137C7.45664 5.74295 7.48558 5.86453 7.48558 5.97453C7.48558 6.11348 7.44506 6.25243 7.364 6.38558C7.28874 6.51874 7.17874 6.65769 7.03979 6.79664L6.59979 7.254C6.53611 7.31769 6.50716 7.39295 6.50716 7.48558C6.50716 7.5319 6.51295 7.57243 6.52453 7.61874C6.5419 7.66506 6.55927 7.69979 6.57085 7.73453C6.67506 7.92558 6.85453 8.17453 7.10927 8.47558C7.36979 8.77664 7.64769 9.08348 7.94874 9.39032C8.26137 9.69716 8.56243 9.98085 8.86927 10.2414C9.17032 10.4961 9.41927 10.6698 9.61611 10.774C9.64506 10.7856 9.67979 10.803 9.72032 10.8203C9.76664 10.8377 9.81295 10.8435 9.86506 10.8435C9.96348 10.8435 10.0387 10.8087 10.1024 10.7451L10.5424 10.3108C10.6872 10.1661 10.8261 10.0561 10.9593 9.98664C11.0924 9.90558 11.2256 9.86506 11.3703 9.86506C11.4803 9.86506 11.5961 9.88822 11.7235 9.94032C11.8508 9.99243 11.984 10.0677 12.1287 10.1661L14.0451 11.5266C14.1956 11.6308 14.2998 11.7524 14.3635 11.8972C14.4214 12.0419 14.4561 12.1866 14.4561 12.3487Z" stroke="white" stroke-width="0.868421" stroke-miterlimit="10"/>
</svg>
