<svg width="16" height="17" viewBox="0 0 16 17" fill="none" xmlns="http://www.w3.org/2000/svg">
<path d="M8.998 3C9.23853 3 9.47458 3.06506 9.68114 3.18829C9.8877 3.31152 10.0571 3.48834 10.1713 3.7L10.4953 4.3C10.6096 4.51166 10.779 4.68848 10.9855 4.81171C11.1921 4.93494 11.4281 5 11.6687 5H13C13.3536 5 13.6928 5.14048 13.9428 5.39052C14.1929 5.64057 14.3333 5.97971 14.3333 6.33333V12.3333C14.3333 12.687 14.1929 13.0261 13.9428 13.2761C13.6928 13.5262 13.3536 13.6667 13 13.6667H2.33333C1.97971 13.6667 1.64057 13.5262 1.39052 13.2761C1.14048 13.0261 1 12.687 1 12.3333V6.33333C1 5.97971 1.14048 5.64057 1.39052 5.39052C1.64057 5.14048 1.97971 5 2.33333 5H3.66467C3.90495 5.00001 4.14077 4.9351 4.34719 4.81211C4.55361 4.68913 4.72296 4.51265 4.83733 4.30133L5.16333 3.69867C5.27771 3.48735 5.44706 3.31087 5.65348 3.18789C5.8599 3.0649 6.09572 2.99999 6.336 3H8.998Z" stroke="#EAEFE9" stroke-width="0.833333" stroke-linecap="round" stroke-linejoin="round"/>
<path d="M7.66667 11C8.77124 11 9.66667 10.1046 9.66667 9C9.66667 7.89543 8.77124 7 7.66667 7C6.5621 7 5.66667 7.89543 5.66667 9C5.66667 10.1046 6.5621 11 7.66667 11Z" stroke="#EAEFE9" stroke-width="0.833333" stroke-linecap="round" stroke-linejoin="round"/>
</svg>
