<svg width="24" height="24" viewBox="0 0 24 24" fill="none" xmlns="http://www.w3.org/2000/svg">
<g clip-path="url(#clip0_2024_5265)">
<path d="M24 12V12.6C23.925 13.35 23.85 14.1 23.7 14.85C23.1 17.4 21.675 19.575 19.725 21.225C19.65 21.3 19.5 21.375 19.425 21.45C18.75 21.975 18 22.425 17.175 22.8L16.725 23.025C16.425 23.175 16.125 23.25 15.825 23.325C15.45 23.475 15.075 23.55 14.7 23.625C13.8 23.925 12.9 24 12 24C5.4 24 0 18.6 0 12C0 5.4 5.4 0 12 0C18.6 0 24 5.4 24 12Z" fill="#26AD5F"/>
<path d="M23.9989 12.6003C23.9239 13.3503 23.8489 14.1003 23.6989 14.8503C23.0989 17.4003 21.6739 19.5753 19.7239 21.2253C19.6489 21.3003 19.4989 21.3753 19.4239 21.4503C18.7489 21.9753 17.9989 22.4253 17.1739 22.8003L16.7239 23.0253C16.4239 23.1753 16.1239 23.2503 15.8239 23.3253L9.22389 16.7253L5.39889 12.3753C4.94889 11.8503 4.94889 11.0253 5.54889 10.5003C6.07389 10.0503 6.89889 10.0503 7.42389 10.6503L10.4989 13.7253L16.6489 7.12535C17.1739 6.60035 17.9989 6.60035 18.5239 7.05035C18.5239 7.12535 23.9989 12.6003 23.9989 12.6003Z" fill="#00A053"/>
<path d="M10.1989 17.2496C9.82389 17.2496 9.44889 17.0996 9.22389 16.7996L5.39889 12.4496C4.94889 11.9246 4.94889 11.0996 5.54889 10.5746C6.07389 10.1246 6.89889 10.1246 7.42389 10.7246L10.2739 14.0246L16.6489 7.19956C17.1739 6.67457 17.9989 6.67456 18.5239 7.12456C19.0489 7.64956 19.0489 8.47456 18.5989 8.99956L11.2489 16.8746C10.8739 17.0996 10.5739 17.2496 10.1989 17.2496Z" fill="white"/>
</g>
<defs>
<clipPath id="clip0_2024_5265">
<rect width="24" height="24" fill="white"/>
</clipPath>
</defs>
</svg>
