<svg width="24" height="24" viewBox="0 0 24 24" fill="none" xmlns="http://www.w3.org/2000/svg">
<g clip-path="url(#clip0_1997_5496)">
<path d="M7.6484 13.6885C7.42337 13.4636 7.1182 13.3372 6.8 13.3372C6.4818 13.3372 6.17663 13.4636 5.9516 13.6885C5.75513 13.8865 5.63462 14.1474 5.6112 14.4253C5.47466 14.4098 5.33741 14.4014 5.2 14.4001C4.35978 14.399 3.5406 14.6629 2.85897 15.1541C2.17734 15.6454 1.66797 16.3391 1.4033 17.1366C1.13864 17.934 1.13216 18.7946 1.38477 19.596C1.63739 20.3973 2.13625 21.0986 2.8104 21.6001H1.2C0.88174 21.6001 0.576515 21.7265 0.351472 21.9516C0.126428 22.1766 0 22.4819 0 22.8001C0 23.1184 0.126428 23.4236 0.351472 23.6486C0.576515 23.8737 0.88174 24.0001 1.2 24.0001H22.8C23.1183 24.0001 23.4235 23.8737 23.6485 23.6486C23.8736 23.4236 24 23.1184 24 22.8001C24 22.4819 23.8736 22.1766 23.6485 21.9516C23.4235 21.7265 23.1183 21.6001 22.8 21.6001H21.28L22.3408 15.9445C22.6168 15.8629 22.854 15.6845 23.0092 15.4421C23.1643 15.1997 23.2269 14.9095 23.1855 14.6248C23.1441 14.34 23.0015 14.0796 22.7838 13.8914C22.566 13.7033 22.2878 13.5998 22 13.6001C21.9996 13.2455 21.8816 12.9009 21.6644 12.6205C21.4473 12.3401 21.1433 12.1396 20.8 12.0505V12.0001C20.7996 11.5762 20.6644 11.1634 20.4141 10.8212C20.1637 10.4791 19.8112 10.2254 19.4073 10.0967C19.0034 9.96794 18.569 9.9709 18.1669 10.1051C17.7647 10.2393 17.4156 10.4978 17.17 10.8433C16.9647 10.7948 16.7518 10.7872 16.5435 10.8211C16.3353 10.8551 16.1358 10.9297 15.9565 11.0409C15.7772 11.1521 15.6216 11.2976 15.4986 11.4691C15.3757 11.6406 15.2878 11.8346 15.24 12.0401C14.8876 12.122 14.5732 12.3207 14.3481 12.604C14.123 12.8872 14.0003 13.2383 14 13.6001C13.7121 13.5994 13.4336 13.7026 13.2155 13.8907C12.9975 14.0787 12.8546 14.3391 12.813 14.624C12.7714 14.9089 12.8339 15.1992 12.989 15.4418C13.1441 15.6843 13.3815 15.8628 13.6576 15.9445L14.72 21.6001H12C11.9994 20.9638 11.7463 20.3537 11.2964 19.9038C10.8464 19.4538 10.2363 19.2008 9.6 19.2001H9.116C9.20257 18.8024 9.22244 18.3931 9.1748 17.9889C9.40135 17.9685 9.61739 17.8839 9.79753 17.7451C9.97767 17.6062 10.1144 17.4187 10.1918 17.2048C10.2691 16.9909 10.2838 16.7594 10.2341 16.5374C10.1844 16.3154 10.0724 16.1122 9.9112 15.9517L9.6284 15.6689L23.2484 2.04892C23.3613 1.93783 23.4512 1.80549 23.5127 1.65952C23.5742 1.51355 23.6062 1.35684 23.6069 1.19844C23.6076 1.04003 23.5769 0.883057 23.5166 0.736577C23.4562 0.590096 23.3675 0.457005 23.2555 0.34498C23.1435 0.232955 23.0105 0.144214 22.864 0.0838741C22.7175 0.0235346 22.5606 -0.0072087 22.4022 -0.00658242C22.2438 -0.00595614 22.087 0.0260273 21.9411 0.0875231C21.7951 0.149019 21.6627 0.23881 21.5516 0.351717L7.9316 13.9717L7.6484 13.6885ZM15.6 12.8001C15.7061 12.8001 15.8078 12.758 15.8828 12.683C15.9579 12.6079 16 12.5062 16 12.4001C15.9999 12.263 16.0351 12.1281 16.1022 12.0085C16.1692 11.8889 16.2659 11.7885 16.383 11.717C16.5 11.6455 16.6335 11.6053 16.7705 11.6002C16.9076 11.5952 17.0436 11.6254 17.1656 11.6881C17.2137 11.7128 17.2663 11.7274 17.3203 11.7312C17.3742 11.7349 17.4284 11.7277 17.4794 11.71C17.5305 11.6922 17.5774 11.6643 17.6174 11.6279C17.6574 11.5915 17.6896 11.5473 17.712 11.4981C17.8271 11.2507 18.0231 11.0499 18.2676 10.9289C18.5122 10.8078 18.7907 10.7737 19.0572 10.8322C19.3237 10.8907 19.5623 11.0382 19.7337 11.2506C19.9051 11.4629 19.999 11.7273 20 12.0001C19.9994 12.1036 19.9859 12.2067 19.96 12.3069C19.9441 12.3705 19.944 12.437 19.9599 12.5006C19.9757 12.5642 20.0069 12.623 20.0507 12.6717C20.0946 12.7204 20.1497 12.7576 20.2113 12.78C20.2729 12.8024 20.3391 12.8093 20.404 12.8001C20.6155 12.8012 20.8179 12.8859 20.9671 13.0358C21.1163 13.1858 21.2 13.3886 21.2 13.6001H14.8C14.8 13.3879 14.8843 13.1845 15.0343 13.0344C15.1843 12.8844 15.3878 12.8001 15.6 12.8001ZM14 14.4001H22C22.1061 14.4001 22.2078 14.4423 22.2828 14.5173C22.3579 14.5923 22.4 14.694 22.4 14.8001C22.4 14.9062 22.3579 15.0079 22.2828 15.083C22.2078 15.158 22.1061 15.2001 22 15.2001H14C13.8939 15.2001 13.7922 15.158 13.7172 15.083C13.6421 15.0079 13.6 14.9062 13.6 14.8001C13.6 14.694 13.6421 14.5923 13.7172 14.5173C13.7922 14.4423 13.8939 14.4001 14 14.4001ZM14.48 16.0001H21.52L20.468 21.6001H15.532L14.48 16.0001ZM15.2 22.4001H22.8C22.9061 22.4001 23.0078 22.4423 23.0828 22.5173C23.1579 22.5923 23.2 22.694 23.2 22.8001C23.2 22.9062 23.1579 23.0079 23.0828 23.083C23.0078 23.158 22.9061 23.2001 22.8 23.2001H1.2C1.09391 23.2001 0.992172 23.158 0.917157 23.083C0.842143 23.0079 0.8 22.9062 0.8 22.8001C0.8 22.694 0.842143 22.5923 0.917157 22.5173C0.992172 22.4423 1.09391 22.4001 1.2 22.4001H15.2ZM7.6 19.2001C7.49391 19.2001 7.39217 19.2423 7.31716 19.3173C7.24214 19.3923 7.2 19.494 7.2 19.6001C7.2 19.7062 7.24214 19.8079 7.31716 19.883C7.39217 19.958 7.49391 20.0001 7.6 20.0001H9.6C10.0243 20.0001 10.4313 20.1687 10.7314 20.4687C11.0314 20.7688 11.2 21.1758 11.2 21.6001H5.2C4.35131 21.6001 3.53737 21.263 2.93726 20.6629C2.33714 20.0627 2 19.2488 2 18.4001C2 17.5514 2.33714 16.7375 2.93726 16.1374C3.53737 15.5373 4.35131 15.2001 5.2 15.2001C5.42207 15.2023 5.64334 15.2271 5.8604 15.2741C5.8884 15.3133 5.9188 15.3501 5.9516 15.3857L8.214 17.6485C8.2496 17.6813 8.2868 17.7117 8.326 17.7401C8.3731 17.957 8.39789 18.1782 8.4 18.4001C8.4 18.6701 8.366 18.9389 8.298 19.2001H7.6ZM9.3456 17.0829C9.30845 17.1201 9.26434 17.1496 9.21578 17.1697C9.16722 17.1899 9.11517 17.2002 9.0626 17.2002C9.01003 17.2002 8.95798 17.1899 8.90942 17.1697C8.86086 17.1496 8.81675 17.1201 8.7796 17.0829L6.5172 14.8201C6.44434 14.7447 6.40402 14.6436 6.40493 14.5388C6.40584 14.4339 6.44791 14.3336 6.52207 14.2594C6.59624 14.1852 6.69656 14.1432 6.80144 14.1423C6.90632 14.1413 7.00736 14.1817 7.0828 14.2545L7.648 14.8197L7.9876 15.1593L9.3452 16.5169C9.42019 16.5919 9.46231 16.6937 9.46231 16.7997C9.46231 16.9058 9.42019 17.0075 9.3452 17.0825L9.3456 17.0829ZM22.1172 0.917317C22.1541 0.879113 22.1982 0.84864 22.247 0.827676C22.2958 0.806713 22.3483 0.795678 22.4014 0.795217C22.4546 0.794755 22.5072 0.804876 22.5564 0.824988C22.6055 0.845101 22.6502 0.874802 22.6878 0.912359C22.7253 0.949916 22.755 0.994577 22.7751 1.04374C22.7952 1.09289 22.8054 1.14557 22.8049 1.19868C22.8044 1.25179 22.7934 1.30428 22.7724 1.35308C22.7515 1.40188 22.721 1.44602 22.6828 1.48292L9.0628 15.1029L8.9056 14.9461L8.4972 14.5373L22.1172 0.917317Z" fill="url(#paint0_linear_1997_5496)"/>
<path d="M16.8 16.8002H16C15.8939 16.8002 15.7922 16.8424 15.7172 16.9174C15.6421 16.9924 15.6 17.0942 15.6 17.2002C15.6 17.3063 15.6421 17.4081 15.7172 17.4831C15.7922 17.5581 15.8939 17.6002 16 17.6002H16.8C16.9061 17.6002 17.0078 17.5581 17.0828 17.4831C17.1579 17.4081 17.2 17.3063 17.2 17.2002C17.2 17.0942 17.1579 16.9924 17.0828 16.9174C17.0078 16.8424 16.9061 16.8002 16.8 16.8002ZM19.6 16.8002H18.4C18.2939 16.8002 18.1922 16.8424 18.1172 16.9174C18.0421 16.9924 18 17.0942 18 17.2002C18 17.3063 18.0421 17.4081 18.1172 17.4831C18.1922 17.5581 18.2939 17.6002 18.4 17.6002H19.6C19.7061 17.6002 19.8078 17.5581 19.8828 17.4831C19.9579 17.4081 20 17.3063 20 17.2002C20 17.0942 19.9579 16.9924 19.8828 16.9174C19.8078 16.8424 19.7061 16.8002 19.6 16.8002ZM22.4 11.2002C22.5576 11.2002 22.7136 11.1692 22.8592 11.1089C23.0048 11.0486 23.1371 10.9602 23.2485 10.8488C23.36 10.7373 23.4484 10.6051 23.5087 10.4595C23.569 10.3139 23.6 10.1578 23.6 10.0002C23.6 9.84266 23.569 9.68661 23.5087 9.54102C23.4484 9.39543 23.36 9.26315 23.2485 9.15172C23.1371 9.04029 23.0048 8.95189 22.8592 8.89159C22.7136 8.83128 22.5576 8.80024 22.4 8.80024C22.0817 8.80024 21.7765 8.92667 21.5515 9.15172C21.3264 9.37676 21.2 9.68198 21.2 10.0002C21.2 10.3185 21.3264 10.6237 21.5515 10.8488C21.7765 11.0738 22.0817 11.2002 22.4 11.2002ZM22.4 9.60024C22.5061 9.60024 22.6078 9.64239 22.6828 9.7174C22.7579 9.79242 22.8 9.89416 22.8 10.0002C22.8 10.1063 22.7579 10.2081 22.6828 10.2831C22.6078 10.3581 22.5061 10.4002 22.4 10.4002C22.2939 10.4002 22.1922 10.3581 22.1172 10.2831C22.0421 10.2081 22 10.1063 22 10.0002C22 9.89416 22.0421 9.79242 22.1172 9.7174C22.1922 9.64239 22.2939 9.60024 22.4 9.60024ZM20.4 6.40024C20.0817 6.40024 19.7765 6.52667 19.5515 6.75172C19.3264 6.97676 19.2 7.28198 19.2 7.60024C19.2 7.9185 19.3264 8.22373 19.5515 8.44877C19.7765 8.67382 20.0817 8.80024 20.4 8.80024C20.7183 8.80024 21.0235 8.67382 21.2485 8.44877C21.4736 8.22373 21.6 7.9185 21.6 7.60024C21.6 7.28198 21.4736 6.97676 21.2485 6.75172C21.0235 6.52667 20.7183 6.40024 20.4 6.40024ZM20.4 8.00024C20.2939 8.00024 20.1922 7.9581 20.1172 7.88309C20.0421 7.80807 20 7.70633 20 7.60024C20 7.49416 20.0421 7.39242 20.1172 7.3174C20.1922 7.24239 20.2939 7.20024 20.4 7.20024C20.5061 7.20024 20.6078 7.24239 20.6828 7.3174C20.7579 7.39242 20.8 7.49416 20.8 7.60024C20.8 7.70633 20.7579 7.80807 20.6828 7.88309C20.6078 7.9581 20.5061 8.00024 20.4 8.00024ZM10.7964 0.000244176C10.6923 0.00020039 10.5923 0.0407471 10.5176 0.113271C10.4429 0.185795 10.3994 0.284581 10.3964 0.388644V0.400244C10.3964 0.547444 10.36 4.00024 7.1924 4.00024C7.08631 4.00024 6.98457 4.04239 6.90956 4.1174C6.83454 4.19242 6.7924 4.29416 6.7924 4.40024C6.7924 4.50633 6.83454 4.60807 6.90956 4.68309C6.98457 4.7581 7.08631 4.80024 7.1924 4.80024C10.3476 4.80024 10.396 8.25384 10.3964 8.40024C10.395 8.50633 10.4357 8.60864 10.5097 8.68467C10.5837 8.7607 10.6849 8.80421 10.791 8.80564C10.8971 8.80708 10.9994 8.76631 11.0754 8.69231C11.1515 8.6183 11.195 8.51713 11.1964 8.41104V8.40024C11.1964 8.25304 11.2328 4.80024 14.4 4.80024C14.5061 4.80024 14.6078 4.7581 14.6828 4.68309C14.7579 4.60807 14.8 4.50633 14.8 4.40024C14.8 4.29416 14.7579 4.19242 14.6828 4.1174C14.6078 4.04239 14.5061 4.00024 14.4 4.00024C11.252 4.00024 11.1972 0.560244 11.1964 0.400244C11.1964 0.294158 11.1543 0.192416 11.0792 0.117401C11.0042 0.0423869 10.9025 0.000244176 10.7964 0.000244176ZM12.5768 4.40024C11.7577 4.83233 11.1246 5.54866 10.7964 6.41464C10.4682 5.54866 9.8351 4.83233 9.016 4.40024C9.8351 3.96816 10.4682 3.25183 10.7964 2.38584C11.1246 3.25183 11.7577 3.96816 12.5768 4.40024ZM2.4 12.0022V12.0046C2.40058 12.1107 2.44329 12.2122 2.51871 12.2868C2.59414 12.3614 2.69611 12.403 2.8022 12.4024C2.90829 12.4019 3.0098 12.3592 3.0844 12.2837C3.159 12.2083 3.20058 12.1063 3.2 12.0002C3.2 11.9022 3.2336 9.60024 5.2 9.60024C5.30609 9.60024 5.40783 9.5581 5.48284 9.48309C5.55786 9.40807 5.6 9.30633 5.6 9.20024C5.6 9.09416 5.55786 8.99242 5.48284 8.9174C5.40783 8.84239 5.30609 8.80024 5.2 8.80024C3.2336 8.80024 3.2 6.49744 3.2 6.40024V6.39784C3.19968 6.29176 3.15723 6.19014 3.08199 6.11535C3.00675 6.04056 2.90489 5.99873 2.7988 5.99904C2.69271 5.99936 2.5911 6.04181 2.51631 6.11705C2.44152 6.19229 2.39968 6.29416 2.4 6.40024C2.4 6.49824 2.3664 8.80024 0.4 8.80024C0.293913 8.80024 0.192172 8.84239 0.117157 8.9174C0.0421427 8.99242 0 9.09416 0 9.20024C0 9.30633 0.0421427 9.40807 0.117157 9.48309C0.192172 9.5581 0.293913 9.60024 0.4 9.60024C2.3664 9.60024 2.4 11.903 2.4 12.0002V12.0022ZM1.8624 9.20024C2.26751 8.93017 2.5916 8.55507 2.8 8.11504C3.0084 8.55507 3.33249 8.93017 3.7376 9.20024C3.33257 9.47041 3.0085 9.84548 2.8 10.2854C2.5915 9.84548 2.26743 9.47041 1.8624 9.20024ZM4.3172 3.28304L4.9172 3.88304C4.99264 3.95591 5.09368 3.99623 5.19856 3.99531C5.30344 3.9944 5.40376 3.95233 5.47793 3.87817C5.55209 3.80401 5.59416 3.70368 5.59507 3.5988C5.59598 3.49393 5.55566 3.39289 5.4828 3.31744L4.8828 2.71744C4.8459 2.67924 4.80176 2.64877 4.75296 2.6278C4.70416 2.60684 4.65167 2.59581 4.59856 2.59534C4.54545 2.59488 4.49278 2.605 4.44362 2.62512C4.39446 2.64523 4.3498 2.67493 4.31224 2.71249C4.27469 2.75004 4.24498 2.7947 4.22487 2.84386C4.20476 2.89302 4.19464 2.94569 4.1951 2.9988C4.19556 3.05192 4.2066 3.1044 4.22756 3.15321C4.24852 3.20201 4.279 3.24615 4.3172 3.28304ZM3.1172 2.08304C3.19264 2.15591 3.29368 2.19623 3.39856 2.19531C3.50344 2.1944 3.60376 2.15233 3.67793 2.07817C3.75209 2.00401 3.79416 1.90368 3.79507 1.7988C3.79598 1.69393 3.75566 1.59289 3.6828 1.51744L3.0828 0.917444C3.00736 0.844581 2.90632 0.804263 2.80144 0.805175C2.69656 0.806086 2.59624 0.848154 2.52207 0.922317C2.44791 0.99648 2.40584 1.0968 2.40493 1.20168C2.40402 1.30656 2.44434 1.4076 2.5172 1.48304L3.1172 2.08304ZM2.5172 3.88304C2.59221 3.95803 2.69393 4.00016 2.8 4.00016C2.90607 4.00016 3.00779 3.95803 3.0828 3.88304L3.6828 3.28304C3.75566 3.2076 3.79598 3.10656 3.79507 3.00168C3.79416 2.89681 3.75209 2.79648 3.67793 2.72232C3.60376 2.64815 3.50344 2.60609 3.39856 2.60517C3.29368 2.60426 3.19264 2.64458 3.1172 2.71744L2.5172 3.31744C2.44221 3.39246 2.40009 3.49418 2.40009 3.60024C2.40009 3.70631 2.44221 3.80803 2.5172 3.88304ZM4.6 2.20024C4.70608 2.20022 4.8078 2.15806 4.8828 2.08304L5.4828 1.48304C5.521 1.44615 5.55148 1.40201 5.57244 1.35321C5.5934 1.3044 5.60444 1.25192 5.6049 1.1988C5.60536 1.14569 5.59524 1.09302 5.57513 1.04386C5.55502 0.994704 5.52532 0.950043 5.48776 0.912486C5.4502 0.874929 5.40554 0.845228 5.35638 0.825116C5.30722 0.805003 5.25455 0.794882 5.20144 0.795344C5.14833 0.795806 5.09584 0.80684 5.04704 0.827804C4.99824 0.848767 4.9541 0.87924 4.9172 0.917444L4.3172 1.51744C4.26128 1.57338 4.22319 1.64465 4.20777 1.72223C4.19234 1.79981 4.20026 1.88023 4.23053 1.95331C4.2608 2.02639 4.31205 2.08885 4.37782 2.1328C4.44358 2.17676 4.5209 2.20023 4.6 2.20024Z" fill="url(#paint1_linear_1997_5496)"/>
</g>
<defs>
<linearGradient id="paint0_linear_1997_5496" x1="0" y1="11.9968" x2="24" y2="11.9968" gradientUnits="userSpaceOnUse">
<stop offset="1" stop-color="#1C5941"/>
</linearGradient>
<linearGradient id="paint1_linear_1997_5496" x1="0" y1="8.80024" x2="23.6" y2="8.80024" gradientUnits="userSpaceOnUse">
<stop offset="1" stop-color="#1C5941"/>
</linearGradient>
<clipPath id="clip0_1997_5496">
<rect width="24" height="24" fill="white"/>
</clipPath>
</defs>
</svg>
