<?xml version="1.0" encoding="UTF-8"?>
<svg version="1.1" xmlns="http://www.w3.org/2000/svg" width="512" height="512">
<path d="M0 0 C1.01790619 0.00215515 2.03581238 0.0043103 3.08456421 0.00653076 C17.69363523 0.05620146 32.02575853 0.30709809 46.375 3.3125 C47.34985352 3.51117676 48.32470703 3.70985352 49.32910156 3.91455078 C97.7109774 14.03517194 141.69928269 35.9516877 177.375 70.3125 C178.3640332 71.26068604 178.3640332 71.26068604 179.37304688 72.22802734 C188.86130305 81.37247479 197.6012044 90.66984009 205.375 101.3125 C206.23306152 102.46355017 207.09113451 103.61459177 207.94921875 104.765625 C213.98736829 112.95680614 219.34595521 121.47054105 224.375 130.3125 C224.73948242 130.94430176 225.10396484 131.57610352 225.47949219 132.22705078 C247.08534998 169.97532572 256.85198095 212.74189997 256.6875 255.9375 C256.68534485 256.95540619 256.6831897 257.97331238 256.68096924 259.02206421 C256.63129854 273.63113523 256.38040191 287.96325853 253.375 302.3125 C253.07698486 303.77478027 253.07698486 303.77478027 252.77294922 305.26660156 C242.65232806 353.6484774 220.7358123 397.63678269 186.375 433.3125 C185.74287598 433.97185547 185.11075195 434.63121094 184.45947266 435.31054688 C175.31502521 444.79880305 166.01765991 453.5387044 155.375 461.3125 C154.22394983 462.17056152 153.07290823 463.02863451 151.921875 463.88671875 C143.73224019 469.92427396 135.22961724 475.30707302 126.375 480.3125 C125.66778809 480.7146875 124.96057617 481.116875 124.23193359 481.53125 C101.09654164 494.5566741 75.92537591 503.30551461 49.9375 508.625 C49.21860596 508.77235596 48.49971191 508.91971191 47.7590332 509.0715332 C33.08339502 511.86090125 18.55831162 512.66142619 3.64770508 512.62817383 C0.70811513 512.6250221 -2.2304558 512.64854926 -5.16992188 512.67382812 C-18.54306192 512.71848737 -31.43916711 511.51301542 -44.625 509.3125 C-46.33055054 509.03031616 -46.33055054 509.03031616 -48.07055664 508.74243164 C-91.33802759 500.97044532 -132.38793216 480.98345309 -165.625 452.3125 C-166.37007813 451.67828125 -167.11515625 451.0440625 -167.8828125 450.390625 C-181.38779833 438.57948485 -194.05918743 425.82889772 -204.625 411.3125 C-205.48149066 410.16255169 -206.33826433 409.01281411 -207.1953125 407.86328125 C-213.23534209 399.67315742 -218.61867614 391.16870382 -223.625 382.3125 C-224.0271875 381.60528809 -224.429375 380.89807617 -224.84375 380.16943359 C-237.8691741 357.03404164 -246.61801461 331.86287591 -251.9375 305.875 C-252.08485596 305.15610596 -252.23221191 304.43721191 -252.3840332 303.6965332 C-255.35789088 288.05024391 -255.99800362 272.57681954 -255.9375 256.6875 C-255.93534485 255.66959381 -255.9331897 254.65168762 -255.93096924 253.60293579 C-255.88129854 238.99386477 -255.63040191 224.66174147 -252.625 210.3125 C-252.42632324 209.33764648 -252.22764648 208.36279297 -252.02294922 207.35839844 C-241.90232806 158.9765226 -219.9858123 114.98821731 -185.625 79.3125 C-184.99287598 78.65314453 -184.36075195 77.99378906 -183.70947266 77.31445312 C-174.56502521 67.82619695 -165.26765991 59.0862956 -154.625 51.3125 C-153.47394983 50.45443848 -152.32290823 49.59636549 -151.171875 48.73828125 C-142.98224019 42.70072604 -134.47961724 37.31792698 -125.625 32.3125 C-124.91778809 31.9103125 -124.21057617 31.508125 -123.48193359 31.09375 C-100.34654164 18.0683259 -75.17537591 9.31948539 -49.1875 4 C-48.46860596 3.85264404 -47.74971191 3.70528809 -47.0090332 3.5534668 C-31.36274391 0.57960912 -15.88931954 -0.06050362 0 0 Z " fill="#39B54A" transform="translate(255.625,-0.3125)"/>
<path d="M0 0 C0.92167969 -0.03738281 1.84335937 -0.07476562 2.79296875 -0.11328125 C9.81203659 0.87647088 14.70971317 5.75123358 19.515625 10.58203125 C20.42232941 11.48087288 20.42232941 11.48087288 21.34735107 12.39787292 C22.6148857 13.65902211 23.87861415 14.9240073 25.13867188 16.19262695 C27.05895333 18.12143758 28.99719291 20.03081349 30.9375 21.93945312 C32.17300626 23.17334747 33.40741924 24.40833769 34.640625 25.64453125 C35.50315887 26.49021416 35.50315887 26.49021416 36.38311768 27.35298157 C40.94793802 31.99743279 43.48950053 36.24400506 44.1875 42.875 C43.34819629 50.56861733 38.61323596 54.93470448 33.3616333 60.11740112 C32.21363506 61.26818592 32.21363506 61.26818592 31.04244494 62.4422189 C28.47709722 65.01016549 25.90118156 67.56724041 23.32519531 70.12451172 C21.48326584 71.96395774 19.64200405 73.80407255 17.80136108 75.64480591 C13.83654022 79.60779077 9.86632517 83.56530389 5.89243317 87.51919174 C0.13876061 93.24400704 -5.60608814 98.97761162 -11.34875193 104.71346749 C-20.67736553 114.03063987 -30.01228976 123.34146207 -39.3515625 132.64794922 C-48.40388757 141.6685368 -57.45451518 150.69081911 -66.50195312 159.71630859 C-67.0587623 160.2717642 -67.61557148 160.8272198 -68.18925366 161.39950739 C-74.27374963 167.46934924 -80.357538 173.53989962 -86.44047928 179.61129951 C-86.97584356 180.14564542 -87.51120785 180.67999132 -88.0627953 181.23052952 C-90.2036449 183.36732637 -92.3444864 185.50413134 -94.48523727 187.64102711 C-100.74140346 193.88589318 -106.99974231 200.12856262 -113.26208809 206.3672321 C-117.6589647 210.74760632 -122.0534661 215.13035596 -126.447155 219.51392746 C-128.2461528 221.30786759 -130.0460295 223.10092684 -131.84685898 224.89302826 C-134.30980733 227.34423373 -136.76960456 229.79856043 -139.22869873 232.25363159 C-139.93776076 232.95773442 -140.64682279 233.66183725 -141.37737155 234.38727653 C-145.29416385 238.30489658 -149.02895571 242.32368195 -152.6362164 246.52869904 C-155.08859387 249.34865619 -157.68973174 252.0150712 -160.3125 254.67578125 C-160.86309082 255.23444382 -161.41368164 255.79310638 -161.98095703 256.36869812 C-163.13234548 257.53376686 -164.28518747 258.69740086 -165.43945312 259.85961914 C-166.6093018 261.04106827 -167.77464861 262.22699133 -168.93554688 263.41723633 C-170.63475181 265.15920809 -172.34691788 266.88745371 -174.0625 268.61328125 C-174.82844482 269.4054882 -174.82844482 269.4054882 -175.60986328 270.21369934 C-179.63063674 274.21082455 -183.77779703 276.90243687 -189.55859375 277.59765625 C-200.69505906 276.39769685 -208.04277612 266.74451764 -215.51489258 259.19091797 C-217.24445155 257.443107 -218.98187399 255.70342753 -220.72070312 253.96484375 C-221.84682619 252.83380311 -222.97249249 251.70230746 -224.09765625 250.5703125 C-224.85889549 249.80740402 -224.85889549 249.80740402 -225.63551331 249.02908325 C-228.34368913 246.28594559 -230.9300113 243.4772164 -233.4415741 240.55247498 C-236.86740856 236.62514431 -240.46278122 232.92661901 -244.17675781 229.27319336 C-244.83620392 228.6200264 -245.49565002 227.96685944 -246.17507935 227.29389954 C-247.59208175 225.89063622 -249.01016373 224.48846234 -250.42923737 223.08729362 C-252.67727695 220.86612999 -254.9207124 218.64041336 -257.16278076 216.41322327 C-263.53235078 210.08618281 -269.9046453 203.76196917 -276.29296875 197.45385742 C-280.21299106 193.58239771 -284.12314483 189.701206 -288.02706146 185.81350899 C-289.51134764 184.33910117 -290.99927762 182.86835193 -292.49094391 181.40141106 C-294.5752485 179.35092091 -296.64674144 177.28824931 -298.71582031 175.22241211 C-299.32988739 174.62429718 -299.94395447 174.02618225 -300.57662964 173.40994263 C-305.06265785 168.89179669 -308.61084783 163.91567396 -308.625 157.25 C-307.80329666 149.85466996 -302.43134817 145.25786639 -297.375 140.234375 C-296.72426514 139.58172668 -296.07353027 138.92907837 -295.40307617 138.25665283 C-294.03386926 136.88609133 -292.66215904 135.51802655 -291.28808594 134.15234375 C-289.18710044 132.06210248 -287.09704086 129.96136051 -285.0078125 127.859375 C-283.67251609 126.52539963 -282.33659971 125.1920445 -281 123.859375 C-280.37697998 123.23230652 -279.75395996 122.60523804 -279.11206055 121.95916748 C-278.52465088 121.37806213 -277.93724121 120.79695679 -277.33203125 120.19824219 C-276.82003174 119.68783386 -276.30803223 119.17742554 -275.78051758 118.65155029 C-272.56225704 115.94636187 -269.60565722 114.97179263 -265.4375 114.8125 C-264.63828125 114.7609375 -263.8390625 114.709375 -263.015625 114.65625 C-256.07636553 116.2664649 -250.4674326 122.74183668 -245.58789062 127.68505859 C-244.67905624 128.5934549 -244.67905624 128.5934549 -243.75186157 129.52020264 C-241.77770465 131.49573761 -239.81070088 133.47823002 -237.84375 135.4609375 C-236.46556764 136.84285541 -235.08693904 138.22432842 -233.70788574 139.6053772 C-230.0999133 143.22094333 -226.49799071 146.8424774 -222.89733887 150.46533203 C-219.21387394 154.1693477 -215.52465828 157.86762602 -211.8359375 161.56640625 C-204.61418505 168.80953331 -197.39881748 176.05898477 -190.1875 183.3125 C-185.10780595 179.05897317 -180.34819406 174.61204297 -175.67753601 169.9160614 C-174.95426095 169.1929352 -174.2309859 168.469809 -173.48579341 167.72476989 C-171.07758374 165.3158691 -168.67296125 162.90341988 -166.26831055 160.4909668 C-164.53677771 158.75751369 -162.80501624 157.02428893 -161.07304382 155.29127502 C-157.35193943 151.56701533 -153.63233478 147.84126474 -149.9140377 144.1142025 C-144.53641682 138.72399792 -139.15553275 133.33706019 -133.77376495 127.95099638 C-125.03874071 119.20891625 -116.30558833 110.46496893 -107.57397461 101.71948242 C-106.79117701 100.9354431 -106.79117701 100.9354431 -105.99256531 100.1355646 C-102.28666166 96.42375821 -98.58082455 92.71188538 -94.875 89 C-90.63310533 84.75117209 -86.39117659 80.5023782 -82.14916992 76.25366211 C-81.3650579 75.46830789 -81.3650579 75.46830789 -80.56510522 74.66708793 C-71.85876761 65.94707961 -63.15047763 57.22902358 -54.44078475 48.51236659 C-49.06959225 43.13668822 -43.70018846 37.75923483 -38.3330609 32.37949792 C-34.22813608 28.26517646 -30.12069842 24.15337023 -26.01231575 20.04250145 C-24.32391942 18.35222533 -22.63639153 16.66108124 -20.9497757 14.96902847 C-18.65631195 12.66840164 -16.35983234 10.37082899 -14.06254578 8.07402039 C-13.05123621 7.05731838 -13.05123621 7.05731838 -12.01949614 6.02007693 C-11.1003819 5.10302422 -11.1003819 5.10302422 -10.1626997 4.16744518 C-9.63260742 3.63643111 -9.10251515 3.10541705 -8.55635947 2.55831164 C-5.84658259 0.09211868 -3.5614014 0.09333328 0 0 Z " fill="#FEFEFE" transform="translate(388.1875,117.6875)"/>
</svg>
