<svg width="20" height="20" viewBox="0 0 20 20" fill="none" xmlns="http://www.w3.org/2000/svg">
<path d="M17.089 12.4417V16.8817C17.0888 17.5099 16.8391 18.1123 16.3949 18.5566C15.9507 19.0008 15.3483 19.2504 14.72 19.2507H3.11904C2.8068 19.2506 2.49765 19.1888 2.20938 19.0688C1.9211 18.9488 1.65937 18.773 1.43923 18.5516C1.21909 18.3302 1.04488 18.0674 0.926608 17.7784C0.808334 17.4895 0.748329 17.18 0.750042 16.8677V5.27971C0.748184 4.96796 0.808217 4.65894 0.926663 4.37056C1.04511 4.08218 1.21961 3.82017 1.44006 3.59972C1.6605 3.37928 1.92251 3.20478 2.21089 3.08633C2.49927 2.96789 2.80829 2.90785 3.12004 2.90971H7.55904" stroke="black" stroke-width="1.5" stroke-linecap="round" stroke-linejoin="round"/>
<path d="M17.0909 6.9957L13.0059 2.9097M4.83594 13.8037V11.6387C4.83794 11.2817 4.97994 10.9387 5.23094 10.6857L14.7629 1.1537C14.8894 1.02581 15.04 0.924272 15.206 0.854976C15.372 0.785681 15.5501 0.75 15.7299 0.75C15.9098 0.75 16.0879 0.785681 16.2539 0.854976C16.4199 0.924272 16.5705 1.02581 16.6969 1.1537L18.8479 3.3047C18.9758 3.43118 19.0774 3.58177 19.1467 3.74776C19.216 3.91374 19.2516 4.09183 19.2516 4.2717C19.2516 4.45157 19.216 4.62965 19.1467 4.79564C19.0774 4.96163 18.9758 5.11222 18.8479 5.2387L9.31594 14.7707C9.06247 15.0224 8.72015 15.1643 8.36294 15.1657H6.19794C6.019 15.166 5.84178 15.1309 5.67641 15.0626C5.51105 14.9942 5.3608 14.8939 5.23427 14.7674C5.10775 14.6408 5.00743 14.4906 4.93908 14.3252C4.87073 14.1599 4.83568 13.9826 4.83594 13.8037Z" stroke="black" stroke-width="1.5" stroke-linecap="round" stroke-linejoin="round"/>
</svg>
