<svg width="19" height="18" viewBox="0 0 19 18" fill="none" xmlns="http://www.w3.org/2000/svg">
<path d="M0.632812 14.5259L6.45431 10.5599C8.58116 9.11101 9.52657 9.11101 11.6534 10.5599L17.4749 14.5259" stroke="url(#paint0_linear_2001_5056)" stroke-width="1.26316" stroke-linejoin="round"/>
<path d="M0.646215 10.7795C0.701749 13.3339 0.729516 14.6111 1.68217 15.5569C2.63482 16.5027 3.96067 16.5355 6.61237 16.6011C8.24487 16.6414 9.86287 16.6414 11.4954 16.6011C14.1471 16.5355 15.4729 16.5027 16.4256 15.5569C17.3782 14.6111 17.406 13.3339 17.4615 10.7795C17.4887 9.52811 17.4745 8.28897 17.4189 7.0247C17.3843 6.23947 17.367 5.84685 17.1679 5.49858C16.9688 5.15032 16.6255 4.92554 15.9389 4.47598L12.7719 2.40218C10.969 1.22163 10.0676 0.631348 9.05387 0.631348C8.04017 0.631347 7.13872 1.22162 5.33582 2.40218L2.16879 4.47598C1.48224 4.92554 1.13896 5.15032 0.939832 5.49858C0.7407 5.84685 0.723421 6.23947 0.688863 7.02471C0.633224 8.28897 0.619008 9.52811 0.646215 10.7795Z" stroke="url(#paint1_linear_2001_5056)" stroke-width="1.26316" stroke-linejoin="round"/>
<path d="M17.4749 6.52588L13.883 9.14248C13.0121 9.7769 12.2963 10.3154 11.1591 10.3154M0.632812 6.52588L4.22471 9.14248C5.0956 9.7769 5.81143 10.3154 6.9486 10.3154" stroke="url(#paint2_linear_2001_5056)" stroke-width="1.26316" stroke-linejoin="round"/>
<defs>
<linearGradient id="paint0_linear_2001_5056" x1="0.632812" y1="11.9996" x2="17.4749" y2="11.9996" gradientUnits="userSpaceOnUse">
<stop offset="1" stop-color="#1C5941"/>
</linearGradient>
<linearGradient id="paint1_linear_2001_5056" x1="0.632812" y1="8.63135" x2="17.4749" y2="8.63135" gradientUnits="userSpaceOnUse">
<stop offset="1" stop-color="#1C5941"/>
</linearGradient>
<linearGradient id="paint2_linear_2001_5056" x1="0.632812" y1="8.42062" x2="17.4749" y2="8.42062" gradientUnits="userSpaceOnUse">
<stop offset="1" stop-color="#1C5941"/>
</linearGradient>
</defs>
</svg>
