<svg width="25" height="24" viewBox="0 0 25 24" fill="none" xmlns="http://www.w3.org/2000/svg">
<path d="M6.5 4.5C6.70298 4.5 6.90297 4.51552 7.09863 4.54492C7.16874 4.55547 7.31011 4.57414 7.43359 4.61328C7.57249 4.65736 7.7557 4.74564 7.89941 4.92871L7.95898 5.01367L8.01172 5.11133C8.11671 5.33951 8.09865 5.55617 8.07617 5.68457C8.05399 5.81119 8.00738 5.9493 7.98047 6.03223C7.8308 6.49346 7.75 6.9866 7.75 7.5C7.75 8.57163 8.10443 9.55818 8.70215 10.3525C8.75444 10.422 8.84317 10.538 8.90527 10.6504C8.97725 10.7808 9.07945 11.0216 9.01172 11.3223C8.95248 11.5851 8.79577 11.752 8.66602 11.8535C8.67049 11.8553 8.67527 11.8566 8.67969 11.8584C8.82152 11.917 9.18574 12.0937 9.28223 12.5234L9.29785 12.6133L9.30566 12.707C9.31724 13.1633 8.97979 13.4265 8.87012 13.5068C8.72446 13.6135 8.52439 13.7191 8.35742 13.8086C8.08076 13.9569 7.81368 14.1106 7.62305 14.2285C7.61781 14.2317 7.61175 14.2342 7.60645 14.2373C7.1002 14.5333 6.25536 15.0318 5.66309 15.6338C5.27995 16.0233 4.84417 16.6073 4.76367 17.3721C4.73867 17.6098 4.74974 17.835 4.79004 18.0479C4.81272 18.1676 4.84561 18.3321 4.85352 18.4736C4.8612 18.6119 4.86127 18.9387 4.60156 19.208C4.36603 19.4521 4.0785 19.4878 3.91113 19.4883C3.77073 19.4886 3.61297 19.4626 3.51855 19.4482C2.25541 19.2559 1.41907 18.5613 0.798828 17.8965C0.264488 17.3237 -0.0681825 16.5958 0.0117188 15.7734C0.085001 15.0205 0.483053 14.4511 0.816406 14.084C1.33977 13.5078 2.08358 13.0424 2.45898 12.8047C2.54542 12.75 2.60719 12.7099 2.65234 12.6797C3.18157 12.3252 3.74508 12.0513 4.32617 11.8564C3.22761 11.1434 2.5 9.90721 2.5 8.5C2.5 6.2909 4.29092 4.50007 6.5 4.5Z" fill="url(#paint0_linear_2572_5873)"/>
<path d="M18.501 4.5C20.71 4.50019 22.501 6.29098 22.501 8.5C22.501 9.90725 21.7734 11.1435 20.6748 11.8564C21.256 12.0513 21.8194 12.3251 22.3486 12.6797C22.3938 12.71 22.4564 12.7499 22.543 12.8047C22.9185 13.0425 23.6624 13.5079 24.1855 14.084C24.5189 14.4511 24.916 15.0206 24.9893 15.7734C25.0691 16.5958 24.7364 17.3238 24.2021 17.8965C23.582 18.5611 22.7461 19.2559 21.4834 19.4482C21.389 19.4626 21.2304 19.4886 21.0898 19.4883C20.9225 19.4878 20.6349 19.452 20.3994 19.208C20.1398 18.9388 20.1407 18.6119 20.1484 18.4736C20.1564 18.3321 20.1892 18.1676 20.2119 18.0479C20.2522 17.8351 20.2633 17.6098 20.2383 17.3721C20.1578 16.6074 19.721 16.0233 19.3379 15.6338C18.7457 15.0319 17.9007 14.5333 17.3945 14.2373C17.3895 14.2343 17.3839 14.2316 17.3789 14.2285C17.1883 14.1106 16.9203 13.9569 16.6436 13.8086C16.4767 13.7191 16.2765 13.6135 16.1309 13.5068C16.0136 13.4209 15.6386 13.1269 15.7031 12.6133L15.7188 12.5234C15.8152 12.0937 16.1794 11.917 16.3213 11.8584C16.3256 11.8566 16.3306 11.8553 16.335 11.8535C16.2053 11.752 16.0485 11.5849 15.9893 11.3223C15.9215 11.0215 16.0247 10.7807 16.0967 10.6504C16.1588 10.538 16.2475 10.422 16.2998 10.3525C16.8973 9.55825 17.251 8.57145 17.251 7.5C17.251 6.98658 17.1702 6.49347 17.0205 6.03223C16.9936 5.94931 16.947 5.81118 16.9248 5.68457C16.8991 5.53786 16.8806 5.27634 17.043 5.01367L17.1016 4.92871C17.2452 4.74565 17.4285 4.65737 17.5674 4.61328C17.6908 4.57415 17.8322 4.55547 17.9023 4.54492C18.0979 4.51553 18.2981 4.50002 18.501 4.5Z" fill="url(#paint1_linear_2572_5873)"/>
<path d="M8.19342 14.4733C10.8312 12.8422 14.1769 12.8422 16.8147 14.4733C16.8925 14.5214 16.9909 14.579 17.1041 14.6452L17.1041 14.6452C17.6164 14.945 18.4296 15.4208 18.9845 15.9849C19.333 16.3391 19.6806 16.8221 19.744 17.4242C19.8118 18.0683 19.5384 18.6646 19.0168 19.1806C18.1552 20.033 17.0879 20.75 15.6884 20.75H9.31968C7.92022 20.75 6.85289 20.033 5.99127 19.1806C5.4697 18.6646 5.1963 18.0683 5.2641 17.4242C5.32748 16.8221 5.67508 16.3391 6.0236 15.9849C6.57851 15.4208 7.39169 14.945 7.90397 14.6452L7.904 14.6452C8.01717 14.579 8.11565 14.5214 8.19342 14.4733Z" fill="url(#paint2_linear_2572_5873)"/>
<path d="M8.25391 7.5C8.25391 5.15279 10.1567 3.25 12.5039 3.25C14.8511 3.25 16.7539 5.15279 16.7539 7.5C16.7539 9.84721 14.8511 11.75 12.5039 11.75C10.1567 11.75 8.25391 9.84721 8.25391 7.5Z" fill="url(#paint3_linear_2572_5873)"/>
<defs>
<linearGradient id="paint0_linear_2572_5873" x1="0" y1="11.9941" x2="9.30604" y2="11.9941" gradientUnits="userSpaceOnUse">
<stop offset="1" stop-color="#1C5941"/>
</linearGradient>
<linearGradient id="paint1_linear_2572_5873" x1="15.6953" y1="11.9941" x2="25.0007" y2="11.9941" gradientUnits="userSpaceOnUse">
<stop offset="1" stop-color="#1C5941"/>
</linearGradient>
<linearGradient id="paint2_linear_2572_5873" x1="5.25391" y1="17" x2="19.7542" y2="17" gradientUnits="userSpaceOnUse">
<stop offset="1" stop-color="#1C5941"/>
</linearGradient>
<linearGradient id="paint3_linear_2572_5873" x1="8.25391" y1="7.5" x2="16.7539" y2="7.5" gradientUnits="userSpaceOnUse">
<stop offset="1" stop-color="#1C5941"/>
</linearGradient>
</defs>
</svg>
