<svg width="23" height="23" viewBox="0 0 23 23" fill="none" xmlns="http://www.w3.org/2000/svg">
<path d="M20.625 5.25C20.2572 5.24974 19.8975 5.35773 19.5907 5.5605C19.2839 5.76327 19.0435 6.05186 18.8995 6.3903C18.7556 6.72874 18.7145 7.10205 18.7812 7.46372C18.848 7.82538 19.0197 8.1594 19.275 8.42414C19.0419 8.57095 18.8708 8.79829 18.7943 9.06296C18.7178 9.32763 18.7412 9.61118 18.86 9.85973L18.0267 10.693C17.7677 10.9519 17.4941 11.1958 17.2073 11.4235C17.2354 11.37 17.2501 11.3104 17.25 11.25V6.24056C17.4405 6.02463 17.5647 5.75844 17.608 5.47379C17.6513 5.18914 17.6117 4.89805 17.494 4.63528C17.3763 4.3725 17.1855 4.14915 16.9443 3.99189C16.7032 3.83462 16.4218 3.7501 16.1339 3.74839C15.846 3.74669 15.5637 3.82789 15.3206 3.9823C15.0776 4.1367 14.8842 4.35778 14.7634 4.61915C14.6426 4.88051 14.5996 5.17111 14.6395 5.45626C14.6794 5.7414 14.8005 6.00903 14.9884 6.2272C13.9754 7.17714 12.6387 7.70581 11.25 7.70581C9.86126 7.70581 8.5246 7.17714 7.51158 6.2272C7.69946 6.00903 7.82059 5.7414 7.86049 5.45626C7.9004 5.17111 7.85739 4.88051 7.73661 4.61915C7.61583 4.35778 7.42239 4.1367 7.17937 3.9823C6.93635 3.82789 6.65402 3.74669 6.36611 3.74839C6.07819 3.7501 5.79685 3.83462 5.55567 3.99189C5.31449 4.14915 5.12367 4.3725 5.00599 4.63528C4.8883 4.89805 4.84873 5.18914 4.892 5.47379C4.93527 5.75844 5.05955 6.02463 5.25 6.24056V11.25C5.24998 11.3104 5.26465 11.3699 5.29275 11.4234C5.00596 11.1957 4.73239 10.9519 4.47338 10.693L3.64008 9.85973C3.75892 9.61117 3.78229 9.32761 3.70577 9.06294C3.62924 8.79827 3.45815 8.57093 3.225 8.42414C3.48032 8.15925 3.65206 7.8251 3.71885 7.46332C3.78563 7.10153 3.74451 6.72809 3.6006 6.3895C3.45669 6.05091 3.21635 5.76214 2.90951 5.55916C2.60267 5.35617 2.2429 5.24794 1.875 5.24794C1.5071 5.24794 1.14733 5.35617 0.840491 5.55916C0.533655 5.76214 0.293314 6.05091 0.149403 6.3895C0.00549126 6.72809 -0.0356319 7.10153 0.0311548 7.46332C0.0979415 7.8251 0.269687 8.15925 0.525001 8.42414C0.34628 8.53675 0.2029 8.69743 0.11129 8.88778C0.0196796 9.07812 -0.0164538 9.29042 0.00703003 9.50035C0.0305138 9.71028 0.112665 9.90935 0.244069 10.0747C0.375473 10.2401 0.550815 10.3652 0.750001 10.4355V20.3132C0.530995 20.3902 0.341254 20.5332 0.206929 20.7225C0.0726041 20.9118 0.000306814 21.1382 9.41018e-07 21.3703V22.125C9.41018e-07 22.2245 0.0395097 22.3198 0.109836 22.3902C0.180162 22.4605 0.275545 22.5 0.375001 22.5H3.375C3.47446 22.5 3.56984 22.4605 3.64017 22.3902C3.71049 22.3198 3.75 22.2245 3.75 22.125V21.3703C3.7497 21.1382 3.67741 20.9118 3.54309 20.7225C3.40876 20.5331 3.21901 20.3901 3 20.3131V12.1553L3.30286 12.4582C4.26621 13.4233 5.39806 14.204 6.64247 14.7616L4.14549 22.0028C4.12601 22.0592 4.12031 22.1196 4.12886 22.1787C4.13741 22.2378 4.15997 22.294 4.19466 22.3427C4.22934 22.3913 4.27515 22.431 4.32826 22.4584C4.38137 22.4857 4.44025 22.5 4.5 22.5H18C18.0597 22.5 18.1186 22.4857 18.1717 22.4584C18.2249 22.431 18.2707 22.3913 18.3053 22.3427C18.34 22.294 18.3626 22.2378 18.3711 22.1787C18.3797 22.1196 18.374 22.0592 18.3545 22.0028L15.8578 14.7616C17.1022 14.2039 18.234 13.4233 19.1974 12.4582L19.5002 12.1553V20.3132C19.2812 20.3901 19.0914 20.5331 18.957 20.7225C18.8227 20.9118 18.7503 21.1381 18.75 21.3703V22.125C18.75 22.2245 18.7895 22.3198 18.8598 22.3902C18.9302 22.4605 19.0255 22.5 19.125 22.5H22.125C22.2245 22.5 22.3198 22.4605 22.3902 22.3902C22.4605 22.3198 22.5 22.2245 22.5 22.125V21.3703C22.4997 21.1382 22.4274 20.9118 22.2931 20.7225C22.1588 20.5331 21.969 20.3901 21.75 20.3131V10.4355C21.9492 10.3652 22.1245 10.2401 22.2559 10.0747C22.3873 9.90935 22.4695 9.71028 22.493 9.50035C22.5165 9.29042 22.4803 9.07812 22.3887 8.88778C22.2971 8.69743 22.1537 8.53675 21.975 8.42414C22.2303 8.1594 22.402 7.82538 22.4688 7.46372C22.5356 7.10205 22.4944 6.72874 22.3505 6.3903C22.2065 6.05186 21.9662 5.76327 21.6593 5.5605C21.3525 5.35773 20.9928 5.24974 20.625 5.25ZM20.625 6C20.8475 6 21.065 6.06598 21.25 6.1896C21.435 6.31321 21.5792 6.48891 21.6644 6.69448C21.7495 6.90005 21.7718 7.12625 21.7284 7.34448C21.685 7.56271 21.5778 7.76316 21.4205 7.9205C21.2632 8.07783 21.0627 8.18498 20.8445 8.22838C20.6262 8.27179 20.4 8.24951 20.1945 8.16436C19.9889 8.07922 19.8132 7.93502 19.6896 7.75002C19.566 7.56501 19.5 7.3475 19.5 7.125C19.5003 6.82674 19.619 6.54079 19.8299 6.32989C20.0408 6.11899 20.3267 6.00035 20.625 6ZM20.25 20.25V10.5H21V20.25H20.25ZM15.75 6.70252C15.996 6.76582 16.254 6.76582 16.5 6.70252V10.875H15.75V6.70252ZM16.125 4.5C16.2733 4.5 16.4183 4.54399 16.5417 4.6264C16.665 4.70881 16.7611 4.82594 16.8179 4.96299C16.8747 5.10003 16.8895 5.25083 16.8606 5.39632C16.8317 5.5418 16.7602 5.67544 16.6553 5.78033C16.5504 5.88522 16.4168 5.95665 16.2713 5.98559C16.1258 6.01453 15.975 5.99968 15.838 5.94291C15.7009 5.88614 15.5838 5.79001 15.5014 5.66668C15.419 5.54334 15.375 5.39834 15.375 5.25C15.3752 5.05116 15.4543 4.86053 15.5949 4.71993C15.7355 4.57933 15.9262 4.50024 16.125 4.5ZM6 6.70252C6.24599 6.76582 6.50401 6.76582 6.75 6.70252V10.875H6V6.70252ZM6.375 4.5C6.52334 4.5 6.66834 4.54399 6.79168 4.6264C6.91502 4.70881 7.01114 4.82594 7.06791 4.96299C7.12468 5.10003 7.13953 5.25083 7.11059 5.39632C7.08165 5.5418 7.01022 5.67544 6.90533 5.78033C6.80044 5.88522 6.6668 5.95665 6.52132 5.98559C6.37583 6.01453 6.22503 5.99968 6.08799 5.94291C5.95094 5.88614 5.83381 5.79001 5.7514 5.66668C5.66899 5.54334 5.625 5.39834 5.625 5.25C5.62524 5.05116 5.70433 4.86053 5.84493 4.71993C5.98553 4.57933 6.17616 4.50024 6.375 4.5ZM5.625 11.625H7.125C7.22446 11.625 7.31984 11.5855 7.39017 11.5152C7.46049 11.4448 7.5 11.3495 7.5 11.25V7.19822C8.5799 8.01421 9.89648 8.45569 11.25 8.45569C12.6035 8.45569 13.9201 8.01421 15 7.19822V11.25C15 11.3495 15.0395 11.4448 15.1098 11.5152C15.1802 11.5855 15.2755 11.625 15.375 11.625H16.875C16.9031 11.6249 16.9312 11.6217 16.9586 11.6153C16.3929 12.035 15.7824 12.3906 15.1383 12.6758L14.6045 11.1278C14.5791 11.054 14.5312 10.99 14.4677 10.9447C14.4041 10.8994 14.328 10.875 14.25 10.875H8.25C8.17196 10.875 8.09585 10.8994 8.03231 10.9447C7.96876 10.99 7.92093 11.054 7.89548 11.1278L7.36167 12.6758C6.71762 12.3906 6.10714 12.035 5.54142 11.6153C5.56883 11.6217 5.59687 11.6249 5.625 11.625ZM14.4405 12.9531C12.376 13.6823 10.124 13.6823 8.05941 12.9531L8.51719 11.625H13.9828L14.4405 12.9531ZM1.5 20.25V10.5H2.25V20.25H1.5ZM1.125 9H2.625C2.72446 9 2.81984 9.03951 2.89017 9.10983C2.96049 9.18016 3 9.27554 3 9.375C3 9.47446 2.96049 9.56984 2.89017 9.64017C2.81984 9.71049 2.72446 9.75 2.625 9.75H1.125C1.02554 9.75 0.930162 9.71049 0.859836 9.64017C0.78951 9.56984 0.750001 9.47446 0.750001 9.375C0.750001 9.27554 0.78951 9.18016 0.859836 9.10983C0.930162 9.03951 1.02554 9 1.125 9ZM1.875 6C2.0975 6 2.31501 6.06598 2.50002 6.1896C2.68502 6.31321 2.82922 6.48891 2.91437 6.69448C2.99951 6.90005 3.02179 7.12625 2.97838 7.34448C2.93498 7.56271 2.82783 7.76316 2.6705 7.9205C2.51316 8.07783 2.31271 8.18498 2.09448 8.22838C1.87625 8.27179 1.65005 8.24951 1.44448 8.16436C1.23892 8.07922 1.06321 7.93502 0.939598 7.75002C0.815981 7.56501 0.750001 7.3475 0.750001 7.125C0.750348 6.82674 0.868986 6.54079 1.07989 6.32989C1.29079 6.11899 1.57674 6.00035 1.875 6ZM3 21.75H0.750001V21.3703C0.750125 21.2721 0.78918 21.178 0.8586 21.1086C0.92802 21.0392 1.02214 21.0001 1.12031 21H2.62969C2.72786 21.0001 2.82198 21.0392 2.8914 21.1086C2.96082 21.178 2.99988 21.2721 3 21.3703V21.75ZM5.02599 21.75L7.33763 15.0463C9.86149 15.9846 12.6385 15.9846 15.1624 15.0463L17.474 21.75H5.02599ZM18.6666 11.9279C17.6926 12.9019 16.5363 13.6745 15.2638 14.2016C13.9912 14.7287 12.6272 15 11.2498 15C9.87239 15 8.50844 14.7287 7.23587 14.2016C5.96329 13.6745 4.807 12.9019 3.83302 11.9279L3 11.0947V10.4355C3.03735 10.4223 3.07398 10.4071 3.10974 10.3901L3.94299 11.2234C5.88095 13.1613 8.50935 14.25 11.25 14.25C13.9907 14.25 16.6191 13.1613 18.557 11.2234L19.3903 10.3901C19.426 10.4071 19.4627 10.4223 19.5 10.4355V11.0947L18.6666 11.9279ZM21.75 21.75H19.5V21.3703C19.5001 21.2721 19.5392 21.178 19.6086 21.1086C19.678 21.0392 19.7721 21.0001 19.8703 21H21.3797C21.4779 21.0001 21.572 21.0392 21.6414 21.1086C21.7108 21.178 21.7499 21.2721 21.75 21.3703V21.75ZM21.375 9.75H19.875C19.7755 9.75 19.6802 9.71049 19.6098 9.64017C19.5395 9.56984 19.5 9.47446 19.5 9.375C19.5 9.27554 19.5395 9.18016 19.6098 9.10983C19.6802 9.03951 19.7755 9 19.875 9H21.375C21.4745 9 21.5698 9.03951 21.6402 9.10983C21.7105 9.18016 21.75 9.27554 21.75 9.375C21.75 9.47446 21.7105 9.56984 21.6402 9.64017C21.5698 9.71049 21.4745 9.75 21.375 9.75ZM8.25 0.75H9V1.5H8.25V0.75ZM9.75 0.75H10.5V1.5H9.75V0.75ZM9 0H9.75V0.75H9V0ZM9 1.5H9.75V2.25H9V1.5Z" fill="#4D4D4D"/>
</svg>
