<svg width="20" height="20" viewBox="0 0 20 20" fill="none" xmlns="http://www.w3.org/2000/svg">
<path fill-rule="evenodd" clip-rule="evenodd" d="M0.335367 5.87495C-0.205093 7.00229 -0.0153731 8.3208 0.364067 10.9579L0.642837 12.8952C1.13025 16.2827 1.37396 17.9764 2.54903 18.9882C3.72409 20 5.44737 20 8.8939 20H11.1061C14.5526 20 16.2759 20 17.451 18.9882C18.626 17.9764 18.8697 16.2827 19.3572 12.8952L19.6359 10.9579C20.0154 8.3208 20.2051 7.00229 19.6646 5.87495C19.1242 4.7476 17.9738 4.06234 15.6731 2.69181L14.2882 1.86687C12.199 0.62229 11.1543 0 10 0C8.8457 0 7.80104 0.62229 5.71175 1.86687L4.32691 2.69181C2.02619 4.06234 0.875827 4.7476 0.335367 5.87495ZM10 16.75C9.5858 16.75 9.25 16.4142 9.25 16V13C9.25 12.5858 9.5858 12.25 10 12.25C10.4142 12.25 10.75 12.5858 10.75 13V16C10.75 16.4142 10.4142 16.75 10 16.75Z" fill="url(#paint0_linear_2445_2892)"/>
<defs>
<linearGradient id="paint0_linear_2445_2892" x1="0" y1="10" x2="20" y2="10" gradientUnits="userSpaceOnUse">
<stop offset="1" stop-color="#1C5941"/>
</linearGradient>
</defs>
</svg>
