<svg width="18" height="18" viewBox="0 0 18 18" fill="none" xmlns="http://www.w3.org/2000/svg">
<g clip-path="url(#clip0_1984_6576)">
<path d="M15.8377 11.336C15.4817 11.1636 15.0957 11.0616 14.7011 11.0356C14.8732 10.61 14.9669 10.1566 14.9775 9.69759C15.0577 7.28266 13.1446 5.52991 12.3305 4.77898L12.2452 4.70218C12.1274 4.59295 12.0199 4.48543 11.9192 4.37791C12.0231 4.2904 12.1066 4.18119 12.1638 4.05794C12.221 3.93469 12.2505 3.8004 12.2503 3.66453V3.64746C12.2496 3.45984 12.1927 3.27674 12.0868 3.12186C11.9809 2.96698 11.8309 2.84746 11.6564 2.77877C11.8519 2.23339 11.9886 1.6687 12.0643 1.09429C12.0761 0.996314 12.0601 0.896986 12.0181 0.807668C11.9762 0.71835 11.9099 0.642651 11.8269 0.589232C11.744 0.535812 11.6476 0.50683 11.5489 0.505602C11.4503 0.504374 11.3532 0.530949 11.2689 0.582287C11.0075 0.727099 10.728 0.836706 10.4378 0.908261C10.158 0.981045 9.86425 0.981045 9.58447 0.908261C9.29238 0.836693 9.01115 0.726495 8.7482 0.580581C8.66341 0.529369 8.56587 0.503159 8.46683 0.504971C8.36779 0.506782 8.27127 0.536542 8.18841 0.590821C8.10605 0.643346 8.04044 0.718336 7.99931 0.80694C7.95818 0.895545 7.94326 0.994065 7.9563 1.09087C8.03306 1.66746 8.17035 2.23436 8.3659 2.78218C8.19086 2.8504 8.04042 2.96976 7.93418 3.12471C7.82794 3.27965 7.77082 3.463 7.77028 3.65087V3.66794C7.77023 3.81961 7.80721 3.96899 7.87799 4.10313C7.94878 4.23726 8.05123 4.35209 8.17646 4.43765C8.09966 4.51957 8.0058 4.60831 7.90681 4.70218L7.82489 4.77898C7.00057 5.52991 5.09764 7.28095 5.17614 9.69589C5.17614 9.82218 5.1915 9.94335 5.20516 10.0645H3.87566V9.51669C3.87566 9.42616 3.8397 9.33934 3.77569 9.27533C3.71168 9.21132 3.62486 9.17535 3.53433 9.17535H1.11086C1.02034 9.17535 0.933518 9.21132 0.869506 9.27533C0.805493 9.33934 0.769531 9.42616 0.769531 9.51669V15.3364C0.769531 15.4269 0.805493 15.5138 0.869506 15.5778C0.933518 15.6418 1.02034 15.6778 1.11086 15.6778H3.53433C3.62486 15.6778 3.71168 15.6418 3.77569 15.5778C3.8397 15.5138 3.87566 15.4269 3.87566 15.3364V14.8927L7.59278 16.3928C7.88 16.5009 8.18367 16.5586 8.49049 16.5635C9.17316 16.5635 9.77049 16.2683 10.4685 15.9201L10.547 15.8808H10.5641L15.8548 12.8413C15.9925 12.7691 16.1075 12.6599 16.1868 12.5261C16.266 12.3923 16.3065 12.239 16.3036 12.0835C16.3048 11.9276 16.2616 11.7745 16.1791 11.6421C16.0966 11.5098 15.9782 11.4036 15.8377 11.336ZM8.81305 3.92565H8.70724C8.64054 3.92565 8.57655 3.89927 8.52923 3.85227C8.48191 3.80527 8.4551 3.74146 8.45465 3.67477V3.6577C8.45397 3.6241 8.46 3.59071 8.47239 3.55947C8.48478 3.52823 8.50327 3.49978 8.5268 3.47578C8.55032 3.45178 8.5784 3.43271 8.60938 3.4197C8.64036 3.40669 8.67363 3.39999 8.70724 3.39999H11.3167C11.3833 3.39999 11.4471 3.42643 11.4941 3.47347C11.5412 3.52052 11.5676 3.58434 11.5676 3.65087V3.66794C11.5685 3.70146 11.5627 3.73482 11.5505 3.76605C11.5383 3.79728 11.52 3.82574 11.4966 3.84977C11.4732 3.87379 11.4452 3.89289 11.4143 3.90592C11.3835 3.91895 11.3503 3.92566 11.3167 3.92565H8.81305ZM9.40356 1.57386C9.80054 1.6797 10.2183 1.6797 10.6153 1.57386C10.864 1.50857 11.1071 1.42353 11.3423 1.31957C11.2524 1.79549 11.1229 2.26304 10.9549 2.71733H9.06052C8.89378 2.26279 8.76478 1.79529 8.67481 1.31957C8.91071 1.42325 9.15437 1.50828 9.40356 1.57386ZM8.28569 5.29098L8.36932 5.21418C8.57584 5.02627 8.76862 4.8238 8.94617 4.60831H11.2075C11.3843 4.82072 11.5753 5.02086 11.7792 5.20735L11.8663 5.28586C12.6121 5.96853 14.3614 7.57279 14.2915 9.6737C14.2866 10.1679 14.1569 10.6528 13.9143 11.0834C13.6525 11.1384 13.3986 11.2255 13.1582 11.3428L11.3184 12.2286C11.269 11.9603 11.128 11.7175 10.9195 11.5416C10.7109 11.3657 10.4478 11.2677 10.175 11.2643H8.19524C7.58155 10.6324 6.77413 10.2239 5.90148 10.1038C5.87831 9.96145 5.86406 9.81781 5.85881 9.6737C5.79054 7.57279 7.53817 5.97365 8.28569 5.29098ZM1.45902 15.0019V9.85802H3.19982V14.9951L1.45902 15.0019ZM15.5339 12.2252L10.2432 15.2664L10.175 15.3006C9.24142 15.7665 8.67652 16.0481 7.84537 15.7546L3.87566 14.1656V10.7523H5.35022C5.80972 10.7525 6.26397 10.8499 6.68313 11.0382C7.10229 11.2264 7.47686 11.5012 7.78223 11.8446C7.81418 11.8805 7.85334 11.9092 7.89716 11.9289C7.94098 11.9486 7.98847 11.9588 8.03652 11.9589H10.175C10.2887 11.9606 10.3981 12.0022 10.4842 12.0765C10.5703 12.1508 10.6276 12.2529 10.646 12.3651C10.6491 12.4595 10.6216 12.5523 10.5675 12.6296C10.5675 12.6296 10.5675 12.6296 10.5573 12.6433C10.5163 12.695 10.4645 12.7371 10.4056 12.7666C10.3466 12.796 10.2818 12.8122 10.2159 12.814H6.39812C6.30759 12.814 6.22077 12.8499 6.15676 12.9139C6.09275 12.978 6.05678 13.0648 6.05678 13.1553C6.05678 13.2458 6.09275 13.3326 6.15676 13.3967C6.22077 13.4607 6.30759 13.4966 6.39812 13.4966H10.2125C10.359 13.4971 10.5041 13.4686 10.6394 13.4126C10.7747 13.3567 10.8976 13.2744 11.001 13.1707C11.0232 13.1485 11.0454 13.1246 11.0659 13.1007L13.4552 11.9504C13.6699 11.8414 13.9002 11.7659 14.1379 11.7268C14.6148 11.6578 15.1014 11.7345 15.5339 11.947C15.5581 11.9579 15.5786 11.9757 15.5928 11.9982C15.6071 12.0206 15.6145 12.0467 15.6141 12.0733C15.6165 12.1036 15.6103 12.134 15.5961 12.1609C15.5819 12.1878 15.5603 12.2101 15.5339 12.2252Z" fill="white"/>
<path d="M10.5842 9.44641H9.7991C9.77363 9.44663 9.74837 9.44181 9.72478 9.43222C9.70118 9.42263 9.67972 9.40846 9.66163 9.39053C9.64354 9.3726 9.62918 9.35126 9.61938 9.32775C9.60959 9.30424 9.60454 9.27903 9.60454 9.25356C9.60454 9.16303 9.56858 9.07621 9.50457 9.0122C9.44056 8.94818 9.35374 8.91222 9.26321 8.91222C9.17268 8.91222 9.08586 8.94818 9.02185 9.0122C8.95784 9.07621 8.92188 9.16303 8.92188 9.25356C8.92233 9.48591 9.01495 9.7086 9.17941 9.87274C9.34387 10.0369 9.56674 10.1291 9.7991 10.1291H9.8503V10.3851C9.8503 10.4756 9.88626 10.5624 9.95028 10.6264C10.0143 10.6904 10.1011 10.7264 10.1916 10.7264C10.2822 10.7264 10.369 10.6904 10.433 10.6264C10.497 10.5624 10.533 10.4756 10.533 10.3851V10.1291H10.5842C10.6991 10.1291 10.813 10.1064 10.9192 10.0624C11.0254 10.0184 11.122 9.95394 11.2033 9.87264C11.2846 9.79134 11.349 9.69483 11.393 9.5886C11.437 9.48238 11.4597 9.36853 11.4597 9.25356V8.68694C11.4592 8.45488 11.3669 8.23245 11.2028 8.06835C11.0387 7.90426 10.8162 7.81187 10.5842 7.81142H9.7991C9.77363 7.81165 9.74837 7.80683 9.72478 7.79723C9.70118 7.78764 9.67972 7.77347 9.66163 7.75554C9.64354 7.73761 9.62918 7.71628 9.61938 7.69277C9.60959 7.66926 9.60454 7.64404 9.60454 7.61857V7.05196C9.60499 7.00065 9.62569 6.9516 9.66213 6.91548C9.69857 6.87936 9.7478 6.8591 9.7991 6.8591H10.5842C10.6352 6.85955 10.684 6.88001 10.72 6.91608C10.7561 6.95215 10.7766 7.00095 10.777 7.05196C10.777 7.14248 10.813 7.2293 10.877 7.29331C10.941 7.35733 11.0278 7.39329 11.1184 7.39329C11.2089 7.39329 11.2957 7.35733 11.3597 7.29331C11.4237 7.2293 11.4597 7.14248 11.4597 7.05196C11.4597 6.93698 11.437 6.82313 11.393 6.71691C11.349 6.61069 11.2846 6.51417 11.2033 6.43287C11.122 6.35157 11.0254 6.28708 10.9192 6.24308C10.813 6.19908 10.6991 6.17643 10.5842 6.17643H10.533V5.92043C10.533 5.82991 10.497 5.74309 10.433 5.67908C10.369 5.61506 10.2822 5.5791 10.1916 5.5791C10.1011 5.5791 10.0143 5.61506 9.95028 5.67908C9.88626 5.74309 9.8503 5.82991 9.8503 5.92043V6.17643H9.7991C9.56674 6.17643 9.34387 6.26862 9.17941 6.43276C9.01495 6.59691 8.92233 6.8196 8.92188 7.05196V7.61857C8.92233 7.85093 9.01495 8.07362 9.17941 8.23776C9.34387 8.4019 9.56674 8.49409 9.7991 8.49409H10.5842C10.6352 8.49453 10.684 8.515 10.72 8.55107C10.7561 8.58714 10.7766 8.63593 10.777 8.68694V9.25356C10.777 9.3047 10.7567 9.35376 10.7205 9.38992C10.6844 9.42609 10.6353 9.44641 10.5842 9.44641Z" fill="white"/>
</g>
<defs>
<clipPath id="clip0_1984_6576">
<rect width="17.0667" height="17.0667" fill="white"/>
</clipPath>
</defs>
</svg>
