<svg width="18" height="18" viewBox="0 0 18 18" fill="none" xmlns="http://www.w3.org/2000/svg">
<g clip-path="url(#clip0_2573_5946)">
<path d="M4.84082 4.21772V2.67838C4.84082 2.06572 5.34209 1.56445 5.95474 1.56445H11.7472C12.3599 1.56445 12.8611 2.06572 12.8611 2.67838V4.21772M16.491 9.19585V15.0987C16.491 15.669 16.0242 16.1358 15.4539 16.1358H2.24805C1.67774 16.1358 1.21094 15.6691 1.21094 15.0987V9.23042" stroke="white" stroke-width="1.03711" stroke-miterlimit="22.9256" stroke-linecap="round" stroke-linejoin="round"/>
<path d="M7.46816 10.9416C3.81101 10.7325 0.519531 9.6867 0.519531 7.80424V5.34985C0.519531 4.77865 0.985401 4.31274 1.55664 4.31274H16.1453C16.7165 4.31274 17.1824 4.77868 17.1824 5.34985V7.80424C17.1824 9.69849 13.8494 10.7456 10.1646 10.9454" stroke="white" stroke-width="1.03711" stroke-miterlimit="22.9256" stroke-linecap="round" stroke-linejoin="round"/>
<path fill-rule="evenodd" clip-rule="evenodd" d="M7.57422 9.91309H10.1324V11.1058C10.1324 11.7617 9.59572 12.2984 8.93975 12.2984H8.76689C8.11092 12.2984 7.57422 11.7617 7.57422 11.1058V9.91309Z" stroke="white" stroke-width="1.03711" stroke-miterlimit="22.9256" stroke-linecap="round" stroke-linejoin="round"/>
</g>
<defs>
<clipPath id="clip0_2573_5946">
<rect width="17.7" height="17.7" fill="white"/>
</clipPath>
</defs>
</svg>
