<svg width="18" height="18" viewBox="0 0 18 18" fill="none" xmlns="http://www.w3.org/2000/svg">
<path d="M6.93125 8.7C4.45311 8.7 2.44531 10.7078 2.44531 13.1859V14.8172C2.44531 15.4879 2.99803 16.0406 3.66875 16.0406H8.5625C8.67066 16.0406 8.77439 15.9977 8.85087 15.9212C8.92735 15.8447 8.97031 15.741 8.97031 15.6328C8.97031 15.5247 8.92735 15.4209 8.85087 15.3444C8.77439 15.268 8.67066 15.225 8.5625 15.225H3.66875C3.43575 15.225 3.26094 15.0502 3.26094 14.8172V13.1859C3.26094 11.1455 4.89083 9.51562 6.93125 9.51562H10.4656C10.8313 9.51562 11.1828 9.56837 11.5142 9.66652C11.5657 9.68208 11.6198 9.68732 11.6733 9.68192C11.7268 9.67651 11.7787 9.66058 11.826 9.63504C11.8733 9.6095 11.9151 9.57486 11.949 9.5331C11.9829 9.49133 12.0082 9.44329 12.0234 9.39172C12.0386 9.34014 12.0435 9.28607 12.0378 9.2326C12.032 9.17913 12.0158 9.12733 11.9899 9.08017C11.9641 9.03301 11.9292 8.99143 11.8872 8.95782C11.8452 8.92421 11.797 8.89924 11.7453 8.88433C11.3298 8.76177 10.8988 8.69969 10.4656 8.7H6.93125ZM8.69844 1.35938C6.90134 1.35938 5.43594 2.82478 5.43594 4.62187C5.43594 6.41897 6.90134 7.88437 8.69844 7.88437C10.4955 7.88437 11.9609 6.41897 11.9609 4.62187C11.9609 2.82478 10.4955 1.35938 8.69844 1.35938ZM8.69844 2.175C10.0545 2.175 11.1453 3.26576 11.1453 4.62187C11.1453 5.97799 10.0545 7.06875 8.69844 7.06875C7.34232 7.06875 6.25156 5.97799 6.25156 4.62187C6.25156 3.26576 7.34232 2.175 8.69844 2.175Z" fill="white"/>
<path d="M12.2352 10.0593C10.4381 10.0593 8.97266 11.5247 8.97266 13.3218C8.97266 15.1189 10.4381 16.5843 12.2352 16.5843C12.8313 16.5844 13.4161 16.4212 13.9259 16.1124C14.0185 16.0563 14.085 15.9658 14.1108 15.8607C14.1366 15.7556 14.1196 15.6446 14.0635 15.552C14.0075 15.4595 13.9169 15.393 13.8118 15.3672C13.7068 15.3414 13.5957 15.3584 13.5032 15.4144C13.1208 15.6462 12.6823 15.7687 12.2352 15.7687C10.879 15.7687 9.78828 14.6779 9.78828 13.3218C9.78828 11.9657 10.879 10.875 12.2352 10.875C13.5913 10.875 14.682 11.9657 14.682 13.3218C14.682 13.7688 14.5597 14.2076 14.3278 14.5899C14.2717 14.6824 14.2547 14.7934 14.2805 14.8985C14.3063 15.0036 14.3728 15.0941 14.4653 15.1502C14.5579 15.2062 14.6689 15.2232 14.774 15.1974C14.8791 15.1717 14.9696 15.1052 15.0257 15.0126C15.3345 14.5027 15.4977 13.918 15.4977 13.3218C15.4977 11.5247 14.0322 10.0593 12.2352 10.0593Z" fill="white"/>
<path d="M12.2344 11.9624C12.0084 11.9624 11.8266 12.1443 11.8266 12.3702V12.914H11.2828C11.0569 12.914 10.875 13.0958 10.875 13.3218C10.875 13.5477 11.0569 13.7296 11.2828 13.7296H11.8266V14.2733C11.8266 14.499 12.0084 14.6812 12.2344 14.6812C12.4603 14.6812 12.6422 14.499 12.6422 14.2733V13.7296H13.1859C13.4119 13.7296 13.5938 13.5474 13.5938 13.3218C13.5938 13.0961 13.4119 12.914 13.1859 12.914H12.6422V12.3702C12.6422 12.1443 12.4603 11.9624 12.2344 11.9624Z" fill="white"/>
</svg>
