<svg width="19" height="19" viewBox="0 0 19 19" fill="none" xmlns="http://www.w3.org/2000/svg">
<path d="M11.0271 16.2592C14.2827 16.0428 16.876 13.4127 17.0894 10.1109C17.1312 9.46472 17.1312 8.79558 17.0894 8.14943C16.876 4.8476 14.2827 2.21753 11.0271 2.00112C9.91639 1.92729 8.75676 1.92744 7.64832 2.00112C4.39268 2.21753 1.79939 4.8476 1.58601 8.14943C1.54425 8.79558 1.54425 9.46472 1.58601 10.1109C1.66372 11.3134 2.19557 12.4269 2.82169 13.3671C3.18524 14.0253 2.94531 14.8468 2.56664 15.5644C2.29362 16.0818 2.1571 16.3405 2.26671 16.5274C2.37632 16.7142 2.62116 16.7202 3.11084 16.7321C4.07924 16.7557 4.73225 16.4812 5.25059 16.0989C5.54458 15.8821 5.69157 15.7737 5.79288 15.7613C5.89419 15.7488 6.09356 15.8309 6.49224 15.9951C6.85057 16.1427 7.26662 16.2338 7.64832 16.2592C8.75676 16.3329 9.91639 16.333 11.0271 16.2592Z" stroke="white" stroke-width="1.16745" stroke-linejoin="round"/>
<path d="M9.33237 9.3396H9.33935M12.4421 9.3396H12.4491M6.22266 9.3396H6.22964" stroke="white" stroke-width="1.5566" stroke-linecap="round" stroke-linejoin="round"/>
</svg>
