<svg width="24" height="24" viewBox="0 0 24 24" fill="none" xmlns="http://www.w3.org/2000/svg">
<path d="M11.9872 3.00013C12.0229 3.00021 12.0587 3.00028 12.0955 3.00036C12.6089 3.00211 13.111 3.01284 13.6156 3.11645C13.6689 3.12691 13.6689 3.12691 13.7233 3.13759C14.9002 3.37293 16.0755 3.81853 17.0567 4.52098C17.0894 4.54407 17.122 4.56715 17.1557 4.59094C17.4944 4.8334 17.8108 5.09324 18.115 5.37729C18.1845 5.44075 18.2536 5.50114 18.3262 5.56053C18.4066 5.62817 18.4732 5.69187 18.5402 5.7719C18.608 5.8518 18.6761 5.93001 18.7483 6.00604C20.1164 7.45027 20.9946 9.58493 20.996 11.5788C20.9964 11.6118 20.9968 11.6448 20.9973 11.6788C20.9973 11.7102 20.9974 11.7417 20.9975 11.7741C20.9976 11.8024 20.9978 11.8307 20.9979 11.8598C20.9894 11.9299 20.9894 11.9299 20.9192 12.0001C20.8218 12.0076 20.728 12.0108 20.6306 12.0107C20.602 12.0109 20.5734 12.011 20.544 12.0112C20.4835 12.0114 20.4231 12.0114 20.3626 12.0112C20.2699 12.0111 20.1772 12.0119 20.0845 12.0128C20.0259 12.0129 19.9672 12.0129 19.9085 12.0129C19.8807 12.0132 19.8529 12.0136 19.8242 12.0139C19.7461 12.0132 19.7461 12.0132 19.62 12.0001C19.5434 11.8853 19.5373 11.835 19.526 11.7003C19.5224 11.6608 19.5188 11.6213 19.5151 11.5806C19.5113 11.538 19.5075 11.4954 19.5036 11.4515C19.3015 9.4195 18.413 7.53992 16.8306 6.2174C15.2114 4.93563 13.1952 4.27971 11.1264 4.51922C9.66185 4.71345 8.34335 5.29039 7.18979 6.20643C7.16913 6.22257 7.14847 6.23871 7.12718 6.25535C7.07037 6.30027 7.01473 6.34629 6.95936 6.39297C6.92818 6.41891 6.89699 6.44484 6.86486 6.47156C6.79289 6.5552 6.79289 6.5552 6.80225 6.66984C6.85151 6.85049 6.94474 6.9338 7.07897 7.0593C7.103 7.0827 7.12702 7.1061 7.15178 7.1302C7.22834 7.20466 7.30556 7.27838 7.38292 7.35201C7.46021 7.42594 7.53734 7.50003 7.61406 7.57456C7.66173 7.62085 7.70975 7.66679 7.75814 7.71233C7.91826 7.86735 7.91826 7.86735 7.9625 7.98904C7.96221 8.09983 7.92411 8.15666 7.85695 8.24301C7.76127 8.2749 7.70521 8.28265 7.60682 8.28305C7.57738 8.28326 7.54795 8.28346 7.51762 8.28366C7.46935 8.28372 7.46935 8.28372 7.42011 8.28378C7.38613 8.28396 7.35214 8.28413 7.31713 8.28431C7.20455 8.28482 7.09197 8.28506 6.97939 8.28526C6.90123 8.28546 6.82308 8.28566 6.74493 8.28586C6.58098 8.28623 6.41704 8.28644 6.2531 8.28656C6.04296 8.28675 5.83283 8.2876 5.62269 8.28859C5.46124 8.28925 5.29978 8.28943 5.13832 8.28948C5.06084 8.28959 4.98337 8.28987 4.90589 8.29033C4.79754 8.29093 4.68921 8.29087 4.58085 8.29064C4.54882 8.29096 4.51678 8.29129 4.48377 8.29162C4.29862 8.2904 4.16723 8.27532 4.02958 8.13767C4.02594 8.09047 4.02468 8.04309 4.02442 7.99576C4.02417 7.96518 4.02391 7.93461 4.02366 7.90311C4.02356 7.86931 4.02347 7.83551 4.02337 7.80069C4.02302 7.74759 4.02302 7.74759 4.02267 7.69342C4.02197 7.57573 4.02157 7.45804 4.02122 7.34035C4.02107 7.30027 4.02093 7.26018 4.02078 7.21889C4.02005 7.00677 4.01955 6.79464 4.01922 6.58252C4.01883 6.36301 4.01762 6.1435 4.01623 5.92399C4.01531 5.75558 4.01502 5.58717 4.01489 5.41875C4.01472 5.33781 4.01431 5.25688 4.01366 5.17595C4.01281 5.06278 4.01284 4.94965 4.01308 4.83648C4.01263 4.8029 4.01218 4.76931 4.01172 4.7347C4.01351 4.50826 4.01351 4.50826 4.09471 4.3952C4.17004 4.34542 4.17004 4.34542 4.26822 4.32191C4.43731 4.35724 4.51929 4.45843 4.6357 4.58106C4.65932 4.60506 4.68293 4.62905 4.70726 4.65377C4.78254 4.73046 4.85706 4.80784 4.93156 4.88529C5.00658 4.96233 5.08176 5.03922 5.15699 5.11605C5.20374 5.16388 5.25032 5.21187 5.29674 5.26002C5.31785 5.2818 5.33895 5.30359 5.3607 5.32604C5.37917 5.34522 5.39763 5.3644 5.41666 5.38416C5.49942 5.46251 5.55369 5.50319 5.66894 5.50855C5.81483 5.459 5.8763 5.38445 5.9803 5.27373C6.43665 4.81884 7.0175 4.45047 7.57604 4.13474C7.60088 4.12061 7.62571 4.10649 7.65129 4.09194C8.46366 3.63457 9.3475 3.32737 10.26 3.14059C10.2853 3.13541 10.3105 3.13024 10.3365 3.12491C10.8859 3.02049 11.4292 2.99801 11.9872 3.00013Z" fill="#4D4D4D"/>
<path d="M3.2862 11.9892C3.31403 11.9892 3.34187 11.9892 3.37055 11.9893C3.39912 11.9891 3.42769 11.989 3.45713 11.9888C3.51757 11.9886 3.57803 11.9886 3.63847 11.9887C3.73119 11.9888 3.82387 11.988 3.91659 11.9871C3.97525 11.9871 4.03391 11.987 4.09257 11.9871C4.1204 11.9867 4.14824 11.9864 4.17692 11.9861C4.25503 11.9867 4.25503 11.9867 4.38116 11.9998C4.45915 12.1168 4.46413 12.1708 4.47511 12.3086C4.47872 12.3498 4.48232 12.3911 4.48604 12.4336C4.48981 12.478 4.49358 12.5225 4.49747 12.5682C4.69076 14.5881 5.60079 16.4707 7.17048 17.7826C8.79058 19.0637 10.8054 19.7203 12.8747 19.4808C14.3393 19.2865 15.6578 18.7096 16.8113 17.7935C16.832 17.7774 16.8526 17.7613 16.8739 17.7446C16.9307 17.6997 16.9864 17.6537 17.0417 17.607C17.0729 17.5811 17.1041 17.5551 17.1363 17.5284C17.2082 17.4448 17.2082 17.4448 17.1989 17.3301C17.1496 17.1495 17.0564 17.0662 16.9221 16.9407C16.8861 16.9056 16.8861 16.9056 16.8493 16.8698C16.7728 16.7953 16.6956 16.7216 16.6182 16.648C16.5409 16.574 16.4638 16.4999 16.3871 16.4254C16.3394 16.3791 16.2914 16.3332 16.243 16.2876C16.0828 16.1326 16.0828 16.1326 16.0386 16.0109C16.0389 15.9001 16.077 15.8433 16.1442 15.757C16.2398 15.7251 16.2959 15.7173 16.3943 15.7169C16.4384 15.7166 16.4384 15.7166 16.4835 15.7163C16.5318 15.7162 16.5318 15.7162 16.581 15.7162C16.615 15.716 16.649 15.7158 16.684 15.7157C16.7966 15.7151 16.9091 15.7149 17.0217 15.7147C17.0999 15.7145 17.178 15.7143 17.2562 15.7141C17.4201 15.7137 17.5841 15.7135 17.748 15.7134C17.9581 15.7132 18.1683 15.7124 18.3784 15.7114C18.5399 15.7107 18.7013 15.7105 18.8628 15.7105C18.9403 15.7104 19.0177 15.7101 19.0952 15.7096C19.2036 15.709 19.3119 15.7091 19.4203 15.7093C19.4523 15.709 19.4843 15.7087 19.5173 15.7083C19.7025 15.7096 19.8339 15.7247 19.9715 15.8623C19.9752 15.9095 19.9764 15.9569 19.9767 16.0042C19.9771 16.0501 19.9771 16.0501 19.9775 16.0969C19.9775 16.1307 19.9776 16.1645 19.9777 16.1993C19.978 16.2347 19.9782 16.2701 19.9784 16.3065C19.9791 16.4242 19.9795 16.5419 19.9799 16.6596C19.98 16.6997 19.9802 16.7398 19.9803 16.7811C19.9811 16.9932 19.9816 17.2053 19.9819 17.4174C19.9823 17.637 19.9835 17.8565 19.9849 18.076C19.9858 18.2444 19.9861 18.4128 19.9862 18.5812C19.9864 18.6622 19.9868 18.7431 19.9874 18.824C19.9883 18.9372 19.9883 19.0503 19.988 19.1635C19.9885 19.1971 19.9889 19.2307 19.9894 19.2653C19.9876 19.4917 19.9876 19.4917 19.9064 19.6047C19.8311 19.6546 19.8311 19.6546 19.7331 19.6786C19.5615 19.642 19.4786 19.5355 19.3614 19.41C19.3373 19.3851 19.3131 19.3603 19.2883 19.3347C19.2112 19.2552 19.1348 19.1752 19.0586 19.0949C18.9823 19.0149 18.9059 18.9349 18.8289 18.8556C18.781 18.8062 18.7335 18.7564 18.6865 18.7062C18.5845 18.6009 18.522 18.5385 18.3794 18.4955C18.2871 18.4883 18.2871 18.4883 18.2201 18.5326C18.2006 18.5523 18.1811 18.572 18.161 18.5924C18.137 18.6152 18.113 18.6381 18.0883 18.6616C18.0609 18.688 18.0334 18.7144 18.0052 18.7416C17.519 19.1742 16.9921 19.5461 16.4251 19.8652C16.4004 19.8793 16.3757 19.8933 16.3503 19.9077C15.5378 20.3652 14.6538 20.6726 13.7411 20.8594C13.7158 20.8646 13.6906 20.8697 13.6646 20.8751C13.1152 20.9795 12.5719 21.002 12.0139 20.9998C11.9782 20.9998 11.9424 20.9997 11.9056 20.9996C11.3922 20.9979 10.8901 20.9871 10.3856 20.8835C10.35 20.8765 10.3144 20.8696 10.2778 20.8624C8.9837 20.6036 7.76452 20.0841 6.69864 19.3034C6.67852 19.2888 6.6584 19.2742 6.63767 19.2591C6.37216 19.0652 6.12852 18.8539 5.89007 18.6279C5.82024 18.5619 5.74871 18.4995 5.67432 18.4387C5.59342 18.3708 5.52624 18.3063 5.4587 18.2259C5.39399 18.1496 5.32927 18.0745 5.26064 18.0018C3.81331 16.4633 2.95882 14.2413 3.00153 12.1339C3.02747 11.9716 3.15012 11.9909 3.2862 11.9892Z" fill="#4D4D4D"/>
<path d="M16.3901 9.78784C16.3934 10.3989 16.3959 11.0099 16.3974 11.621C16.3981 11.9047 16.3991 12.1885 16.4007 12.4722C16.4021 12.7194 16.403 12.9667 16.4033 13.214C16.4035 13.3449 16.4039 13.4759 16.405 13.6068C16.4061 13.7529 16.4061 13.899 16.4061 14.0452C16.4066 14.0887 16.4071 14.1322 16.4076 14.177C16.4074 14.2168 16.4072 14.2565 16.407 14.2975C16.4071 14.3321 16.4073 14.3667 16.4074 14.4023C16.3852 14.519 16.34 14.5589 16.2497 14.6335C16.1905 14.6723 16.1299 14.709 16.0683 14.7439C16.0323 14.7645 15.9963 14.7851 15.9591 14.8063C15.9203 14.8282 15.8815 14.8501 15.8415 14.8727C15.8005 14.896 15.7595 14.9194 15.7186 14.9428C15.6335 14.9913 15.5484 15.0398 15.4633 15.0881C15.2684 15.199 15.0743 15.3113 14.8802 15.4236C14.8042 15.4674 14.7281 15.5113 14.652 15.5552C14.5955 15.5878 14.5955 15.5878 14.5379 15.6211C14.4238 15.6869 14.3096 15.7527 14.1955 15.8186C14.139 15.8512 14.139 15.8512 14.0812 15.8845C14.0057 15.9281 13.9302 15.9717 13.8546 16.0152C13.6773 16.1176 13.4999 16.2199 13.3225 16.3223C13.2597 16.3585 13.1969 16.3948 13.1341 16.431C13.0553 16.4765 12.9764 16.522 12.8976 16.5675C12.828 16.6076 12.7584 16.6478 12.6887 16.6878C12.6323 16.7204 12.5761 16.7532 12.52 16.7863C12.3594 16.8808 12.3594 16.8808 12.2818 16.8808C12.2637 16.2706 12.2501 15.6606 12.2418 15.0502C12.2378 14.7668 12.2324 14.4835 12.2236 14.2002C12.2158 13.953 12.2109 13.706 12.2092 13.4587C12.2082 13.3278 12.2058 13.1973 12.2002 13.0666C12.1671 12.2739 12.1671 12.2739 12.3574 12.0525C12.5416 11.9031 12.7437 11.8068 12.9635 11.7208C13.0832 11.6723 13.1876 11.6105 13.2974 11.5427C13.3656 11.5034 13.4338 11.4642 13.502 11.425C13.5794 11.3805 13.6567 11.3359 13.7341 11.2914C13.7726 11.2692 13.8112 11.2471 13.8509 11.2242C14.0797 11.0926 14.3083 10.9605 14.537 10.8286C14.7319 10.7161 14.9269 10.6037 15.122 10.4915C15.2017 10.4457 15.2813 10.3999 15.3608 10.354C15.3989 10.3322 15.4369 10.3103 15.4761 10.2877C15.7103 10.1527 15.9433 10.0159 16.1729 9.87338C16.3125 9.78784 16.3125 9.78784 16.3901 9.78784Z" fill="#4D4D4D"/>
<path d="M7.61179 9.78784C7.75206 9.84239 7.87898 9.90674 8.0097 9.98165C8.03061 9.99361 8.05151 10.0056 8.07305 10.0179C8.11714 10.0431 8.1612 10.0684 8.20523 10.0938C8.27172 10.132 8.33832 10.1701 8.40493 10.2082C8.52712 10.2782 8.64922 10.3483 8.77053 10.4199C8.79567 10.4313 8.8208 10.4427 8.84669 10.4544C8.92782 10.4949 8.98779 10.5307 9.05144 10.5955C9.09058 10.72 9.0858 10.839 9.08162 10.9687C9.08167 11.0047 9.08172 11.0408 9.08177 11.0779C9.08175 11.1929 9.07989 11.3078 9.07778 11.4228C9.07641 11.5379 9.07545 11.653 9.07529 11.7681C9.07512 11.8397 9.07422 11.9112 9.07249 11.9828C9.06829 12.168 9.06829 12.168 9.14432 12.3311C9.24079 12.3954 9.33713 12.4565 9.43796 12.5139C9.45786 12.5253 9.47776 12.5368 9.49826 12.5485C9.56135 12.5846 9.62461 12.6204 9.68787 12.6562C9.73063 12.6806 9.77338 12.705 9.81612 12.7295C10.1151 12.9154 10.1151 12.9154 10.456 12.9481C10.5766 12.8053 10.5778 12.6578 10.5793 12.4788C10.5802 12.4371 10.5802 12.4371 10.5812 12.3946C10.5831 12.3062 10.5843 12.2178 10.5855 12.1295C10.5866 12.0694 10.5878 12.0093 10.5891 11.9492C10.5921 11.8023 10.5944 11.6553 10.5964 11.5084C10.7098 11.5618 10.8217 11.6171 10.9323 11.6759C11.037 11.7307 11.1411 11.7746 11.252 11.8153C11.4376 11.8923 11.5976 11.9771 11.7201 12.1404C11.8283 12.4545 11.7957 12.8088 11.7841 13.1368C11.7802 13.2686 11.7798 13.4004 11.7791 13.5323C11.7771 13.7814 11.7719 14.0304 11.7656 14.2795C11.7585 14.5633 11.755 14.8471 11.7519 15.1309C11.7453 15.7143 11.7342 16.2975 11.7201 16.8808C11.582 16.8361 11.4614 16.7889 11.3366 16.7147C11.3039 16.6954 11.2713 16.6762 11.2377 16.6564C11.2028 16.6355 11.1679 16.6147 11.1319 16.5933C11.0559 16.5484 10.98 16.5036 10.904 16.4588C10.8452 16.4241 10.8452 16.4241 10.7852 16.3887C10.5957 16.2772 10.4051 16.1675 10.2146 16.0578C10.1379 16.0136 10.0611 15.9694 9.98442 15.9252C9.92727 15.8922 9.92727 15.8922 9.86896 15.8586C9.64075 15.7272 9.41263 15.5955 9.18452 15.4638C9.00755 15.3617 8.83054 15.2596 8.6534 15.1578C8.59084 15.1218 8.5283 15.0858 8.46576 15.0499C8.38742 15.0048 8.30906 14.9597 8.23067 14.9147C7.65772 14.5849 7.65772 14.5849 7.61179 14.493C7.60851 14.4308 7.60751 14.3683 7.60757 14.306C7.60752 14.2663 7.60747 14.2266 7.60742 14.1857C7.60755 14.142 7.60767 14.0982 7.6078 14.0531C7.6078 14.0072 7.60779 13.9613 7.60779 13.914C7.60778 13.788 7.60799 13.6619 7.60823 13.5358C7.60845 13.4041 7.60847 13.2724 7.60851 13.1407C7.60862 12.8913 7.60891 12.6418 7.60926 12.3924C7.60965 12.1084 7.60985 11.8244 7.61002 11.5405C7.61039 10.9563 7.61101 10.3721 7.61179 9.78784Z" fill="#4D4D4D"/>
<path d="M12.1062 6.97937C12.204 7.0206 12.204 7.0206 12.304 7.07827C12.341 7.09934 12.378 7.12041 12.4162 7.14212C12.4544 7.16445 12.4926 7.18679 12.5319 7.20981C12.5693 7.23119 12.6067 7.25258 12.6452 7.27462C12.7585 7.33955 12.8713 7.40515 12.984 7.47096C13.0248 7.49469 13.0655 7.51841 13.1062 7.54213C13.206 7.60028 13.3057 7.65849 13.4054 7.71676C13.3609 7.85036 13.32 7.86107 13.1992 7.92908C13.1629 7.94979 13.1265 7.9705 13.089 7.99184C13.0493 8.01404 13.0096 8.03624 12.9687 8.05911C12.9272 8.0826 12.8858 8.10613 12.8443 8.12968C12.7582 8.17865 12.6719 8.22746 12.5856 8.27617C12.3899 8.38678 12.1954 8.49957 12.0009 8.61215C11.9248 8.65605 11.8487 8.69994 11.7726 8.74383C11.735 8.76555 11.6973 8.78728 11.6585 8.80966C11.3161 9.00718 11.3161 9.00718 11.2019 9.07309C11.1263 9.11672 11.0506 9.16036 10.975 9.204C10.7987 9.30575 10.6223 9.40747 10.4459 9.50904C10.3839 9.54474 10.3219 9.58046 10.2599 9.61618C10.1824 9.66078 10.105 9.70536 10.0275 9.74991C9.99215 9.77028 9.9568 9.79065 9.92038 9.81163C9.86946 9.8407 9.86946 9.8407 9.81751 9.87035C9.75114 9.90959 9.68582 9.95064 9.62164 9.99335C9.59131 10.0133 9.56099 10.0333 9.52974 10.0539C9.5034 10.072 9.47706 10.0902 9.44991 10.1089C9.33036 10.1533 9.27157 10.12 9.15666 10.0694C9.0864 10.0329 9.0171 9.99456 8.94872 9.95469C8.9098 9.9321 8.87087 9.90952 8.83077 9.88625C8.79016 9.86243 8.74956 9.83861 8.70897 9.81479C8.66931 9.79175 8.62966 9.76871 8.58881 9.74497C8.35559 9.6092 8.12357 9.47151 7.89258 9.33198C7.97684 9.23873 8.0669 9.18169 8.17582 9.11965C8.21196 9.09894 8.2481 9.07823 8.28534 9.0569C8.34404 9.0236 8.34404 9.0236 8.40392 8.98962C8.44505 8.96611 8.48618 8.94259 8.52729 8.91905C8.61274 8.87015 8.69822 8.82133 8.78374 8.77256C8.97869 8.6613 9.17298 8.54888 9.36734 8.43658C9.44342 8.39269 9.5195 8.34879 9.59558 8.30491C9.63324 8.28318 9.6709 8.26145 9.7097 8.23907C9.82382 8.17323 9.93794 8.10739 10.0521 8.04156C10.0898 8.0198 10.1275 7.99804 10.1663 7.97562C10.2419 7.93205 10.3174 7.88847 10.3929 7.84489C10.5703 7.74257 10.7477 7.64023 10.925 7.53788C10.9879 7.50163 11.0507 7.46538 11.1135 7.42913C11.1923 7.38364 11.2711 7.33815 11.3499 7.29265C11.4197 7.25241 11.4895 7.21229 11.5594 7.17231C11.6143 7.14038 11.6689 7.10772 11.7226 7.07379C11.8595 6.98839 11.946 6.96545 12.1062 6.97937Z" fill="#4D4D4D"/>
<path d="M15.0906 8.69904C15.1702 8.73918 15.2461 8.78031 15.3228 8.82537C15.3444 8.83779 15.3659 8.85021 15.3882 8.86301C15.4566 8.90249 15.5249 8.94231 15.5931 8.98215C15.6397 9.00908 15.6862 9.03598 15.7328 9.06287C15.8466 9.12861 15.9602 9.19465 16.0737 9.26086C16.0737 9.29562 16.0737 9.33038 16.0737 9.3662C16.0516 9.37852 16.0294 9.39083 16.0065 9.40353C15.5236 9.67203 15.0437 9.9449 14.567 10.2243C14.3456 10.354 14.1234 10.4824 13.9011 10.6105C13.8635 10.6322 13.8259 10.6539 13.7871 10.6762C13.7105 10.7204 13.6339 10.7645 13.5573 10.8086C13.3969 10.9011 13.2365 10.9937 13.0762 11.0863C12.998 11.1314 12.9198 11.1764 12.8416 11.2212C12.6825 11.3125 12.524 11.404 12.3682 11.5007C12.3455 11.5145 12.3229 11.5283 12.2996 11.5426C12.2433 11.5771 12.1875 11.6123 12.1317 11.6476C12.0027 11.6961 11.9516 11.6636 11.825 11.6135C11.757 11.5783 11.6899 11.5413 11.6238 11.5028C11.5869 11.4813 11.5501 11.4598 11.5121 11.4377C11.4741 11.4153 11.4362 11.3929 11.3971 11.3699C11.3587 11.3476 11.3203 11.3254 11.2808 11.3024C10.971 11.1209 10.971 11.1209 10.877 11.0165C11.0994 10.8631 11.3277 10.7263 11.5639 10.5952C11.8478 10.4361 12.1302 10.2748 12.411 10.1102C12.7178 9.93039 13.0259 9.75292 13.3349 9.57688C13.7232 9.35565 14.1098 9.13168 14.4954 8.90588C14.5405 8.87978 14.5405 8.87978 14.5864 8.85315C14.6385 8.82249 14.69 8.791 14.7409 8.75837C14.8768 8.6728 14.9376 8.6528 15.0906 8.69904Z" fill="#4D4D4D"/>
<path d="M14.2018 8.14237C14.2878 8.21068 14.2878 8.21068 14.3533 8.27844C14.388 8.3132 14.388 8.3132 14.4235 8.34867C14.1192 8.53848 13.8117 8.72058 13.4996 8.89731C13.4126 8.94673 13.3257 8.99621 13.2388 9.04572C13.2064 9.0642 13.2064 9.0642 13.1733 9.08306C12.9688 9.19966 12.7655 9.31821 12.5625 9.43718C12.2593 9.61474 11.9548 9.78992 11.6495 9.96388C11.3284 10.147 11.0078 10.331 10.6883 10.5169C10.6537 10.537 10.619 10.5571 10.5834 10.5778C10.4937 10.6302 10.4043 10.683 10.3152 10.7364C10.2926 10.7499 10.2699 10.7635 10.2466 10.7775C10.1447 10.8414 10.1087 10.8642 10.0694 10.9822C10.064 11.078 10.0604 11.1731 10.0583 11.269C10.0576 11.2969 10.0568 11.3248 10.0561 11.3536C10.0538 11.4426 10.0517 11.5317 10.0497 11.6208C10.0481 11.6812 10.0466 11.7416 10.0451 11.8021C10.0413 11.9501 10.0378 12.0982 10.0343 12.2463C9.96476 12.212 9.89528 12.1776 9.82582 12.1431C9.78712 12.124 9.74842 12.1048 9.70854 12.0851C9.61294 12.0356 9.61294 12.0356 9.57783 12.0005C9.57471 11.8966 9.57378 11.7936 9.5744 11.6898C9.57445 11.6587 9.5745 11.6275 9.57455 11.5955C9.57475 11.4956 9.57519 11.3958 9.57563 11.296C9.57581 11.2285 9.57597 11.161 9.57611 11.0935C9.5765 10.9276 9.57711 10.7618 9.57783 10.5959C10.2625 10.2009 10.9473 9.80587 11.632 9.41085C11.6696 9.38911 11.7073 9.36738 11.7461 9.34498C11.8221 9.30118 11.898 9.25737 11.9739 9.21357C12.2054 9.08006 12.4368 8.94655 12.6681 8.81278C12.7447 8.76859 12.8215 8.7246 12.8985 8.68085C13.0813 8.57659 13.261 8.47003 13.4373 8.35498C13.9652 8.01701 13.9652 8.01701 14.2018 8.14237Z" fill="#4D4D4D"/>
</svg>
