<svg width="22" height="22" viewBox="0 0 22 22" fill="none" xmlns="http://www.w3.org/2000/svg">
<path d="M10.75 0.75C16.2737 0.75 20.75 5.22778 20.75 10.75C20.75 16.2722 16.2737 20.75 10.75 20.75" stroke="#4D4D4D" stroke-width="1.5" stroke-linecap="round" stroke-linejoin="round"/>
<path d="M7.75 20.25C6.56163 19.8453 5.44532 19.2607 4.47302 18.4962M4.47302 3.00385C5.44532 2.25059 6.56163 1.65473 7.75 1.25M0.75 8.99612C0.966066 7.83813 1.41019 6.71386 2.04638 5.69078M0.75 12.5039C0.966066 13.6619 1.41019 14.7861 2.04638 15.8092" stroke="#4D4D4D" stroke-width="1.5" stroke-linecap="round" stroke-linejoin="round"/>
<path d="M6.75 15.25C8.82262 13.052 12.6551 12.9486 14.75 15.25M12.9679 8.5C12.9679 9.74264 11.9715 10.75 10.7425 10.75C9.51342 10.75 8.51708 9.74264 8.51708 8.5C8.51708 7.25736 9.51342 6.25 10.7425 6.25C11.9715 6.25 12.9679 7.25736 12.9679 8.5Z" stroke="#4D4D4D" stroke-width="1.5" stroke-linecap="round"/>
</svg>
