<svg width="18" height="18" viewBox="0 0 18 18" fill="none" xmlns="http://www.w3.org/2000/svg">
<g clip-path="url(#clip0_2574_5956)">
<path d="M3.89454 16.7082C3.70388 16.7082 3.51458 16.6488 3.35302 16.532C3.20607 16.4256 3.09364 16.2784 3.0297 16.1086C2.96575 15.9389 2.95313 15.754 2.99339 15.5772L4.11279 10.6463L0.316506 7.31709C0.179972 7.19796 0.0814797 7.04131 0.0332836 6.86664C-0.0149125 6.69196 -0.0106853 6.50697 0.0454393 6.33468C0.101219 6.16249 0.206313 6.01045 0.34769 5.89741C0.489067 5.78438 0.660509 5.71533 0.840762 5.69882L5.86368 5.24277L7.84961 0.595393C7.99598 0.253943 8.32944 0.0334473 8.69998 0.0334473C9.07052 0.0334473 9.40399 0.253943 9.55043 0.594611L11.5363 5.24277L16.5584 5.69875C16.9283 5.73206 17.24 5.98232 17.3545 6.33465C17.4691 6.68701 17.3632 7.07345 17.0841 7.31706L13.2879 10.6456L14.4073 15.5764C14.4893 15.9389 14.3486 16.3139 14.0478 16.5313C13.7476 16.7487 13.3473 16.7655 13.0313 16.5755L8.69998 13.9872L4.36874 16.577C4.22229 16.6639 4.05913 16.7082 3.89454 16.7082ZM8.69998 12.8722C8.86461 12.8722 9.0276 12.9164 9.17418 13.0033L13.2619 15.4482L12.2054 10.7942C12.1684 10.6315 12.1761 10.4619 12.2277 10.3032C12.2792 10.1446 12.3728 10.0028 12.4983 9.89301L16.0829 6.74937L11.3405 6.31874C11.1736 6.3038 11.0139 6.24375 10.8785 6.14501C10.7431 6.04627 10.6372 5.91257 10.572 5.75823L8.69998 1.37257L6.82577 5.75887C6.6938 6.07137 6.40013 6.28605 6.0595 6.31725L1.31642 6.74791L4.90084 9.89154C5.15757 10.1163 5.26985 10.4615 5.19379 10.7935L4.13814 15.4473L8.22579 13.0033C8.37223 12.9164 8.53539 12.8722 8.69998 12.8722ZM5.82531 5.33263C5.82531 5.33263 5.82531 5.33341 5.82453 5.33409L5.82531 5.33263ZM11.5732 5.33049L11.574 5.33195C11.574 5.33117 11.574 5.33117 11.5732 5.33049H11.5732Z" fill="white"/>
</g>
<defs>
<clipPath id="clip0_2574_5956">
<rect width="17.4" height="17.4" fill="white"/>
</clipPath>
</defs>
</svg>
