<svg width="19" height="18" viewBox="0 0 19 18" fill="none" xmlns="http://www.w3.org/2000/svg">
<path d="M3.42829 11.5303C2.31044 12.1855 -0.620471 13.5234 1.16465 15.1975C2.03667 16.0153 3.00788 16.6002 4.22892 16.6002H11.1964C12.4175 16.6002 13.3887 16.0153 14.2607 15.1975C16.0458 13.5234 13.1149 12.1855 11.9971 11.5303C9.37574 9.99382 6.04961 9.99382 3.42829 11.5303Z" stroke="#EA5C5C" stroke-width="1.2" stroke-linecap="round" stroke-linejoin="round"/>
<path d="M11.2713 4.15565C11.2713 6.11933 9.67939 7.71121 7.71571 7.71121C5.75203 7.71121 4.16016 6.11933 4.16016 4.15565C4.16016 2.19197 5.75203 0.600098 7.71571 0.600098C9.67939 0.600098 11.2713 2.19197 11.2713 4.15565Z" stroke="#EA5C5C" stroke-width="1.2"/>
<path d="M18.3819 1.93335L16.1597 4.15557M16.1597 4.15557L13.9375 6.37779M16.1597 4.15557L18.3819 6.37779M16.1597 4.15557L13.9375 1.93335" stroke="#EA5C5C" stroke-width="1.2" stroke-linecap="round" stroke-linejoin="round"/>
</svg>
