<svg width="24" height="24" viewBox="0 0 24 24" fill="none" xmlns="http://www.w3.org/2000/svg">
<path d="M17.5468 14.8881C20.6195 10.9918 19.7895 7.12729 17.582 5.77323C15.4963 4.49384 13.6759 5.00942 12.5823 5.83068L11.7776 6.43234M17.5468 14.8881C16.8093 15.8233 15.8469 16.7603 14.6248 17.6648C13.4222 18.5549 12.8209 19 11.7778 19C10.7346 19 10.1333 18.5549 8.93075 17.6648C2.61689 12.9916 3.23628 7.45228 5.97356 5.77323C8.05929 4.49384 9.8797 5.00942 10.9733 5.83068L11.7776 6.43234M17.5468 14.8881L13.2494 10.0126C13.0735 9.81305 12.779 9.77008 12.5534 9.91108L10.8531 10.9738C10.2547 11.3477 9.47815 11.2636 8.97381 10.7701C8.30762 10.1183 8.37483 9.02709 9.11599 8.46193L11.7776 6.43234" stroke="#606060" stroke-width="1.16667" stroke-linecap="round" stroke-linejoin="round"/>
</svg>
