<svg width="24" height="24" viewBox="0 0 24 24" fill="none" xmlns="http://www.w3.org/2000/svg">
<g clip-path="url(#clip0_1398_3574)">
<path d="M17.1708 3.73742C17.2203 3.73702 17.2698 3.73662 17.3207 3.73621C17.3745 3.73625 17.4283 3.73629 17.4837 3.73634C17.5408 3.73602 17.5978 3.73571 17.6566 3.73538C17.8127 3.73465 17.9688 3.73434 18.125 3.73428C18.2226 3.73421 18.3203 3.73401 18.418 3.73376C18.7591 3.73289 19.1003 3.73251 19.4414 3.73258C19.7588 3.73264 20.0761 3.73165 20.3935 3.73017C20.6665 3.72894 20.9395 3.72844 21.2124 3.7285C21.3752 3.72853 21.5381 3.72826 21.7009 3.72727C21.8826 3.72618 22.0644 3.72662 22.2461 3.72718C22.2996 3.72666 22.3532 3.72613 22.4083 3.72559C22.773 3.72846 23.0254 3.78253 23.3073 4.02956C23.3325 4.06007 23.3578 4.09059 23.3838 4.12203C23.4098 4.15242 23.4358 4.18281 23.4625 4.21413C23.5922 4.40238 23.6357 4.56967 23.6366 4.79672C23.6372 4.87093 23.6372 4.87093 23.6378 4.94664C23.6377 5.00044 23.6377 5.05424 23.6377 5.10966C23.638 5.1667 23.6383 5.22374 23.6386 5.28251C23.6393 5.43864 23.6397 5.59476 23.6397 5.75089C23.6398 5.84857 23.64 5.94624 23.6402 6.04392C23.6411 6.38506 23.6415 6.72619 23.6414 7.06734C23.6414 7.3847 23.6423 7.70206 23.6438 8.01942C23.6451 8.2924 23.6456 8.56537 23.6455 8.83835C23.6455 9.00117 23.6457 9.16397 23.6467 9.32678C23.6478 9.50855 23.6474 9.69029 23.6468 9.87205C23.6473 9.92556 23.6479 9.97908 23.6484 10.0342C23.6455 10.3989 23.5915 10.6513 23.3444 10.9332C23.3139 10.9584 23.2834 10.9837 23.252 11.0097C23.2216 11.0357 23.1912 11.0617 23.1599 11.0885C22.963 11.2241 22.7925 11.2617 22.5553 11.2606C22.5018 11.2606 22.4483 11.2606 22.3932 11.2606C22.336 11.2601 22.2788 11.2596 22.2198 11.2591C22.1608 11.259 22.1019 11.2588 22.0411 11.2587C21.8849 11.2583 21.7287 11.2574 21.5725 11.2564C21.4129 11.2554 21.2532 11.255 21.0936 11.2545C20.7808 11.2535 20.4681 11.2519 20.1553 11.25C20.1705 11.2853 20.1856 11.3206 20.2013 11.3569C20.3124 11.6535 20.2969 12.0929 20.1992 12.3955C20.0437 12.7266 19.7911 12.9765 19.4565 13.1228C19.2927 13.1782 19.1404 13.201 18.9686 13.2212C18.936 13.225 18.9033 13.2288 18.8696 13.2328C18.5095 13.2738 18.1485 13.3008 17.787 13.326C17.7156 13.3311 17.6443 13.3362 17.5729 13.3414C17.4249 13.352 17.2768 13.3624 17.1288 13.3728C16.9403 13.386 16.7519 13.3995 16.5634 13.4131C16.4166 13.4237 16.2698 13.4341 16.123 13.4445C16.0535 13.4494 15.9841 13.4544 15.9146 13.4594C14.5896 13.5548 14.5896 13.5548 14.1084 13.1718C13.8567 12.9356 13.624 12.6863 13.3978 12.426C13.2575 12.2668 13.1116 12.113 12.9658 11.9589C12.7022 11.6791 12.4417 11.397 12.1865 11.1093C12.1113 11.3186 12.0639 11.523 12.0254 11.742C12.0195 11.7753 12.0136 11.8086 12.0076 11.8429C11.9952 11.9133 11.9829 11.9837 11.9707 12.0541C11.9525 12.1594 11.9338 12.2646 11.9152 12.3697C11.8382 12.8071 11.7643 13.2456 11.7178 13.6875C11.7112 13.7287 11.7046 13.77 11.6978 13.8125C11.708 13.9349 11.708 13.9349 11.8347 14.0175C11.8892 14.0498 11.9443 14.081 11.9998 14.1115C12.0295 14.1288 12.0592 14.1461 12.0899 14.1639C12.1881 14.2207 12.2869 14.2763 12.3858 14.332C12.4542 14.3714 12.5225 14.4109 12.5909 14.4505C12.6959 14.5113 12.801 14.5721 12.9062 14.6325C13.2459 14.8276 13.5809 15.03 13.9151 15.2343C14.022 15.2997 14.1289 15.365 14.2359 15.4303C14.2857 15.4607 14.3356 15.4911 14.3869 15.5225C14.5205 15.6034 14.6548 15.683 14.7896 15.762C14.8284 15.7851 14.8673 15.8081 14.9073 15.8318C14.9767 15.8728 15.0463 15.9134 15.1162 15.9534C15.4954 16.1792 15.7338 16.4925 15.8428 16.9218C15.916 17.4873 15.7038 17.9127 15.3874 18.3673C15.3612 18.4058 15.3349 18.4443 15.3079 18.4839C15.2514 18.5668 15.1947 18.6495 15.1378 18.7321C14.9844 18.9549 14.8324 19.1787 14.6803 19.4024C14.6487 19.4486 14.6172 19.4949 14.5847 19.5426C14.2097 20.0936 13.8442 20.6507 13.4789 21.2081C13.2033 21.6286 12.9271 22.0484 12.6425 22.4628C12.6207 22.4945 12.5989 22.5262 12.5764 22.5589C12.4272 22.7749 12.4272 22.7749 12.374 22.8281C12.4042 22.8283 12.4343 22.8284 12.4653 22.8286C12.7786 22.8306 13.0919 22.8338 13.4051 22.8378C13.5221 22.8391 13.639 22.8401 13.756 22.8408C13.924 22.8418 14.092 22.844 14.26 22.8464C14.3124 22.8464 14.3647 22.8465 14.4187 22.8466C14.4674 22.8475 14.5162 22.8484 14.5665 22.8494C14.6094 22.8498 14.6523 22.8502 14.6965 22.8506C14.8465 22.8823 14.9034 22.9452 14.999 23.0625C15.0239 23.1562 15.0239 23.1562 15.0225 23.25C15.023 23.2809 15.0234 23.3118 15.0239 23.3437C14.9874 23.4812 14.921 23.5357 14.8115 23.625C14.6836 23.6486 14.6836 23.6486 14.534 23.6488C14.4488 23.6496 14.4488 23.6496 14.3619 23.6504C14.2992 23.65 14.2364 23.6496 14.1736 23.6492C14.1074 23.6495 14.0411 23.6498 13.9749 23.6502C13.7952 23.6511 13.6154 23.6507 13.4357 23.6501C13.2476 23.6497 13.0595 23.6501 12.8714 23.6504C12.5555 23.6507 12.2397 23.6503 11.9238 23.6494C11.5586 23.6484 11.1934 23.6487 10.8281 23.6497C10.5146 23.6506 10.2011 23.6507 9.88753 23.6502C9.70025 23.6499 9.51298 23.6499 9.3257 23.6505C9.14963 23.6511 8.97359 23.6507 8.79752 23.6496C8.7329 23.6493 8.66827 23.6494 8.60365 23.6498C8.51546 23.6503 8.42727 23.6496 8.33908 23.6488C8.26504 23.6487 8.26504 23.6487 8.1895 23.6486C8.02941 23.619 7.974 23.5633 7.87404 23.4375C7.84913 23.3437 7.84913 23.3437 7.8506 23.25C7.85012 23.219 7.84963 23.1881 7.84913 23.1562C7.88796 23.0101 7.93821 22.965 8.06154 22.875C8.22445 22.8454 8.38629 22.8466 8.55153 22.8464C8.59912 22.8456 8.64672 22.8448 8.69575 22.844C8.84763 22.8418 8.99949 22.8408 9.15138 22.8398C9.25441 22.8385 9.35744 22.8371 9.46046 22.8356C9.7129 22.8321 9.96533 22.8297 10.2178 22.8281C10.1932 22.7815 10.1932 22.7815 10.1681 22.7339C10.1467 22.6925 10.1253 22.6512 10.1033 22.6085C10.0715 22.5474 10.0715 22.5474 10.039 22.485C9.89028 22.1486 9.91917 21.8115 10.0303 21.4687C10.119 21.2736 10.2217 21.0874 10.3262 20.9003C10.3555 20.8469 10.3849 20.7934 10.4151 20.7383C10.6518 20.3074 10.8939 19.8796 11.137 19.4523C11.3198 19.1304 11.4999 18.807 11.6797 18.4834C11.6951 18.4557 11.7105 18.428 11.7264 18.3995C11.7701 18.3209 11.8138 18.2422 11.8575 18.1635C11.8826 18.1183 11.9077 18.0731 11.9335 18.0266C11.9889 17.9249 12.0419 17.8227 12.0928 17.7187C12.0599 17.7065 12.0271 17.6942 11.9932 17.6816C11.847 17.6202 11.714 17.5472 11.5764 17.4682C11.5497 17.453 11.5231 17.4377 11.4956 17.422C11.4094 17.3726 11.3234 17.323 11.2373 17.2734C11.1782 17.2394 11.1191 17.2055 11.0599 17.1716C10.6212 16.9195 10.184 16.6647 9.74904 16.4062C9.59949 16.584 9.50787 16.7867 9.40773 16.9945C9.38849 17.034 9.36926 17.0736 9.34944 17.1143C9.28714 17.2424 9.22512 17.3707 9.1631 17.499C9.12048 17.5867 9.07785 17.6745 9.0352 17.7623C8.79027 18.2667 8.54624 18.7716 8.30754 19.279C8.25769 19.3844 8.20688 19.4892 8.15529 19.5937C8.14 19.6255 8.12471 19.6574 8.10896 19.6902C8.00852 19.8851 7.93914 19.9492 7.73341 20.0156C7.65448 20.0325 7.57497 20.0468 7.49515 20.0589C7.44824 20.0661 7.40134 20.0733 7.35301 20.0808C7.27659 20.0921 7.27659 20.0921 7.19863 20.1037C7.14456 20.1119 7.09049 20.1202 7.03478 20.1287C6.85596 20.1558 6.67707 20.1826 6.49818 20.2093C6.40512 20.2233 6.31207 20.2374 6.21902 20.2514C5.92632 20.2956 5.63357 20.3395 5.3408 20.3831C5.03983 20.4281 4.73894 20.4735 4.43809 20.5191C4.179 20.5584 3.91987 20.5974 3.66071 20.6361C3.50628 20.6592 3.35187 20.6825 3.19749 20.7059C3.02491 20.7321 2.85226 20.7578 2.67959 20.7834C2.62921 20.7911 2.57884 20.7988 2.52693 20.8068C1.98023 20.8866 1.51127 20.9202 1.0301 20.6116C0.767582 20.408 0.574988 20.1103 0.514663 19.7812C0.477885 19.3363 0.507818 18.9615 0.781631 18.5974C1.20051 18.137 1.80357 18.0803 2.38705 17.9714C2.67958 17.9159 2.97113 17.8554 3.26287 17.796C3.51808 17.7443 3.7734 17.6943 4.02961 17.6478C5.20502 17.5031 5.20502 17.5031 6.14963 16.8954C6.27263 16.6732 6.34224 16.4506 6.39185 16.2024C6.4362 16.0127 6.52363 15.852 6.6172 15.6826C6.643 15.6314 6.6688 15.5802 6.69539 15.5275C6.71309 15.4926 6.7308 15.4578 6.74904 15.4218C6.69586 15.4006 6.64269 15.3793 6.5879 15.3574C6.42091 15.2812 6.42091 15.2812 6.37404 15.1875C6.34673 14.8488 6.34673 14.8488 6.44779 14.7142C6.60295 14.5925 6.70559 14.6007 6.90138 14.6001C6.93396 14.5999 6.96655 14.5997 7.00012 14.5995C7.06883 14.5994 7.13754 14.5997 7.20625 14.6005C7.31122 14.6015 7.41604 14.6005 7.52101 14.5993C7.5879 14.5994 7.6548 14.5997 7.72169 14.6001C7.81269 14.6004 7.81269 14.6004 7.90553 14.6007C8.08541 14.6287 8.14079 14.6692 8.24904 14.8125C8.28325 14.9412 8.27472 15.0572 8.24904 15.1875C8.17872 15.3017 8.17872 15.3017 8.06154 15.375C8.00335 15.373 7.94516 15.371 7.88521 15.3689C7.78233 15.3758 7.78233 15.3758 7.68654 15.4218C7.55578 15.5875 7.47637 15.7749 7.39064 15.9668C7.3649 16.0211 7.33916 16.0755 7.31265 16.1316C7.25929 16.2446 7.20647 16.3578 7.15452 16.4715C7.05792 16.6826 6.95933 16.8928 6.85987 17.1026C6.81618 17.195 6.77299 17.2877 6.73039 17.3806C6.71087 17.4225 6.69134 17.4643 6.67122 17.5074C6.65448 17.5438 6.63773 17.5803 6.62049 17.6178C6.52638 17.7789 6.43043 17.8848 6.25386 17.9518C6.20828 17.9623 6.1627 17.9728 6.11573 17.9835C6.06343 17.9958 6.01113 18.0082 5.95725 18.0209C5.90028 18.0335 5.84331 18.0462 5.78462 18.0593C5.69478 18.0801 5.69478 18.0801 5.60313 18.1013C5.44068 18.1389 5.27804 18.1755 5.11531 18.2119C5.01527 18.2342 4.91526 18.2567 4.81526 18.2792C4.26704 18.4027 3.71835 18.524 3.16947 18.6445C2.99583 18.6826 2.82224 18.721 2.64869 18.7596C2.58374 18.774 2.51877 18.7882 2.45377 18.8024C1.881 18.8947 1.881 18.8947 1.40529 19.1835C1.3286 19.3944 1.32471 19.5625 1.41408 19.7695C1.51197 19.891 1.59394 19.9461 1.73341 20.0156C2.29642 20.0612 2.92948 19.8854 3.48427 19.8001C3.59446 19.7833 3.70465 19.7665 3.81485 19.7498C4.10318 19.706 4.39147 19.6619 4.67976 19.6178C5.14276 19.547 5.60582 19.4764 6.06889 19.406C6.2305 19.3814 6.39209 19.3566 6.55367 19.3319C6.65216 19.3168 6.75064 19.3018 6.84913 19.2868C6.89413 19.2799 6.93912 19.2729 6.98549 19.2658C7.02661 19.2595 7.06773 19.2533 7.11009 19.2469C7.14581 19.2414 7.18153 19.2359 7.21834 19.2303C7.31154 19.2187 7.31154 19.2187 7.45216 19.2187C7.45959 19.1938 7.46703 19.1688 7.47468 19.1431C7.56547 18.8536 7.68819 18.5914 7.82716 18.3222C7.87369 18.2306 7.92013 18.139 7.96651 18.0474C8.00196 17.9774 8.00196 17.9774 8.03812 17.9059C8.1494 17.6837 8.2565 17.4597 8.36329 17.2353C8.38421 17.1916 8.40512 17.1479 8.42667 17.1029C8.54402 16.8574 8.65944 16.6111 8.77327 16.3639C8.79823 16.3104 8.82319 16.2568 8.8489 16.2016C8.89722 16.098 8.945 15.994 8.99216 15.8898C9.01413 15.8429 9.0361 15.7961 9.05873 15.7478C9.07779 15.7063 9.09684 15.6648 9.11648 15.622C9.20177 15.4924 9.28163 15.4411 9.42091 15.375C9.7603 15.3633 10.0266 15.5661 10.3086 15.7353C10.3626 15.7671 10.4165 15.7989 10.4706 15.8306C10.5818 15.8961 10.6928 15.9618 10.8037 16.0277C11.0067 16.1482 11.2108 16.2668 11.4149 16.3853C11.5543 16.4664 11.6936 16.5478 11.8328 16.6292C12 16.7271 12.1675 16.8245 12.3352 16.9215C12.4077 16.9636 12.4802 17.0057 12.5527 17.0478C12.6015 17.0758 12.6015 17.0758 12.6513 17.1044C13.0045 17.3103 13.0045 17.3103 13.0717 17.5197C13.0786 17.7104 13.0195 17.834 12.9307 17.997C12.9139 18.0291 12.8971 18.0612 12.8799 18.0943C12.6816 18.4695 12.47 18.8377 12.2598 19.2063C11.9942 19.6723 11.7347 20.1417 11.4753 20.6111C11.3912 20.7627 11.3066 20.914 11.2218 21.0651C11.1703 21.1577 11.1188 21.2502 11.0674 21.3427C11.0437 21.3847 11.02 21.4266 10.9955 21.4698C10.8844 21.6709 10.7902 21.8434 10.7803 22.0781C10.8392 22.2449 10.8917 22.3357 11.0293 22.4472C11.182 22.5111 11.2723 22.5234 11.4365 22.5C11.705 22.3576 11.8342 22.1668 11.9948 21.9138C12.0209 21.8738 12.047 21.8337 12.0739 21.7924C12.1303 21.7058 12.1864 21.6189 12.2424 21.5319C12.3925 21.2983 12.5445 21.0659 12.6961 20.8333C12.7274 20.7853 12.7586 20.7372 12.7908 20.6877C13.1519 20.1333 13.5228 19.5858 13.8942 19.0383C14.1764 18.6223 14.4574 18.2057 14.7306 17.7837C14.7524 17.7501 14.7742 17.7164 14.7966 17.6817C14.9665 17.4305 14.9665 17.4305 14.9961 17.1416C14.9946 17.106 14.9931 17.0704 14.9915 17.0337C14.9018 16.7788 14.583 16.6274 14.3615 16.4978C14.3321 16.4805 14.3028 16.4632 14.2726 16.4454C14.2096 16.4084 14.1467 16.3715 14.0836 16.3347C13.9151 16.2362 13.747 16.137 13.5789 16.0378C13.5447 16.0177 13.5105 15.9975 13.4752 15.9767C12.981 15.6854 12.4918 15.3861 12.0022 15.0872C11.8672 15.0053 11.7317 14.9244 11.5958 14.844C11.5566 14.8205 11.5173 14.7971 11.4768 14.7729C11.4062 14.7308 11.3353 14.689 11.2643 14.6477C11.2336 14.6293 11.203 14.6109 11.1714 14.592C11.1454 14.5767 11.1194 14.5614 11.0926 14.5456C10.9796 14.4567 10.9052 14.3712 10.8272 14.25C10.8147 14.1031 10.8147 14.1031 10.831 13.9368C10.8338 13.9064 10.8367 13.8759 10.8396 13.8446C10.878 13.4602 10.9383 13.0784 11 12.6972C11.0091 12.6398 11.0091 12.6398 11.0184 12.5811C11.1123 11.9898 11.2223 11.4036 11.3549 10.8197C11.3663 10.7683 11.3777 10.7168 11.3895 10.6638C11.4048 10.5973 11.4048 10.5973 11.4205 10.5293C11.438 10.3946 11.4287 10.3016 11.3897 10.1718C11.2859 10.0388 11.2859 10.0388 11.1582 9.91109C10.8832 9.62581 10.8832 9.62581 10.8272 9.46871C10.8355 9.31002 10.8437 9.18842 10.9297 9.05269C11.055 8.97493 11.1485 8.95886 11.2959 8.95308C11.5045 9.03901 11.6337 9.13678 11.7793 9.30757C11.8332 9.36984 11.8332 9.36984 11.8883 9.43337C11.9431 9.49727 11.9431 9.49727 11.999 9.56246C12.0711 9.64272 12.1434 9.7228 12.2158 9.80269C12.339 9.93947 12.4613 10.0769 12.582 10.2158C12.7138 10.3671 12.8482 10.5158 12.9834 10.664C13.1454 10.8416 13.3052 11.0208 13.463 11.2022C13.6659 11.4338 13.8735 11.6614 14.0802 11.8897C14.1166 11.93 14.153 11.9702 14.1904 12.0117C14.2253 12.0502 14.2602 12.0887 14.2961 12.1283C14.3729 12.2153 14.4447 12.3037 14.5156 12.3955C14.6539 12.5487 14.7872 12.6455 14.999 12.6647C15.1128 12.6635 15.2252 12.6569 15.3387 12.6485C15.4049 12.6446 15.4049 12.6446 15.4725 12.6405C15.6272 12.631 15.7819 12.6202 15.9365 12.6093C16.0279 12.6034 16.1193 12.5974 16.2107 12.5915C16.5817 12.5673 16.9525 12.5408 17.3233 12.5134C17.5002 12.5003 17.6773 12.488 17.8543 12.4758C17.9923 12.4661 18.1301 12.4559 18.268 12.4456C18.3334 12.4408 18.3987 12.4362 18.4641 12.4318C18.5548 12.4257 18.6454 12.4187 18.736 12.4117C18.7874 12.408 18.8387 12.4043 18.8916 12.4004C19.0811 12.3656 19.2075 12.2856 19.3496 12.1582C19.4373 11.9829 19.4354 11.8167 19.4053 11.625C19.313 11.4514 19.2535 11.403 19.068 11.3384C18.8875 11.2963 18.7321 11.2853 18.5471 11.2856C18.4983 11.2855 18.4983 11.2855 18.4485 11.2853C18.3785 11.2852 18.3085 11.2852 18.2385 11.2854C18.1276 11.2857 18.0166 11.2852 17.9056 11.2846C17.5904 11.2829 17.2751 11.282 16.9598 11.2825C16.7664 11.2828 16.5731 11.2819 16.3797 11.2804C16.3063 11.28 16.2328 11.28 16.1594 11.2806C16.0566 11.2812 15.954 11.2805 15.8512 11.2794C15.7929 11.2793 15.7345 11.2793 15.6744 11.2793C15.4126 11.2312 15.2595 11.0591 15.0928 10.8574C14.9284 10.6645 14.7564 10.4796 14.583 10.2949C14.3996 10.0992 14.2168 9.90318 14.0381 9.70308C13.8334 9.47389 13.6236 9.24957 13.413 9.02571C13.2522 8.85426 13.096 8.67996 12.9424 8.50191C12.5585 8.08022 12.1738 8.00159 11.624 7.92183C11.5708 7.9139 11.5176 7.90597 11.4628 7.8978C11.2822 7.87107 11.1016 7.84502 10.9209 7.81929C10.8622 7.81089 10.8035 7.80249 10.743 7.79383C10.0816 7.69977 10.0816 7.69977 9.46779 7.92183C9.34777 8.02684 9.25762 8.10778 9.18654 8.24996C9.21747 8.27316 9.24841 8.29636 9.28029 8.32027C9.39476 8.46336 9.39617 8.54147 9.39894 8.71871C9.36157 8.85938 9.30119 8.9107 9.18654 8.99996C9.05933 9.01846 8.95111 9.02563 8.82399 9.02422C8.78769 9.02455 8.75138 9.02487 8.71398 9.02521C8.59414 9.02604 8.47435 9.02549 8.35451 9.02486C8.27115 9.02498 8.18779 9.02517 8.10443 9.0254C7.92979 9.02568 7.75516 9.02528 7.58052 9.0244C7.35668 9.02333 7.13288 9.02395 6.90904 9.02507C6.73693 9.02575 6.56482 9.02553 6.39271 9.02505C6.31018 9.02492 6.22765 9.02507 6.14512 9.02551C6.02975 9.02599 5.91445 9.02526 5.79909 9.02422C5.74794 9.02479 5.74794 9.02479 5.69576 9.02537C5.53434 9.02266 5.45076 9.01103 5.32168 8.91055C5.24286 8.80412 5.22356 8.75572 5.2256 8.62496C5.22487 8.57855 5.22487 8.57855 5.22413 8.53121C5.26072 8.39347 5.32664 8.33915 5.43654 8.24996C5.56764 8.22741 5.56764 8.22741 5.7203 8.22867C5.77754 8.22868 5.83477 8.2287 5.89374 8.22871C5.95531 8.22968 6.01689 8.23065 6.08034 8.23165C6.14418 8.232 6.20802 8.23226 6.27186 8.23245C6.43955 8.23316 6.60722 8.235 6.77491 8.23708C6.94615 8.239 7.1174 8.23986 7.28865 8.2408C7.62442 8.24281 7.96016 8.24601 8.29591 8.24996C8.30259 8.20575 8.30927 8.16154 8.31614 8.11599C8.38928 7.71166 8.73046 7.40922 9.04591 7.17183C9.59528 6.81716 10.2088 6.86568 10.8297 6.95247C10.8777 6.95909 10.9256 6.9657 10.975 6.97252C11.0758 6.9866 11.1766 7.00087 11.2773 7.01532C11.4298 7.03694 11.5825 7.05716 11.7352 7.07735C12.5594 7.19169 13.1283 7.39303 13.6772 8.0381C13.8134 8.19418 13.955 8.34496 14.0967 8.49605C14.384 8.80273 14.6687 9.11162 14.9522 9.42183C14.996 9.46964 15.0399 9.51743 15.0838 9.5652C15.1057 9.58901 15.1275 9.61282 15.15 9.63736C15.1934 9.68457 15.2369 9.73171 15.2804 9.77878C15.3847 9.8919 15.4864 10.0063 15.5857 10.1239C15.6222 10.1668 15.6587 10.2097 15.6963 10.2539C15.7281 10.2923 15.7599 10.3307 15.7926 10.3703C15.9132 10.4732 15.9703 10.4602 16.124 10.4531C16.1239 10.423 16.1237 10.3929 16.1235 10.3619C16.1194 9.62868 16.1163 8.89548 16.1143 8.16227C16.1134 7.80769 16.112 7.45312 16.1099 7.09854C16.108 6.78939 16.1068 6.48025 16.1064 6.17109C16.1062 6.00748 16.1056 5.84389 16.1042 5.68029C16.1027 5.49739 16.1027 5.31449 16.1028 5.13158C16.1021 5.0777 16.1014 5.02382 16.1007 4.96831C16.1026 4.60205 16.1555 4.34984 16.4036 4.06673C16.4342 4.04147 16.4647 4.01621 16.4961 3.99019C16.5265 3.96421 16.5569 3.93823 16.5882 3.91146C16.7765 3.78175 16.9438 3.73825 17.1708 3.73742ZM16.9678 4.64058C16.835 4.86857 16.8605 5.12355 16.8612 5.37903C16.8609 5.42982 16.8607 5.48061 16.8604 5.53294C16.8598 5.70076 16.8598 5.86857 16.8599 6.03639C16.8598 6.15309 16.8596 6.26979 16.8593 6.38649C16.859 6.63107 16.859 6.87565 16.8592 7.12023C16.8595 7.37135 16.8592 7.62246 16.8583 7.87357C16.8572 8.17686 16.8569 8.48015 16.857 8.78344C16.857 8.899 16.8568 9.01455 16.8563 9.13011C16.8557 9.29168 16.856 9.45324 16.8566 9.61481C16.8562 9.66252 16.8559 9.71024 16.8555 9.75939C16.8573 10.0064 16.8633 10.1994 17.0147 10.4062C17.2267 10.5491 17.5067 10.5134 17.7531 10.5128C17.8039 10.5131 17.8547 10.5133 17.907 10.5136C18.0748 10.5142 18.2427 10.5142 18.4105 10.5141C18.5272 10.5142 18.6439 10.5144 18.7606 10.5147C19.0051 10.515 19.2497 10.515 19.4943 10.5148C19.7454 10.5145 19.9965 10.5148 20.2477 10.5157C20.5509 10.5168 20.8542 10.5171 21.1575 10.5169C21.2731 10.517 21.3886 10.5172 21.5042 10.5177C21.6658 10.5183 21.8273 10.518 21.9889 10.5174C22.0366 10.5178 22.0843 10.5181 22.1335 10.5185C22.3805 10.5167 22.5735 10.5107 22.7803 10.3593C22.9232 10.1472 22.8875 9.86728 22.8869 9.62088C22.8872 9.57009 22.8874 9.5193 22.8876 9.46697C22.8883 9.29915 22.8882 9.13134 22.8881 8.96352C22.8883 8.84682 22.8885 8.73012 22.8887 8.61343C22.8891 8.36884 22.8891 8.12426 22.8888 7.87968C22.8886 7.62857 22.8889 7.37746 22.8898 7.12634C22.8908 6.82305 22.8912 6.51976 22.891 6.21647C22.8911 6.10092 22.8913 5.98536 22.8918 5.86981C22.8923 5.70823 22.892 5.54668 22.8915 5.3851C22.8918 5.33739 22.8922 5.28968 22.8926 5.24052C22.8907 4.99351 22.8847 4.80048 22.7334 4.59371C22.5669 4.49625 22.4205 4.48876 22.2301 4.4908C22.1801 4.4911 22.1301 4.49141 22.0785 4.49172C22.0268 4.4925 21.9751 4.49329 21.9219 4.4941C21.8693 4.49452 21.8167 4.49494 21.7625 4.49538C21.633 4.49648 21.5035 4.49802 21.374 4.49996C21.3736 4.55234 21.3736 4.55234 21.3732 4.60578C21.3705 4.93479 21.3671 5.26379 21.363 5.59278C21.3609 5.76193 21.3591 5.93107 21.3578 6.10022C21.3566 6.26344 21.3547 6.42664 21.3523 6.58985C21.3512 6.68247 21.3507 6.77509 21.3502 6.86771C21.3493 6.92401 21.3484 6.98031 21.3474 7.03831C21.3469 7.08796 21.3464 7.13762 21.3459 7.18877C21.3272 7.31246 21.3272 7.31246 21.2664 7.39807C21.1538 7.47567 21.0475 7.48391 20.913 7.4778C20.7071 7.42764 20.5803 7.27252 20.4365 7.12496C20.3905 7.07935 20.3444 7.03382 20.2983 6.98836C20.1715 6.863 20.046 6.73645 19.9209 6.60933C19.774 6.6743 19.6763 6.74952 19.5646 6.8644C19.5339 6.89561 19.5032 6.92682 19.4716 6.95897C19.4243 7.00778 19.4243 7.00778 19.376 7.05757C19.313 7.12219 19.2499 7.18671 19.1867 7.25112C19.145 7.29404 19.145 7.29404 19.1025 7.33783C18.9639 7.46908 18.8402 7.4615 18.654 7.46846C18.53 7.44783 18.4968 7.41224 18.4209 7.31246C18.4022 7.18877 18.4022 7.18877 18.4006 7.03831C18.3997 6.98202 18.3988 6.92572 18.3978 6.86771C18.3975 6.80692 18.3972 6.74613 18.3969 6.68349C18.3961 6.62063 18.3953 6.55778 18.3944 6.49492C18.3921 6.32963 18.3908 6.16434 18.3895 5.99903C18.3881 5.8303 18.3859 5.66157 18.3838 5.49285C18.3798 5.16189 18.3766 4.83093 18.374 4.49996C18.1924 4.49585 18.0108 4.49337 17.8291 4.49117C17.7778 4.48999 17.7265 4.48881 17.6737 4.4876C17.2981 4.47912 17.2981 4.47912 16.9678 4.64058ZM19.124 4.49996C19.124 5.04136 19.124 5.58277 19.124 6.14058C19.3495 5.94893 19.3495 5.94893 19.5664 5.748C19.6997 5.66348 19.8036 5.63681 19.9621 5.644C20.1266 5.69004 20.2298 5.79656 20.3494 5.91445C20.4481 6.0151 20.4481 6.0151 20.624 6.14058C20.624 5.59917 20.624 5.05777 20.624 4.49996C20.129 4.49996 19.634 4.49996 19.124 4.49996Z" fill="#4D4D4D"/>
<path d="M13.4071 0.515623C13.4352 0.527474 13.4633 0.539324 13.4923 0.551534C14.2121 0.861618 14.7451 1.31003 15.0991 2.02329C15.1158 2.05699 15.1326 2.09069 15.1499 2.1254C15.1626 2.15105 15.1753 2.1767 15.1883 2.20312C15.2161 2.20329 15.2439 2.20346 15.2725 2.20364C15.5615 2.2056 15.8504 2.20885 16.1393 2.21285C16.2472 2.21417 16.355 2.21517 16.4629 2.21583C16.6179 2.21683 16.7728 2.21901 16.9278 2.22143C16.9761 2.22149 17.0243 2.22155 17.074 2.22161C17.4086 2.22847 17.4086 2.22847 17.5624 2.33967C17.6309 2.44523 17.6512 2.50017 17.6493 2.625C17.65 2.6714 17.65 2.6714 17.6507 2.71875C17.6121 2.86414 17.5606 2.91042 17.4383 3C17.2818 3.02653 17.1272 3.02178 16.9689 3.01831C16.9233 3.01804 16.8778 3.01778 16.8309 3.0175C16.6857 3.01646 16.5406 3.0141 16.3954 3.01172C16.2969 3.01078 16.1983 3.00992 16.0998 3.00915C15.8585 3.00709 15.6172 3.00385 15.3758 3C15.3762 3.02668 15.3766 3.05336 15.377 3.08085C15.3786 3.20331 15.3796 3.32577 15.3806 3.44824C15.3812 3.49021 15.3819 3.53217 15.3825 3.57541C15.3847 3.93266 15.3286 4.21571 15.1883 4.54687C15.1695 4.59382 15.1508 4.64077 15.1314 4.68915C14.8083 5.41499 14.181 5.93773 13.454 6.23437C13.1004 6.35473 12.7746 6.39809 12.4022 6.39258C12.3548 6.39203 12.3075 6.39149 12.2586 6.39093C11.4356 6.37287 10.7347 6.05967 10.1535 5.4776C9.48034 4.73541 9.32828 3.90444 9.36689 2.9377C9.38586 2.67223 9.45426 2.44432 9.56334 2.20312C9.59669 2.1278 9.59669 2.1278 9.63072 2.05096C10.0071 1.28274 10.6335 0.758354 11.4383 0.468748C12.0354 0.295225 12.8306 0.267494 13.4071 0.515623ZM10.8758 1.73437C10.6207 1.95928 10.6207 1.95928 10.5008 2.25C11.7383 2.25 12.9758 2.25 14.2508 2.25C14.0731 1.80577 13.6916 1.51623 13.2665 1.3125C12.4321 0.980579 11.5396 1.12402 10.8758 1.73437ZM10.1727 3C10.1727 3.82122 10.2369 4.35661 10.7698 4.96856C11.1926 5.37508 11.786 5.61571 12.367 5.63965C12.9714 5.62374 13.5357 5.38247 13.9769 4.97021C14.5199 4.37199 14.579 3.80902 14.579 3C13.1249 3 11.6708 3 10.1727 3Z" fill="#4D4D4D"/>
<path d="M1.43726 10.4757C1.48819 10.4754 1.53912 10.4751 1.5916 10.4747C1.76013 10.4739 1.92863 10.4745 2.09717 10.4751C2.21416 10.475 2.33115 10.4748 2.44814 10.4745C2.69339 10.4743 2.93864 10.4747 3.1839 10.4755C3.46732 10.4766 3.75072 10.4762 4.03414 10.4752C4.30696 10.4743 4.57976 10.4744 4.85257 10.4749C4.96859 10.475 5.08462 10.4749 5.20064 10.4744C5.3627 10.474 5.52471 10.4747 5.68677 10.4757C5.73489 10.4754 5.78301 10.475 5.83259 10.4746C6.15729 10.4785 6.15729 10.4785 6.31047 10.5894C6.37952 10.6952 6.39991 10.7497 6.39795 10.875C6.39867 10.9214 6.39867 10.9214 6.39941 10.9687C6.36044 11.1155 6.3113 11.16 6.18701 11.25C6.02061 11.2789 5.8553 11.2756 5.68677 11.2743C5.63584 11.2746 5.5849 11.2749 5.53243 11.2753C5.36389 11.2761 5.19539 11.2755 5.02686 11.2749C4.90987 11.275 4.79288 11.2752 4.67589 11.2754C4.43063 11.2757 4.18538 11.2753 3.94012 11.2744C3.6567 11.2734 3.3733 11.2737 3.08988 11.2748C2.81707 11.2757 2.54427 11.2756 2.27146 11.2751C2.15543 11.275 2.03941 11.2751 1.92338 11.2755C1.76132 11.276 1.59931 11.2753 1.43726 11.2743C1.36507 11.2748 1.36507 11.2748 1.29143 11.2754C0.966734 11.2715 0.966734 11.2715 0.813553 11.1606C0.744506 11.0548 0.724117 11.0003 0.726074 10.875C0.725349 10.8286 0.725349 10.8286 0.724609 10.7812C0.81839 10.4282 1.13913 10.4734 1.43726 10.4757Z" fill="#4D4D4D"/>
<path d="M0.993408 12.7261C1.03703 12.7257 1.08064 12.7254 1.12558 12.7251C1.26977 12.7242 1.41392 12.7248 1.55811 12.7254C1.65828 12.7253 1.75845 12.7251 1.85863 12.7249C2.06858 12.7246 2.27851 12.725 2.48846 12.7259C2.7577 12.7269 3.02691 12.7263 3.29615 12.7252C3.503 12.7245 3.70985 12.7247 3.9167 12.7252C4.01598 12.7253 4.11526 12.7252 4.21454 12.7248C4.35325 12.7243 4.49191 12.725 4.63062 12.7261C4.67172 12.7257 4.71283 12.7253 4.75519 12.7249C5.03332 12.7288 5.03332 12.7288 5.18117 12.8397C5.25511 12.9458 5.27495 12.9973 5.27295 13.1253C5.27367 13.1717 5.27367 13.1717 5.27441 13.2191C5.23628 13.3626 5.18131 13.4108 5.06201 13.5003C4.91844 13.5286 4.77656 13.5259 4.63062 13.5246C4.587 13.5249 4.54338 13.5252 4.49844 13.5256C4.35425 13.5264 4.21011 13.5258 4.06592 13.5252C3.96574 13.5253 3.86557 13.5255 3.7654 13.5258C3.55544 13.526 3.34551 13.5256 3.13556 13.5248C2.86632 13.5237 2.59712 13.5243 2.32788 13.5254C2.12102 13.5261 1.91418 13.5259 1.70732 13.5254C1.60804 13.5253 1.50876 13.5254 1.40949 13.5259C1.27077 13.5263 1.13212 13.5256 0.993408 13.5246C0.952299 13.525 0.911189 13.5253 0.868834 13.5257C0.590701 13.5218 0.590701 13.5218 0.442856 13.4109C0.368915 13.3048 0.349074 13.2533 0.351074 13.1253C0.350349 13.0789 0.350349 13.0789 0.349609 13.0316C0.43702 12.7025 0.711875 12.7235 0.993408 12.7261Z" fill="#4D4D4D"/>
<path d="M2.04956 14.6011C2.08586 14.6007 2.12216 14.6004 2.15957 14.6001C2.27941 14.5992 2.3992 14.5998 2.51904 14.6004C2.6024 14.6003 2.68576 14.6001 2.76912 14.5999C2.94376 14.5996 3.11839 14.6 3.29303 14.6009C3.51687 14.6019 3.74067 14.6013 3.96451 14.6002C4.13662 14.5995 4.30873 14.5997 4.48084 14.6002C4.56337 14.6003 4.6459 14.6002 4.72843 14.5998C4.8438 14.5993 4.9591 14.6 5.07446 14.6011C5.10856 14.6007 5.14266 14.6003 5.17779 14.5999C5.3392 14.6026 5.42279 14.6142 5.55186 14.7147C5.63069 14.8211 5.64999 14.8695 5.64795 15.0003C5.64867 15.0467 5.64867 15.0467 5.64941 15.0941C5.61205 15.2347 5.55167 15.2861 5.43701 15.3753C5.3098 15.3938 5.20158 15.401 5.07446 15.3996C5.02001 15.4001 5.02001 15.4001 4.96446 15.4006C4.84461 15.4014 4.72482 15.4009 4.60498 15.4002C4.52162 15.4003 4.43826 15.4005 4.3549 15.4008C4.18026 15.401 4.00564 15.4006 3.83099 15.3998C3.60715 15.3987 3.38335 15.3993 3.15951 15.4004C2.9874 15.4011 2.8153 15.4009 2.64318 15.4004C2.56065 15.4003 2.47812 15.4004 2.39559 15.4009C2.28022 15.4013 2.16492 15.4006 2.04956 15.3996C2.01546 15.4 1.98137 15.4003 1.94624 15.4007C1.78482 15.398 1.70124 15.3864 1.57216 15.2859C1.49334 15.1795 1.47403 15.1311 1.47607 15.0003C1.47535 14.9539 1.47535 14.9539 1.47461 14.9066C1.5527 14.6126 1.78662 14.5981 2.04956 14.6011Z" fill="#4D4D4D"/>
<path d="M1.60571 8.22542C1.66516 8.22483 1.7246 8.22424 1.78584 8.22363C1.85056 8.22397 1.91527 8.22435 1.97998 8.22478C2.04652 8.22466 2.11307 8.22447 2.17961 8.22424C2.31895 8.22396 2.45826 8.22436 2.5976 8.22524C2.77604 8.22631 2.95443 8.22569 3.13287 8.22457C3.27024 8.22389 3.4076 8.22411 3.54498 8.22459C3.61076 8.22472 3.67655 8.22457 3.74233 8.22413C3.83432 8.22365 3.92632 8.22451 4.01831 8.22542C4.07062 8.22557 4.12294 8.22572 4.17683 8.22588C4.34211 8.25499 4.39725 8.30682 4.49951 8.43719C4.52441 8.53094 4.52441 8.53094 4.52295 8.62469C4.52367 8.67109 4.52367 8.67109 4.52441 8.71844C4.48775 8.85648 4.42238 8.91043 4.31201 8.99969C4.17683 9.02349 4.17683 9.02349 4.01831 9.02395C3.95887 9.02454 3.89942 9.02513 3.83818 9.02574C3.77347 9.0254 3.70876 9.02502 3.64404 9.02459C3.5775 9.02471 3.51096 9.0249 3.44441 9.02513C3.30508 9.02541 3.16576 9.02501 3.02643 9.02413C2.84798 9.02306 2.66959 9.02368 2.49115 9.0248C2.35378 9.02548 2.21642 9.02526 2.07905 9.02478C2.01326 9.02465 1.94748 9.0248 1.88169 9.02524C1.7897 9.02572 1.6977 9.02486 1.60571 9.02395C1.5534 9.0238 1.50109 9.02365 1.44719 9.02349C1.28192 8.99438 1.22678 8.94255 1.12451 8.81219C1.09961 8.71844 1.09961 8.71844 1.10107 8.62469C1.10035 8.57828 1.10035 8.57828 1.09961 8.53094C1.16959 8.26748 1.36026 8.22612 1.60571 8.22542Z" fill="#4D4D4D"/>
<path d="M6.44629 12.7254C6.49822 12.7248 6.55016 12.7242 6.60367 12.7236C6.65953 12.724 6.71539 12.7244 6.77295 12.7248C6.8305 12.7246 6.88806 12.7244 6.94736 12.7242C7.06903 12.7241 7.19071 12.7245 7.31238 12.7252C7.49881 12.7262 7.68515 12.7253 7.87158 12.7241C7.98975 12.7242 8.10791 12.7244 8.22607 12.7248C8.28194 12.7244 8.3378 12.724 8.39536 12.7236C8.47326 12.7245 8.47326 12.7245 8.55273 12.7254C8.59839 12.7256 8.64404 12.7257 8.69107 12.7259C8.84583 12.7563 8.90181 12.816 8.99951 12.9372C9.02441 13.0309 9.02441 13.0309 9.02295 13.1247C9.02367 13.1711 9.02367 13.1711 9.02441 13.2184C8.98807 13.3553 8.92036 13.4103 8.81201 13.4997C8.69107 13.5235 8.69107 13.5235 8.55273 13.5239C8.5008 13.5245 8.44886 13.5251 8.39536 13.5257C8.33949 13.5254 8.28363 13.525 8.22607 13.5246C8.13974 13.5249 8.13974 13.5249 8.05167 13.5251C7.92999 13.5253 7.80832 13.5249 7.68665 13.5241C7.50022 13.5231 7.31387 13.5241 7.12744 13.5253C7.00928 13.5252 6.89111 13.525 6.77295 13.5246C6.71709 13.525 6.66122 13.5253 6.60367 13.5257C6.52577 13.5249 6.52577 13.5249 6.44629 13.5239C6.40064 13.5238 6.35499 13.5236 6.30795 13.5235C6.15319 13.493 6.09721 13.4333 5.99951 13.3122C5.97461 13.2184 5.97461 13.2184 5.97607 13.1247C5.97535 13.0783 5.97535 13.0783 5.97461 13.0309C6.03957 12.7864 6.21395 12.7262 6.44629 12.7254Z" fill="#4D4D4D"/>
<path d="M17.8589 9.34978C17.8998 9.3496 17.9407 9.34942 17.9828 9.34924C18.0692 9.34911 18.1556 9.34946 18.2419 9.35024C18.3741 9.35124 18.5061 9.35025 18.6382 9.34905C18.7222 9.34917 18.8062 9.34941 18.8901 9.34978C18.9296 9.3494 18.9691 9.34902 19.0097 9.34863C19.2833 9.35301 19.2833 9.35301 19.4306 9.46413C19.5052 9.57028 19.525 9.62129 19.5229 9.74969C19.5234 9.78062 19.5239 9.81156 19.5244 9.84344C19.4864 9.98658 19.4306 10.0352 19.312 10.1247C19.1715 10.1529 19.0331 10.151 18.8901 10.1496C18.8492 10.1498 18.8083 10.1499 18.7662 10.1501C18.6798 10.1503 18.5934 10.1499 18.5071 10.1491C18.375 10.1481 18.243 10.1491 18.1108 10.1503C18.0269 10.1502 17.9429 10.15 17.8589 10.1496C17.8194 10.15 17.78 10.1503 17.7393 10.1507C17.4657 10.1464 17.4657 10.1464 17.3185 10.0352C17.2438 9.92909 17.2241 9.87808 17.2261 9.74969C17.2253 9.70328 17.2253 9.70328 17.2246 9.65594C17.3109 9.33112 17.58 9.3471 17.8589 9.34978Z" fill="#4D4D4D"/>
<path d="M17.8589 8.22478C17.8998 8.2246 17.9407 8.22442 17.9828 8.22424C18.0692 8.22411 18.1556 8.22446 18.2419 8.22524C18.3741 8.22624 18.5061 8.22525 18.6382 8.22405C18.7222 8.22417 18.8062 8.22441 18.8901 8.22478C18.9296 8.2244 18.9691 8.22402 19.0097 8.22363C19.2833 8.22801 19.2833 8.22801 19.4306 8.33913C19.5052 8.44528 19.525 8.49629 19.5229 8.62469C19.5234 8.65562 19.5239 8.68656 19.5244 8.71844C19.4864 8.86158 19.4306 8.91021 19.312 8.99969C19.1715 9.02786 19.0331 9.02596 18.8901 9.02459C18.8492 9.02477 18.8083 9.02495 18.7662 9.02513C18.6798 9.02526 18.5934 9.02491 18.5071 9.02413C18.375 9.02313 18.243 9.02412 18.1108 9.02532C18.0269 9.0252 17.9429 9.02496 17.8589 9.02459C17.8194 9.02497 17.78 9.02535 17.7393 9.02574C17.4657 9.02136 17.4657 9.02136 17.3185 8.91024C17.2438 8.80409 17.2241 8.75308 17.2261 8.62469C17.2253 8.57828 17.2253 8.57828 17.2246 8.53094C17.3109 8.20612 17.58 8.2221 17.8589 8.22478Z" fill="#4D4D4D"/>
<path d="M7.65186 10.4753C7.70073 10.4751 7.70073 10.4751 7.7506 10.4748C7.81931 10.4747 7.88802 10.475 7.95673 10.4758C8.0617 10.4768 8.16652 10.4758 8.27148 10.4746C8.33838 10.4747 8.40527 10.475 8.47217 10.4753C8.56317 10.4757 8.56317 10.4757 8.65601 10.476C8.83588 10.504 8.89126 10.5444 8.99951 10.6877C9.02441 10.7815 9.02441 10.7815 9.02295 10.8752C9.02343 10.9062 9.02392 10.9371 9.02441 10.969C8.98729 11.1088 8.92519 11.161 8.81201 11.2502C8.65601 11.2745 8.65601 11.2745 8.47217 11.2751C8.43958 11.2753 8.407 11.2755 8.37343 11.2757C8.30472 11.2758 8.236 11.2755 8.1673 11.2747C8.06233 11.2737 7.95751 11.2747 7.85254 11.2759C7.78564 11.2758 7.71875 11.2755 7.65186 11.2751C7.59119 11.2749 7.53052 11.2747 7.46802 11.2745C7.28814 11.2465 7.23276 11.206 7.12451 11.0627C7.09961 10.969 7.09961 10.969 7.10107 10.8752C7.10035 10.8288 7.10035 10.8288 7.09961 10.7815C7.17558 10.4955 7.39052 10.4763 7.65186 10.4753Z" fill="#4D4D4D"/>
</g>
<defs>
<clipPath id="clip0_1398_3574">
<rect width="24" height="24" fill="white"/>
</clipPath>
</defs>
</svg>
