<svg width="24" height="24" viewBox="0 0 24 24" fill="none" xmlns="http://www.w3.org/2000/svg">
<path d="M11.2167 18.6663C10.9167 18.6663 10.6584 18.5663 10.442 18.3663C10.2255 18.1663 10.0949 17.9219 10.05 17.633L9.89999 16.533C9.75554 16.4775 9.61954 16.4108 9.49199 16.333C9.36443 16.2552 9.23932 16.1719 9.11665 16.083L8.08332 16.5163C7.80554 16.6386 7.52776 16.6497 7.24999 16.5497C6.97221 16.4497 6.75554 16.2719 6.59999 16.0163L5.81665 14.6497C5.6611 14.3941 5.61665 14.1219 5.68332 13.833C5.74999 13.5441 5.89999 13.3052 6.13332 13.1163L7.01665 12.4497C7.00554 12.3719 6.99999 12.2968 6.99999 12.2243V11.7743C6.99999 11.7023 7.00554 11.6275 7.01665 11.5497L6.13332 10.883C5.89999 10.6941 5.74999 10.4552 5.68332 10.1663C5.61665 9.87745 5.6611 9.60523 5.81665 9.34967L6.59999 7.98301C6.75554 7.72745 6.97221 7.54967 7.24999 7.44967C7.52776 7.34967 7.80554 7.36079 8.08332 7.48301L9.11665 7.91634C9.23888 7.82745 9.36665 7.74412 9.49999 7.66634C9.63332 7.58856 9.76665 7.5219 9.89999 7.46634L10.05 6.36634C10.0944 6.07745 10.2251 5.83301 10.442 5.63301C10.6589 5.43301 10.9171 5.33301 11.2167 5.33301H12.7833C13.0833 5.33301 13.3418 5.43301 13.5587 5.63301C13.7755 5.83301 13.906 6.07745 13.95 6.36634L14.1 7.46634C14.2444 7.5219 14.3807 7.58856 14.5087 7.66634C14.6367 7.74412 14.7615 7.82745 14.8833 7.91634L15.9167 7.48301C16.1944 7.36079 16.4722 7.34967 16.75 7.44967C17.0278 7.54967 17.2444 7.72745 17.4 7.98301L18.1833 9.34967C18.3389 9.60523 18.3833 9.87745 18.3167 10.1663C18.25 10.4552 18.1 10.6941 17.8667 10.883L16.9833 11.5497C16.9944 11.6275 17 11.7026 17 11.775V12.2243C17 12.2968 16.9889 12.3719 16.9667 12.4497L17.85 13.1163C18.0833 13.3052 18.2333 13.5441 18.3 13.833C18.3667 14.1219 18.3222 14.3941 18.1667 14.6497L17.3667 16.0163C17.2111 16.2719 16.9944 16.4497 16.7167 16.5497C16.4389 16.6497 16.1611 16.6386 15.8833 16.5163L14.8833 16.083C14.7611 16.1719 14.6333 16.2552 14.5 16.333C14.3667 16.4108 14.2333 16.4775 14.1 16.533L13.95 17.633C13.9055 17.9219 13.7751 18.1663 13.5587 18.3663C13.3422 18.5663 13.0838 18.6663 12.7833 18.6663H11.2167ZM11.3333 17.333H12.65L12.8833 15.5663C13.2278 15.4775 13.5473 15.347 13.842 15.175C14.1367 15.003 14.406 14.7946 14.65 14.5497L16.3 15.233L16.95 14.0997L15.5167 13.0163C15.5722 12.8608 15.6111 12.697 15.6333 12.525C15.6555 12.353 15.6667 12.1779 15.6667 11.9997C15.6667 11.8215 15.6555 11.6466 15.6333 11.475C15.6111 11.3035 15.5722 11.1395 15.5167 10.983L16.95 9.89967L16.3 8.76634L14.65 9.46634C14.4055 9.21079 14.1362 8.99701 13.842 8.82501C13.5478 8.65301 13.2282 8.52234 12.8833 8.43301L12.6667 6.66634H11.35L11.1167 8.43301C10.7722 8.5219 10.4529 8.65256 10.1587 8.82501C9.86443 8.99745 9.59488 9.20567 9.34999 9.44967L7.69999 8.76634L7.04999 9.89967L8.48332 10.9663C8.42776 11.133 8.38888 11.2997 8.36665 11.4663C8.34443 11.633 8.33332 11.8108 8.33332 11.9997C8.33332 12.1775 8.34443 12.3497 8.36665 12.5163C8.38888 12.683 8.42776 12.8497 8.48332 13.0163L7.04999 14.0997L7.69999 15.233L9.34999 14.533C9.59443 14.7886 9.86399 15.0026 10.1587 15.175C10.4533 15.3475 10.7727 15.4779 11.1167 15.5663L11.3333 17.333ZM12.0333 14.333C12.6778 14.333 13.2278 14.1052 13.6833 13.6497C14.1389 13.1941 14.3667 12.6441 14.3667 11.9997C14.3667 11.3552 14.1389 10.8052 13.6833 10.3497C13.2278 9.89412 12.6778 9.66634 12.0333 9.66634C11.3778 9.66634 10.8251 9.89412 10.3753 10.3497C9.92554 10.8052 9.70043 11.3552 9.69999 11.9997C9.69954 12.6441 9.92465 13.1941 10.3753 13.6497C10.826 14.1052 11.3787 14.333 12.0333 14.333Z" fill="#413B3F"/>
</svg>
