<svg width="18" height="18" viewBox="0 0 18 18" fill="none" xmlns="http://www.w3.org/2000/svg">
<path fill-rule="evenodd" clip-rule="evenodd" d="M9 1.25581C4.72301 1.25581 1.25581 4.72301 1.25581 9C1.25581 13.277 4.72301 16.7442 9 16.7442C13.277 16.7442 16.7442 13.277 16.7442 9C16.7442 4.72301 13.277 1.25581 9 1.25581ZM0 9C0 4.02944 4.02944 0 9 0C13.9706 0 18 4.02944 18 9C18 13.9706 13.9706 18 9 18C4.02944 18 0 13.9706 0 9ZM9 3.34884C9.34677 3.34884 9.62791 3.62996 9.62791 3.97674V4.24191C10.9929 4.48633 12.1395 5.51186 12.1395 6.90698C12.1395 7.25376 11.8584 7.53488 11.5116 7.53488C11.1649 7.53488 10.8837 7.25376 10.8837 6.90698C10.8837 6.33896 10.4115 5.73772 9.62791 5.52347V8.42793C10.9929 8.6724 12.1395 9.6979 12.1395 11.093C12.1395 12.4881 10.9929 13.5136 9.62791 13.7581V14.0233C9.62791 14.37 9.34677 14.6512 9 14.6512C8.65323 14.6512 8.37209 14.37 8.37209 14.0233V13.7581C7.00708 13.5136 5.86047 12.4881 5.86047 11.093C5.86047 10.7463 6.14159 10.4651 6.48837 10.4651C6.83515 10.4651 7.11628 10.7463 7.11628 11.093C7.11628 11.6611 7.58855 12.2623 8.37209 12.4765V9.57207C7.00708 9.3276 5.86047 8.3021 5.86047 6.90698C5.86047 5.51186 7.00708 4.48633 8.37209 4.24191V3.97674C8.37209 3.62996 8.65323 3.34884 9 3.34884ZM8.37209 5.52347C7.58855 5.73772 7.11628 6.33896 7.11628 6.90698C7.11628 7.47502 7.58855 8.07622 8.37209 8.29047V5.52347ZM9.62791 9.70953V12.4765C10.4115 12.2623 10.8837 11.6611 10.8837 11.093C10.8837 10.525 10.4115 9.92378 9.62791 9.70953Z" fill="#4D4D4D"/>
</svg>
