<svg width="17" height="17" viewBox="0 0 17 17" fill="none" xmlns="http://www.w3.org/2000/svg">
<g clip-path="url(#clip0_2087_5850)">
<path d="M13.4766 2.22731H11.9386V1.53928C11.9386 1.31668 11.6958 1.2155 11.4732 1.2155H10.2792C9.99593 0.406042 9.28764 0.00131028 8.47818 0.00131028C7.67763 -0.028786 6.94947 0.46209 6.67713 1.2155H5.50341C5.28081 1.2155 5.0582 1.31668 5.0582 1.53928V2.22731H3.52019C2.60878 2.23704 1.86315 2.95602 1.82031 3.86646V15.462C1.82031 16.3524 2.62978 17 3.52019 17H13.4766C14.367 17 15.1765 16.3524 15.1765 15.462V3.8665C15.1336 2.95602 14.388 2.23704 13.4766 2.22731ZM5.86763 2.02497H6.98065C7.07529 2.01342 7.16373 1.9718 7.23295 1.90622C7.30217 1.84065 7.34851 1.75459 7.36516 1.66071C7.485 1.13881 7.94288 0.764176 8.47818 0.750077C9.00853 0.766152 9.45951 1.14195 9.57094 1.66071C9.58859 1.75766 9.63789 1.84601 9.71113 1.91193C9.78437 1.97784 9.87742 2.0176 9.97568 2.02497H11.1292V3.64389H5.86763V2.02497ZM14.367 15.462C14.367 15.9072 13.9218 16.1905 13.4766 16.1905H3.52019C3.07498 16.1905 2.62978 15.9072 2.62978 15.462V3.8665C2.67107 3.40308 3.055 3.0453 3.52019 3.03682H5.05816V4.06888C5.07955 4.29563 5.27593 4.46525 5.50337 4.45339H11.4731C11.5848 4.45951 11.6947 4.42334 11.781 4.35209C11.8672 4.28084 11.9235 4.17973 11.9386 4.06888V3.03678H13.4765C13.9417 3.0453 14.3257 3.40305 14.3669 3.86646V15.462H14.367Z" fill="white"/>
<path d="M6.94004 9.04714C6.78824 8.88713 6.53623 8.8781 6.3734 9.02692L5.07825 10.2613L4.53187 9.69469C4.38007 9.53468 4.12807 9.52569 3.96523 9.67447C3.88976 9.75352 3.84766 9.85861 3.84766 9.9679C3.84766 10.0772 3.88976 10.1823 3.96523 10.2613L4.79491 11.1113C4.83038 11.151 4.87413 11.1825 4.92308 11.2034C4.97203 11.2244 5.02498 11.2344 5.07821 11.2327C5.18497 11.2312 5.2868 11.1875 5.36151 11.1113L6.93996 9.61378C7.09644 9.47023 7.1069 9.22698 6.96332 9.07053C6.95594 9.06236 6.94817 9.05455 6.94004 9.04714ZM12.7479 9.91729H8.09353C7.87 9.91729 7.6888 10.0985 7.6888 10.322C7.6888 10.5456 7.87 10.7268 8.09353 10.7268H12.7479C12.9715 10.7268 13.1527 10.5456 13.1527 10.322C13.1527 10.0985 12.9715 9.91729 12.7479 9.91729ZM6.94004 5.80928C6.78824 5.64927 6.53623 5.64025 6.3734 5.78907L5.07825 7.02348L4.53187 6.45684C4.38007 6.29683 4.12807 6.2878 3.96523 6.43662C3.88976 6.51567 3.84766 6.62076 3.84766 6.73005C3.84766 6.83934 3.88976 6.94443 3.96523 7.02348L4.79491 7.87342C4.83038 7.91314 4.87413 7.9446 4.92308 7.96558C4.97203 7.98656 5.02498 7.99655 5.07821 7.99485C5.18497 7.99334 5.2868 7.94969 5.36151 7.87342L6.93996 6.37592C7.09644 6.23238 7.1069 5.98913 6.96332 5.83268C6.95594 5.82451 6.94817 5.8167 6.94004 5.80928ZM12.7479 6.67944H8.09353C7.87 6.67944 7.6888 6.86064 7.6888 7.08417C7.6888 7.30771 7.87 7.48891 8.09353 7.48891H12.7479C12.9715 7.48891 13.1527 7.30771 13.1527 7.08417C13.1527 6.86064 12.9715 6.67944 12.7479 6.67944ZM6.94004 12.2849C6.78824 12.1249 6.53623 12.116 6.3734 12.2647L5.07825 13.4991L4.53187 12.9325C4.38007 12.7725 4.12807 12.7635 3.96523 12.9123C3.88976 12.9913 3.84766 13.0964 3.84766 13.2057C3.84766 13.315 3.88976 13.4201 3.96523 13.4991L4.79491 14.3491C4.83038 14.3888 4.87413 14.4203 4.92308 14.4412C4.97203 14.4622 5.02498 14.4722 5.07821 14.4705C5.18497 14.469 5.2868 14.4254 5.36151 14.3491L6.93996 12.8516C7.09644 12.708 7.1069 12.4648 6.96332 12.3083C6.95592 12.3002 6.94815 12.2924 6.94004 12.2849ZM12.7479 13.1551H8.09353C7.87 13.1551 7.6888 13.3363 7.6888 13.5599C7.6888 13.7834 7.87 13.9646 8.09353 13.9646H12.7479C12.9715 13.9646 13.1527 13.7834 13.1527 13.5599C13.1527 13.3363 12.9715 13.1551 12.7479 13.1551Z" fill="white"/>
</g>
<defs>
<clipPath id="clip0_2087_5850">
<rect width="17" height="17" fill="white"/>
</clipPath>
</defs>
</svg>
